CenturySchL-BoldItal.ufo
<glyph name="exclam" format="1">
  <advance width="333"/>
  <unicode hex="0021"/>
  <outline>
    <contour>
      <point x="152" y="203" type="line"/>
      <point x="197" y="335"/>
      <point x="221" y="394"/>
      <point x="281" y="514" type="curve" smooth="yes"/>
      <point x="336" y="625"/>
      <point x="336" y="625"/>
      <point x="336" y="657" type="curve" smooth="yes"/>
      <point x="336" y="704"/>
      <point x="296" y="737"/>
      <point x="238" y="737" type="curve" smooth="yes"/>
      <point x="213" y="737"/>
      <point x="190" y="724"/>
      <point x="175" y="702" type="curve" smooth="yes"/>
      <point x="158" y="677"/>
      <point x="155" y="657"/>
      <point x="151" y="567" type="curve" smooth="yes"/>
      <point x="147" y="468"/>
      <point x="130" y="351"/>
      <point x="100" y="216" type="curve"/>
    </contour>
    <contour>
      <point x="90" y="159" type="curve" smooth="yes"/>
      <point x="42" y="159"/>
      <point x="3" y="120"/>
      <point x="3" y="72" type="curve" smooth="yes"/>
      <point x="3" y="25"/>
      <point x="42" y="-15"/>
      <point x="89" y="-15" type="curve" smooth="yes"/>
      <point x="138" y="-15"/>
      <point x="177" y="24"/>
      <point x="177" y="72" type="curve" smooth="yes"/>
      <point x="177" y="120"/>
      <point x="138" y="159"/>
    </contour>
  </outline>
</glyph>
<glyph name="quotedbl" format="1">
  <advance width="400"/>
  <unicode hex="0022"/>
  <outline>
    <contour>
      <point x="146" y="397" type="line"/>
      <point x="253" y="609" type="line" smooth="yes"/>
      <point x="264" y="629"/>
      <point x="269" y="647"/>
      <point x="269" y="663" type="curve" smooth="yes"/>
      <point x="269" y="703"/>
      <point x="237" y="734"/>
      <point x="195" y="734" type="curve" smooth="yes"/>
      <point x="152" y="734"/>
      <point x="126" y="703"/>
      <point x="121" y="646" type="curve" smooth="yes"/>
      <point x="100" y="410" type="line"/>
    </contour>
    <contour>
      <point x="384" y="397" type="line"/>
      <point x="491" y="609" type="line" smooth="yes"/>
      <point x="502" y="629"/>
      <point x="507" y="647"/>
      <point x="507" y="663" type="curve" smooth="yes"/>
      <point x="507" y="703"/>
      <point x="475" y="734"/>
      <point x="433" y="734" type="curve" smooth="yes"/>
      <point x="390" y="734"/>
      <point x="364" y="703"/>
      <point x="359" y="646" type="curve" smooth="yes"/>
      <point x="338" y="410" type="line"/>
    </contour>
  </outline>
</glyph>
<glyph name="numbersign" format="1">
  <advance width="574"/>
  <unicode hex="0023"/>
  <outline>
    <contour>
      <point x="135" y="221" type="line"/>
      <point x="103" y="0" type="line"/>
      <point x="193" y="0" type="line"/>
      <point x="225" y="221" type="line"/>
      <point x="311" y="221" type="line"/>
      <point x="279" y="0" type="line"/>
      <point x="369" y="0" type="line"/>
      <point x="401" y="221" type="line"/>
      <point x="507" y="221" type="line"/>
      <point x="507" y="304" type="line"/>
      <point x="413" y="304" type="line"/>
      <point x="428" y="412" type="line"/>
      <point x="533" y="412" type="line"/>
      <point x="533" y="495" type="line"/>
      <point x="440" y="495" type="line"/>
      <point x="469" y="700" type="line"/>
      <point x="379" y="700" type="line"/>
      <point x="350" y="495" type="line"/>
      <point x="264" y="495" type="line"/>
      <point x="294" y="700" type="line"/>
      <point x="204" y="700" type="line"/>
      <point x="174" y="495" type="line"/>
      <point x="67" y="495" type="line"/>
      <point x="67" y="412" type="line"/>
      <point x="163" y="412" type="line"/>
      <point x="147" y="304" type="line"/>
      <point x="41" y="304" type="line"/>
      <point x="41" y="221" type="line"/>
    </contour>
    <contour>
      <point x="253" y="412" type="line"/>
      <point x="338" y="412" type="line"/>
      <point x="322" y="304" type="line"/>
      <point x="237" y="304" type="line"/>
    </contour>
  </outline>
</glyph>
<glyph name="dollar" format="1">
  <advance width="574"/>
  <unicode hex="0024"/>
  <outline>
    <contour>
      <point x="333" y="414" type="line"/>
      <point x="394" y="640" type="line"/>
      <point x="433" y="632"/>
      <point x="463" y="613"/>
      <point x="463" y="594" type="curve" smooth="yes"/>
      <point x="463" y="587"/>
      <point x="459" y="583"/>
      <point x="450" y="579" type="curve" smooth="yes"/>
      <point x="417" y="565"/>
      <point x="404" y="547"/>
      <point x="404" y="515" type="curve" smooth="yes"/>
      <point x="404" y="472"/>
      <point x="433" y="443"/>
      <point x="476" y="443" type="curve" smooth="yes"/>
      <point x="526" y="443"/>
      <point x="559" y="479"/>
      <point x="559" y="532" type="curve" smooth="yes"/>
      <point x="559" y="612"/>
      <point x="502" y="671"/>
      <point x="407" y="688" type="curve"/>
      <point x="435" y="794" type="line"/>
      <point x="381" y="794" type="line"/>
      <point x="354" y="694" type="line"/>
      <point x="346" y="694" type="line" smooth="yes"/>
      <point x="197" y="694"/>
      <point x="96" y="606"/>
      <point x="96" y="475" type="curve" smooth="yes"/>
      <point x="96" y="395"/>
      <point x="141" y="334"/>
      <point x="231" y="292" type="curve" smooth="yes"/>
      <point x="245" y="285" type="line"/>
      <point x="179" y="40" type="line"/>
      <point x="130" y="52"/>
      <point x="102" y="71"/>
      <point x="102" y="91" type="curve" smooth="yes"/>
      <point x="102" y="102"/>
      <point x="107" y="107"/>
      <point x="127" y="118" type="curve" smooth="yes"/>
      <point x="155" y="132"/>
      <point x="169" y="153"/>
      <point x="169" y="181" type="curve" smooth="yes"/>
      <point x="169" y="222"/>
      <point x="137" y="251"/>
      <point x="93" y="251" type="curve" smooth="yes"/>
      <point x="39" y="251"/>
      <point x="3" y="211"/>
      <point x="3" y="151" type="curve" smooth="yes"/>
      <point x="3" y="72"/>
      <point x="66" y="10"/>
      <point x="166" y="-9" type="curve"/>
      <point x="129" y="-145" type="line"/>
      <point x="183" y="-145" type="line"/>
      <point x="218" y="-15" type="line"/>
      <point x="227" y="-15" type="line" smooth="yes"/>
      <point x="263" y="-15"/>
      <point x="322" y="-5"/>
      <point x="351" y="6" type="curve" smooth="yes"/>
      <point x="439" y="39"/>
      <point x="500" y="124"/>
      <point x="500" y="212" type="curve" smooth="yes"/>
      <point x="500" y="289"/>
      <point x="448" y="359"/>
      <point x="359" y="402" type="curve" smooth="yes"/>
    </contour>
    <contour>
      <point x="293" y="263" type="line"/>
      <point x="357" y="231"/>
      <point x="381" y="202"/>
      <point x="381" y="153" type="curve" smooth="yes"/>
      <point x="381" y="85"/>
      <point x="319" y="36"/>
      <point x="231" y="34" type="curve"/>
    </contour>
    <contour>
      <point x="286" y="438" type="line"/>
      <point x="232" y="461"/>
      <point x="208" y="490"/>
      <point x="208" y="533" type="curve" smooth="yes"/>
      <point x="208" y="599"/>
      <point x="257" y="641"/>
      <point x="341" y="644" type="curve"/>
    </contour>
  </outline>
</glyph>
<glyph name="percent" format="1">
  <advance width="889"/>
  <unicode hex="0025"/>
  <outline>
    <contour>
      <point x="676" y="722" type="line"/>
      <point x="629" y="722" type="line"/>
      <point x="586" y="665"/>
      <point x="537" y="640"/>
      <point x="467" y="640" type="curve" smooth="yes"/>
      <point x="433" y="640"/>
      <point x="408" y="646"/>
      <point x="380" y="660" type="curve"/>
      <point x="354" y="694"/>
      <point x="327" y="708"/>
      <point x="287" y="708" type="curve" smooth="yes"/>
      <point x="243" y="708"/>
      <point x="197" y="689"/>
      <point x="157" y="655" type="curve" smooth="yes"/>
      <point x="97" y="603"/>
      <point x="51" y="512"/>
      <point x="51" y="443" type="curve" smooth="yes"/>
      <point x="51" y="369"/>
      <point x="107" y="315"/>
      <point x="184" y="315" type="curve" smooth="yes"/>
      <point x="241" y="315"/>
      <point x="288" y="339"/>
      <point x="333" y="392" type="curve" smooth="yes"/>
      <point x="374" y="441"/>
      <point x="404" y="515"/>
      <point x="404" y="569" type="curve" smooth="yes"/>
      <point x="404" y="579"/>
      <point x="403" y="589"/>
      <point x="401" y="606" type="curve"/>
      <point x="427" y="599"/>
      <point x="442" y="597"/>
      <point x="464" y="597" type="curve" smooth="yes"/>
      <point x="496" y="597"/>
      <point x="519" y="601"/>
      <point x="562" y="615" type="curve"/>
      <point x="210" y="0" type="line"/>
      <point x="262" y="0" type="line"/>
    </contour>
    <contour>
      <point x="300" y="658" type="curve"/>
      <point x="318" y="638"/>
      <point x="332" y="629"/>
      <point x="358" y="619" type="curve"/>
      <point x="362" y="606"/>
      <point x="364" y="595"/>
      <point x="364" y="582" type="curve" smooth="yes"/>
      <point x="364" y="477"/>
      <point x="282" y="364"/>
      <point x="206" y="364" type="curve" smooth="yes"/>
      <point x="176" y="364"/>
      <point x="155" y="386"/>
      <point x="155" y="418" type="curve" smooth="yes"/>
      <point x="155" y="452"/>
      <point x="170" y="491"/>
      <point x="215" y="569" type="curve" smooth="yes"/>
      <point x="251" y="633"/>
      <point x="263" y="645"/>
    </contour>
    <contour>
      <point x="714" y="407" type="curve" smooth="yes"/>
      <point x="654" y="407"/>
      <point x="597" y="376"/>
      <point x="550" y="319" type="curve" smooth="yes"/>
      <point x="508" y="266"/>
      <point x="481" y="197"/>
      <point x="481" y="140" type="curve" smooth="yes"/>
      <point x="481" y="67"/>
      <point x="538" y="14"/>
      <point x="616" y="14" type="curve" smooth="yes"/>
      <point x="669" y="14"/>
      <point x="722" y="41"/>
      <point x="760" y="89" type="curve" smooth="yes"/>
      <point x="806" y="147"/>
      <point x="836" y="223"/>
      <point x="836" y="283" type="curve" smooth="yes"/>
      <point x="836" y="355"/>
      <point x="785" y="407"/>
    </contour>
    <contour>
      <point x="737" y="356" type="curve" smooth="yes"/>
      <point x="769" y="356"/>
      <point x="794" y="322"/>
      <point x="794" y="280" type="curve" smooth="yes"/>
      <point x="794" y="177"/>
      <point x="710" y="63"/>
      <point x="633" y="63" type="curve" smooth="yes"/>
      <point x="605" y="63"/>
      <point x="583" y="86"/>
      <point x="583" y="115" type="curve" smooth="yes"/>
      <point x="583" y="153"/>
      <point x="603" y="201"/>
      <point x="655" y="287" type="curve" smooth="yes"/>
      <point x="684" y="334"/>
      <point x="709" y="356"/>
    </contour>
  </outline>
</glyph>
<glyph name="ampersand" format="1">
  <advance width="889"/>
  <unicode hex="0026"/>
  <outline>
    <contour>
      <point x="823" y="397" type="line"/>
      <point x="547" y="397" type="line"/>
      <point x="541" y="346" type="line"/>
      <point x="584" y="343"/>
      <point x="597" y="341"/>
      <point x="608" y="334" type="curve" smooth="yes"/>
      <point x="618" y="328"/>
      <point x="626" y="315"/>
      <point x="626" y="304" type="curve" smooth="yes"/>
      <point x="626" y="277"/>
      <point x="606" y="249"/>
      <point x="541" y="182" type="curve"/>
      <point x="501" y="248"/>
      <point x="456" y="355"/>
      <point x="439" y="425" type="curve"/>
      <point x="492" y="440"/>
      <point x="517" y="448"/>
      <point x="543" y="461" type="curve" smooth="yes"/>
      <point x="619" y="496"/>
      <point x="654" y="540"/>
      <point x="654" y="599" type="curve" smooth="yes"/>
      <point x="654" y="684"/>
      <point x="584" y="737"/>
      <point x="472" y="737" type="curve" smooth="yes"/>
      <point x="399" y="737"/>
      <point x="353" y="721"/>
      <point x="312" y="682" type="curve" smooth="yes"/>
      <point x="272" y="645"/>
      <point x="255" y="598"/>
      <point x="255" y="528" type="curve" smooth="yes"/>
      <point x="255" y="495"/>
      <point x="258" y="471"/>
      <point x="270" y="425" type="curve"/>
      <point x="198" y="398"/>
      <point x="169" y="385"/>
      <point x="130" y="359" type="curve" smooth="yes"/>
      <point x="69" y="320"/>
      <point x="31" y="251"/>
      <point x="31" y="179" type="curve" smooth="yes"/>
      <point x="31" y="63"/>
      <point x="119" y="-15"/>
      <point x="248" y="-15" type="curve" smooth="yes"/>
      <point x="318" y="-15"/>
      <point x="380" y="6"/>
      <point x="439" y="48" type="curve"/>
      <point x="477" y="7"/>
      <point x="531" y="-15"/>
      <point x="589" y="-15" type="curve" smooth="yes"/>
      <point x="675" y="-15"/>
      <point x="748" y="30"/>
      <point x="806" y="120" type="curve"/>
      <point x="767" y="150" type="line"/>
      <point x="728" y="94"/>
      <point x="694" y="67"/>
      <point x="663" y="67" type="curve" smooth="yes"/>
      <point x="633" y="67"/>
      <point x="614" y="80"/>
      <point x="569" y="134" type="curve"/>
      <point x="601" y="166"/>
      <point x="624" y="190"/>
      <point x="633" y="203" type="curve"/>
      <point x="727" y="325"/>
      <point x="746" y="340"/>
      <point x="817" y="346" type="curve"/>
    </contour>
    <contour>
      <point x="425" y="477" type="curve"/>
      <point x="414" y="515"/>
      <point x="410" y="543"/>
      <point x="410" y="575" type="curve" smooth="yes"/>
      <point x="410" y="644"/>
      <point x="436" y="685"/>
      <point x="479" y="685" type="curve" smooth="yes"/>
      <point x="515" y="685"/>
      <point x="540" y="655"/>
      <point x="540" y="612" type="curve" smooth="yes"/>
      <point x="540" y="553"/>
      <point x="499" y="506"/>
    </contour>
    <contour>
      <point x="283" y="372" type="curve"/>
      <point x="315" y="263"/>
      <point x="353" y="175"/>
      <point x="406" y="90" type="curve"/>
      <point x="377" y="74"/>
      <point x="360" y="69"/>
      <point x="334" y="69" type="curve" smooth="yes"/>
      <point x="257" y="69"/>
      <point x="199" y="143"/>
      <point x="199" y="240" type="curve" smooth="yes"/>
      <point x="199" y="302"/>
      <point x="227" y="346"/>
    </contour>
  </outline>
</glyph>
<glyph name="quotesingle" format="1">
  <advance width="287"/>
  <unicode hex="0027"/>
  <outline>
    <contour>
      <point x="146" y="397" type="line"/>
      <point x="253" y="609" type="line" smooth="yes"/>
      <point x="264" y="629"/>
      <point x="269" y="647"/>
      <point x="269" y="663" type="curve" smooth="yes"/>
      <point x="269" y="703"/>
      <point x="237" y="734"/>
      <point x="195" y="734" type="curve" smooth="yes"/>
      <point x="152" y="734"/>
      <point x="126" y="703"/>
      <point x="121" y="646" type="curve" smooth="yes"/>
      <point x="100" y="410" type="line"/>
    </contour>
  </outline>
</glyph>
<glyph name="parenleft" format="1">
  <advance width="407"/>
  <unicode hex="0028"/>
  <outline>
    <contour>
      <point x="436" y="737" type="line"/>
      <point x="221" y="653"/>
      <point x="71" y="449"/>
      <point x="71" y="238" type="curve" smooth="yes"/>
      <point x="71" y="108"/>
      <point x="125" y="-21"/>
      <point x="221" y="-118" type="curve"/>
      <point x="251" y="-96" type="line"/>
      <point x="207" y="-33"/>
      <point x="185" y="38"/>
      <point x="185" y="117" type="curve" smooth="yes"/>
      <point x="185" y="225"/>
      <point x="219" y="387"/>
      <point x="263" y="489" type="curve" smooth="yes"/>
      <point x="308" y="592"/>
      <point x="359" y="651"/>
      <point x="452" y="705" type="curve"/>
    </contour>
  </outline>
</glyph>
<glyph name="parenright" format="1">
  <advance width="407"/>
  <unicode hex="0029"/>
  <outline>
    <contour>
      <point x="-54" y="-118" type="line"/>
      <point x="158" y="-36"/>
      <point x="308" y="171"/>
      <point x="308" y="381" type="curve" smooth="yes"/>
      <point x="308" y="511"/>
      <point x="254" y="640"/>
      <point x="158" y="737" type="curve"/>
      <point x="128" y="715" type="line"/>
      <point x="172" y="652"/>
      <point x="194" y="581"/>
      <point x="194" y="502" type="curve" smooth="yes"/>
      <point x="194" y="395"/>
      <point x="160" y="234"/>
      <point x="116" y="130" type="curve" smooth="yes"/>
      <point x="71" y="26"/>
      <point x="21" y="-33"/>
      <point x="-70" y="-86" type="curve"/>
    </contour>
  </outline>
</glyph>
<glyph name="asterisk" format="1">
  <advance width="500"/>
  <unicode hex="002A"/>
  <outline>
    <contour>
      <point x="278" y="510" type="line"/>
      <point x="295" y="515" type="line" smooth="yes"/>
      <point x="313" y="520"/>
      <point x="326" y="522"/>
      <point x="339" y="522" type="curve" smooth="yes"/>
      <point x="345" y="522"/>
      <point x="355" y="521"/>
      <point x="366" y="518" type="curve"/>
      <point x="402" y="511"/>
      <point x="402" y="511"/>
      <point x="413" y="511" type="curve" smooth="yes"/>
      <point x="446" y="511"/>
      <point x="472" y="534"/>
      <point x="472" y="563" type="curve" smooth="yes"/>
      <point x="472" y="590"/>
      <point x="449" y="612"/>
      <point x="421" y="612" type="curve" smooth="yes"/>
      <point x="403" y="612"/>
      <point x="387" y="605"/>
      <point x="370" y="590" type="curve" smooth="yes"/>
      <point x="329" y="553"/>
      <point x="328" y="553"/>
      <point x="288" y="541" type="curve" smooth="yes"/>
      <point x="271" y="536" type="line"/>
      <point x="275" y="553" type="line"/>
      <point x="285" y="586"/>
      <point x="290" y="597"/>
      <point x="308" y="617" type="curve" smooth="yes"/>
      <point x="342" y="655"/>
      <point x="347" y="663"/>
      <point x="347" y="686" type="curve" smooth="yes"/>
      <point x="347" y="714"/>
      <point x="325" y="737"/>
      <point x="298" y="737" type="curve" smooth="yes"/>
      <point x="269" y="737"/>
      <point x="245" y="710"/>
      <point x="245" y="679" type="curve" smooth="yes"/>
      <point x="245" y="672"/>
      <point x="246" y="664"/>
      <point x="248" y="656" type="curve" smooth="yes"/>
      <point x="257" y="615"/>
      <point x="257" y="614"/>
      <point x="257" y="604" type="curve" smooth="yes"/>
      <point x="257" y="593"/>
      <point x="255" y="578"/>
      <point x="250" y="560" type="curve" smooth="yes"/>
      <point x="245" y="543" type="line"/>
      <point x="232" y="556" type="line" smooth="yes"/>
      <point x="208" y="581"/>
      <point x="202" y="590"/>
      <point x="193" y="615" type="curve" smooth="yes"/>
      <point x="179" y="652"/>
      <point x="178" y="654"/>
      <point x="170" y="665" type="curve" smooth="yes"/>
      <point x="158" y="681"/>
      <point x="141" y="690"/>
      <point x="123" y="690" type="curve" smooth="yes"/>
      <point x="98" y="690"/>
      <point x="78" y="669"/>
      <point x="78" y="643" type="curve" smooth="yes"/>
      <point x="78" y="616"/>
      <point x="97" y="594"/>
      <point x="130" y="583" type="curve" smooth="yes"/>
      <point x="181" y="567"/>
      <point x="183" y="566"/>
      <point x="214" y="537" type="curve"/>
      <point x="226" y="524" type="line"/>
      <point x="209" y="520" type="line" smooth="yes"/>
      <point x="190" y="515"/>
      <point x="174" y="512"/>
      <point x="162" y="512" type="curve" smooth="yes"/>
      <point x="156" y="512"/>
      <point x="148" y="513"/>
      <point x="138" y="515" type="curve" smooth="yes"/>
      <point x="103" y="521"/>
      <point x="103" y="521"/>
      <point x="93" y="521" type="curve" smooth="yes"/>
      <point x="59" y="521"/>
      <point x="32" y="498"/>
      <point x="32" y="470" type="curve" smooth="yes"/>
      <point x="32" y="443"/>
      <point x="55" y="422"/>
      <point x="83" y="422" type="curve" smooth="yes"/>
      <point x="100" y="422"/>
      <point x="117" y="430"/>
      <point x="134" y="444" type="curve"/>
      <point x="174" y="481"/>
      <point x="175" y="482"/>
      <point x="216" y="494" type="curve" smooth="yes"/>
      <point x="233" y="499" type="line"/>
      <point x="228" y="481" type="line" smooth="yes"/>
      <point x="219" y="448"/>
      <point x="214" y="437"/>
      <point x="197" y="417" type="curve" smooth="yes"/>
      <point x="165" y="378"/>
      <point x="160" y="369"/>
      <point x="160" y="347" type="curve" smooth="yes"/>
      <point x="160" y="319"/>
      <point x="180" y="297"/>
      <point x="206" y="297" type="curve" smooth="yes"/>
      <point x="235" y="297"/>
      <point x="259" y="324"/>
      <point x="259" y="356" type="curve" smooth="yes"/>
      <point x="259" y="363"/>
      <point x="258" y="371"/>
      <point x="256" y="378" type="curve"/>
      <point x="247" y="420"/>
      <point x="247" y="421"/>
      <point x="247" y="430" type="curve" smooth="yes"/>
      <point x="247" y="442"/>
      <point x="249" y="456"/>
      <point x="254" y="474" type="curve" smooth="yes"/>
      <point x="259" y="492" type="line"/>
      <point x="272" y="479" type="line" smooth="yes"/>
      <point x="295" y="455"/>
      <point x="302" y="444"/>
      <point x="310" y="419" type="curve" smooth="yes"/>
      <point x="323" y="379"/>
      <point x="324" y="377"/>
      <point x="332" y="367" type="curve" smooth="yes"/>
      <point x="344" y="352"/>
      <point x="360" y="343"/>
      <point x="377" y="343" type="curve" smooth="yes"/>
      <point x="404" y="343"/>
      <point x="426" y="365"/>
      <point x="426" y="392" type="curve" smooth="yes"/>
      <point x="426" y="419"/>
      <point x="407" y="440"/>
      <point x="374" y="451" type="curve" smooth="yes"/>
      <point x="321" y="468"/>
      <point x="321" y="468"/>
      <point x="290" y="498" type="curve" smooth="yes"/>
    </contour>
  </outline>
</glyph>
<glyph name="plus" format="1">
  <advance width="606"/>
  <unicode hex="002B"/>
  <outline>
    <contour>
      <point x="236" y="195" type="line"/>
      <point x="236" y="0" type="line"/>
      <point x="351" y="0" type="line"/>
      <point x="351" y="195" type="line"/>
      <point x="545" y="195" type="line"/>
      <point x="545" y="310" type="line"/>
      <point x="351" y="310" type="line"/>
      <point x="351" y="505" type="line"/>
      <point x="236" y="505" type="line"/>
      <point x="236" y="310" type="line"/>
      <point x="41" y="310" type="line"/>
      <point x="41" y="195" type="line"/>
    </contour>
  </outline>
</glyph>
<glyph name="comma" format="1">
  <advance width="287"/>
  <unicode hex="002C"/>
  <outline>
    <contour>
      <point x="-27" y="-187" type="line"/>
      <point x="107" y="-134"/>
      <point x="180" y="-54"/>
      <point x="180" y="43" type="curve" smooth="yes"/>
      <point x="180" y="112"/>
      <point x="139" y="159"/>
      <point x="78" y="159" type="curve" smooth="yes"/>
      <point x="23" y="159"/>
      <point x="-16" y="121"/>
      <point x="-16" y="68" type="curve" smooth="yes"/>
      <point x="-16" y="18"/>
      <point x="13" y="-11"/>
      <point x="62" y="-11" type="curve" smooth="yes"/>
      <point x="70" y="-11"/>
      <point x="76" y="-11"/>
      <point x="86" y="-9" type="curve"/>
      <point x="86" y="-60"/>
      <point x="42" y="-105"/>
      <point x="-48" y="-146" type="curve"/>
    </contour>
  </outline>
</glyph>
<glyph name="hyphen" format="1">
  <advance width="333"/>
  <unicode hex="002D"/>
  <outline>
    <contour>
      <point x="45" y="310" type="line"/>
      <point x="10" y="180" type="line"/>
      <point x="237" y="180" type="line"/>
      <point x="272" y="310" type="line"/>
    </contour>
  </outline>
</glyph>
<glyph name="period" format="1">
  <advance width="287"/>
  <unicode hex="002E"/>
  <outline>
    <contour>
      <point x="99" y="159" type="curve" smooth="yes"/>
      <point x="51" y="159"/>
      <point x="12" y="120"/>
      <point x="12" y="72" type="curve" smooth="yes"/>
      <point x="12" y="25"/>
      <point x="51" y="-15"/>
      <point x="98" y="-15" type="curve" smooth="yes"/>
      <point x="147" y="-15"/>
      <point x="186" y="24"/>
      <point x="186" y="72" type="curve" smooth="yes"/>
      <point x="186" y="120"/>
      <point x="147" y="159"/>
    </contour>
  </outline>
</glyph>
<glyph name="slash" format="1">
  <advance width="278"/>
  <unicode hex="002F"/>
  <outline>
    <contour>
      <point x="237" y="737" type="line"/>
      <point x="-25" y="-15" type="line"/>
      <point x="49" y="-15" type="line"/>
      <point x="311" y="737" type="line"/>
    </contour>
  </outline>
</glyph>
<glyph name="zero" format="1">
  <advance width="574"/>
  <unicode hex="0030"/>
  <outline>
    <contour>
      <point x="358" y="705" type="curve" smooth="yes"/>
      <point x="272" y="705"/>
      <point x="195" y="660"/>
      <point x="127" y="568" type="curve" smooth="yes"/>
      <point x="62" y="480"/>
      <point x="21" y="352"/>
      <point x="21" y="236" type="curve" smooth="yes"/>
      <point x="21" y="84"/>
      <point x="100" y="-15"/>
      <point x="221" y="-15" type="curve" smooth="yes"/>
      <point x="398" y="-15"/>
      <point x="553" y="202"/>
      <point x="553" y="452" type="curve" smooth="yes"/>
      <point x="553" y="606"/>
      <point x="477" y="705"/>
    </contour>
    <contour>
      <point x="353" y="656" type="curve" smooth="yes"/>
      <point x="386" y="656"/>
      <point x="406" y="625"/>
      <point x="406" y="572" type="curve" smooth="yes"/>
      <point x="406" y="495"/>
      <point x="375" y="323"/>
      <point x="340" y="209" type="curve" smooth="yes"/>
      <point x="301" y="81"/>
      <point x="270" y="36"/>
      <point x="223" y="36" type="curve" smooth="yes"/>
      <point x="188" y="36"/>
      <point x="166" y="63"/>
      <point x="166" y="107" type="curve" smooth="yes"/>
      <point x="166" y="176"/>
      <point x="197" y="350"/>
      <point x="230" y="469" type="curve" smooth="yes"/>
      <point x="265" y="593"/>
      <point x="306" y="656"/>
    </contour>
  </outline>
</glyph>
<glyph name="one" format="1">
  <advance width="574"/>
  <unicode hex="0031"/>
  <outline>
    <contour>
      <point x="489" y="707" type="line"/>
      <point x="448" y="707" type="line"/>
      <point x="403" y="673"/>
      <point x="274" y="639"/>
      <point x="173" y="635" type="curve"/>
      <point x="160" y="585" type="line"/>
      <point x="250" y="585" type="line" smooth="yes"/>
      <point x="284" y="585"/>
      <point x="295" y="579"/>
      <point x="295" y="559" type="curve" smooth="yes"/>
      <point x="295" y="550"/>
      <point x="294" y="544"/>
      <point x="287" y="521" type="curve" smooth="yes"/>
      <point x="187" y="144" type="line" smooth="yes"/>
      <point x="168" y="75"/>
      <point x="168" y="75"/>
      <point x="160" y="68" type="curve"/>
      <point x="150" y="58"/>
      <point x="126" y="54"/>
      <point x="84" y="54" type="curve" smooth="yes"/>
      <point x="33" y="54" type="line"/>
      <point x="25" y="0" type="line"/>
      <point x="447" y="0" type="line"/>
      <point x="454" y="54" type="line"/>
      <point x="404" y="54" type="line" smooth="yes"/>
      <point x="339" y="54"/>
      <point x="325" y="59"/>
      <point x="325" y="81" type="curve" smooth="yes"/>
      <point x="325" y="90"/>
      <point x="330" y="112"/>
      <point x="338" y="144" type="curve" smooth="yes"/>
    </contour>
  </outline>
</glyph>
<glyph name="two" format="1">
  <advance width="574"/>
  <unicode hex="0032"/>
  <outline>
    <contour>
      <point x="458" y="249" type="line"/>
      <point x="448" y="230" type="line" smooth="yes"/>
      <point x="407" y="148"/>
      <point x="389" y="135"/>
      <point x="321" y="135" type="curve" smooth="yes"/>
      <point x="125" y="135" type="line"/>
      <point x="140" y="150"/>
      <point x="169" y="170"/>
      <point x="225" y="205" type="curve" smooth="yes"/>
      <point x="398" y="309"/>
      <point x="398" y="309"/>
      <point x="417" y="324" type="curve" smooth="yes"/>
      <point x="496" y="385"/>
      <point x="538" y="455"/>
      <point x="538" y="523" type="curve" smooth="yes"/>
      <point x="538" y="574"/>
      <point x="514" y="626"/>
      <point x="478" y="657" type="curve" smooth="yes"/>
      <point x="442" y="687"/>
      <point x="384" y="705"/>
      <point x="322" y="705" type="curve" smooth="yes"/>
      <point x="177" y="705"/>
      <point x="71" y="616"/>
      <point x="71" y="496" type="curve" smooth="yes"/>
      <point x="71" y="432"/>
      <point x="112" y="386"/>
      <point x="169" y="386" type="curve" smooth="yes"/>
      <point x="217" y="386"/>
      <point x="250" y="419"/>
      <point x="250" y="467" type="curve" smooth="yes"/>
      <point x="250" y="501"/>
      <point x="234" y="523"/>
      <point x="198" y="539" type="curve" smooth="yes"/>
      <point x="165" y="554"/>
      <point x="159" y="559"/>
      <point x="159" y="574" type="curve" smooth="yes"/>
      <point x="159" y="609"/>
      <point x="212" y="644"/>
      <point x="265" y="644" type="curve" smooth="yes"/>
      <point x="329" y="644"/>
      <point x="374" y="600"/>
      <point x="374" y="537" type="curve" smooth="yes"/>
      <point x="374" y="489"/>
      <point x="352" y="433"/>
      <point x="314" y="386" type="curve" smooth="yes"/>
      <point x="285" y="349"/>
      <point x="233" y="299"/>
      <point x="135" y="214" type="curve" smooth="yes"/>
      <point x="0" y="97"/>
      <point x="-45" y="42"/>
      <point x="-40" y="0" type="curve"/>
      <point x="416" y="0" type="line"/>
      <point x="501" y="234" type="line"/>
    </contour>
  </outline>
</glyph>
<glyph name="three" format="1">
  <advance width="574"/>
  <unicode hex="0033"/>
  <outline>
    <contour>
      <point x="344" y="361" type="curve"/>
      <point x="349" y="362"/>
      <point x="354" y="363"/>
      <point x="358" y="364" type="curve" smooth="yes"/>
      <point x="385" y="370"/>
      <point x="397" y="374"/>
      <point x="416" y="382" type="curve" smooth="yes"/>
      <point x="493" y="414"/>
      <point x="538" y="474"/>
      <point x="538" y="545" type="curve" smooth="yes"/>
      <point x="538" y="639"/>
      <point x="451" y="705"/>
      <point x="325" y="705" type="curve" smooth="yes"/>
      <point x="201" y="705"/>
      <point x="103" y="636"/>
      <point x="103" y="548" type="curve" smooth="yes"/>
      <point x="103" y="497"/>
      <point x="137" y="461"/>
      <point x="185" y="461" type="curve" smooth="yes"/>
      <point x="228" y="461"/>
      <point x="262" y="492"/>
      <point x="262" y="532" type="curve" smooth="yes"/>
      <point x="262" y="559"/>
      <point x="253" y="573"/>
      <point x="219" y="600" type="curve"/>
      <point x="214" y="605"/>
      <point x="212" y="608"/>
      <point x="212" y="612" type="curve" smooth="yes"/>
      <point x="212" y="632"/>
      <point x="254" y="652"/>
      <point x="295" y="652" type="curve" smooth="yes"/>
      <point x="350" y="652"/>
      <point x="382" y="616"/>
      <point x="382" y="555" type="curve" smooth="yes"/>
      <point x="382" y="507"/>
      <point x="364" y="459"/>
      <point x="330" y="421" type="curve" smooth="yes"/>
      <point x="309" y="396"/>
      <point x="288" y="386"/>
      <point x="259" y="386" type="curve" smooth="yes"/>
      <point x="248" y="386"/>
      <point x="241" y="387"/>
      <point x="227" y="392" type="curve"/>
      <point x="215" y="397"/>
      <point x="209" y="398"/>
      <point x="201" y="398" type="curve" smooth="yes"/>
      <point x="181" y="398"/>
      <point x="168" y="384"/>
      <point x="168" y="363" type="curve" smooth="yes"/>
      <point x="168" y="342"/>
      <point x="181" y="329"/>
      <point x="203" y="329" type="curve" smooth="yes"/>
      <point x="210" y="329"/>
      <point x="218" y="330"/>
      <point x="226" y="333" type="curve"/>
      <point x="248" y="339"/>
      <point x="248" y="339"/>
      <point x="257" y="339" type="curve" smooth="yes"/>
      <point x="300" y="339"/>
      <point x="324" y="306"/>
      <point x="324" y="245" type="curve" smooth="yes"/>
      <point x="324" y="192"/>
      <point x="310" y="136"/>
      <point x="286" y="96" type="curve" smooth="yes"/>
      <point x="264" y="59"/>
      <point x="223" y="35"/>
      <point x="180" y="35" type="curve" smooth="yes"/>
      <point x="139" y="35"/>
      <point x="95" y="59"/>
      <point x="95" y="82" type="curve" smooth="yes"/>
      <point x="95" y="93"/>
      <point x="98" y="96"/>
      <point x="115" y="102" type="curve" smooth="yes"/>
      <point x="148" y="112"/>
      <point x="167" y="137"/>
      <point x="167" y="172" type="curve" smooth="yes"/>
      <point x="167" y="217"/>
      <point x="134" y="249"/>
      <point x="86" y="249" type="curve" smooth="yes"/>
      <point x="32" y="249"/>
      <point x="-5" y="208"/>
      <point x="-5" y="148" type="curve" smooth="yes"/>
      <point x="-5" y="47"/>
      <point x="78" y="-15"/>
      <point x="210" y="-15" type="curve" smooth="yes"/>
      <point x="370" y="-15"/>
      <point x="488" y="81"/>
      <point x="488" y="210" type="curve" smooth="yes"/>
      <point x="488" y="257"/>
      <point x="464" y="305"/>
      <point x="430" y="328" type="curve" smooth="yes"/>
      <point x="410" y="341"/>
      <point x="393" y="348"/>
    </contour>
  </outline>
</glyph>
<glyph name="four" format="1">
  <advance width="574"/>
  <unicode hex="0034"/>
  <outline>
    <contour>
      <point x="535" y="250" type="line"/>
      <point x="422" y="250" type="line"/>
      <point x="544" y="707" type="line"/>
      <point x="449" y="707" type="line"/>
      <point x="-13" y="239" type="line"/>
      <point x="-13" y="184" type="line"/>
      <point x="252" y="184" type="line"/>
      <point x="242" y="144" type="line" smooth="yes"/>
      <point x="223" y="76"/>
      <point x="223" y="76"/>
      <point x="215" y="68" type="curve" smooth="yes"/>
      <point x="205" y="58"/>
      <point x="181" y="54"/>
      <point x="139" y="54" type="curve" smooth="yes"/>
      <point x="114" y="54" type="line"/>
      <point x="107" y="0" type="line"/>
      <point x="470" y="0" type="line"/>
      <point x="477" y="54" type="line"/>
      <point x="459" y="54" type="line" smooth="yes"/>
      <point x="394" y="54"/>
      <point x="380" y="59"/>
      <point x="380" y="81" type="curve" smooth="yes"/>
      <point x="380" y="90"/>
      <point x="384" y="111"/>
      <point x="393" y="144" type="curve" smooth="yes"/>
      <point x="404" y="184" type="line"/>
      <point x="524" y="184" type="line"/>
    </contour>
    <contour>
      <point x="270" y="250" type="line"/>
      <point x="77" y="250" type="line"/>
      <point x="344" y="525" type="line"/>
    </contour>
  </outline>
</glyph>
<glyph name="five" format="1">
  <advance width="574"/>
  <unicode hex="0035"/>
  <outline>
    <contour>
      <point x="105" y="388" type="line"/>
      <point x="79" y="376"/>
      <point x="66" y="360"/>
      <point x="66" y="338" type="curve" smooth="yes"/>
      <point x="66" y="318"/>
      <point x="80" y="303"/>
      <point x="99" y="303" type="curve" smooth="yes"/>
      <point x="128" y="303"/>
      <point x="147" y="323"/>
      <point x="152" y="361" type="curve"/>
      <point x="200" y="382"/>
      <point x="218" y="387"/>
      <point x="244" y="387" type="curve" smooth="yes"/>
      <point x="307" y="387"/>
      <point x="345" y="338"/>
      <point x="345" y="256" type="curve" smooth="yes"/>
      <point x="345" y="134"/>
      <point x="274" y="36"/>
      <point x="184" y="36" type="curve" smooth="yes"/>
      <point x="140" y="36"/>
      <point x="101" y="56"/>
      <point x="101" y="79" type="curve" smooth="yes"/>
      <point x="101" y="84"/>
      <point x="105" y="88"/>
      <point x="113" y="91" type="curve"/>
      <point x="152" y="103"/>
      <point x="172" y="130"/>
      <point x="172" y="169" type="curve" smooth="yes"/>
      <point x="172" y="214"/>
      <point x="140" y="244"/>
      <point x="92" y="244" type="curve" smooth="yes"/>
      <point x="37" y="244"/>
      <point x="0" y="203"/>
      <point x="0" y="142" type="curve" smooth="yes"/>
      <point x="0" y="46"/>
      <point x="80" y="-15"/>
      <point x="206" y="-15" type="curve" smooth="yes"/>
      <point x="381" y="-15"/>
      <point x="510" y="106"/>
      <point x="510" y="268" type="curve" smooth="yes"/>
      <point x="510" y="379"/>
      <point x="430" y="451"/>
      <point x="308" y="451" type="curve" smooth="yes"/>
      <point x="263" y="451"/>
      <point x="226" y="443"/>
      <point x="175" y="424" type="curve"/>
      <point x="213" y="553" type="line"/>
      <point x="223" y="551" type="line" smooth="yes"/>
      <point x="286" y="538"/>
      <point x="295" y="537"/>
      <point x="338" y="537" type="curve" smooth="yes"/>
      <point x="418" y="537"/>
      <point x="473" y="553"/>
      <point x="515" y="589" type="curve" smooth="yes"/>
      <point x="546" y="616"/>
      <point x="573" y="666"/>
      <point x="573" y="697" type="curve" smooth="yes"/>
      <point x="573" y="702"/>
      <point x="571" y="705"/>
      <point x="567" y="705" type="curve" smooth="yes"/>
      <point x="565" y="705"/>
      <point x="563" y="704"/>
      <point x="557" y="702" type="curve" smooth="yes"/>
      <point x="507" y="683"/>
      <point x="472" y="676"/>
      <point x="417" y="676" type="curve" smooth="yes"/>
      <point x="351" y="676"/>
      <point x="277" y="686"/>
      <point x="197" y="705" type="curve"/>
    </contour>
  </outline>
</glyph>
<glyph name="six" format="1">
  <advance width="574"/>
  <unicode hex="0036"/>
  <outline>
    <contour>
      <point x="225" y="390" type="curve"/>
      <point x="249" y="473"/>
      <point x="260" y="505"/>
      <point x="283" y="552" type="curve" smooth="yes"/>
      <point x="314" y="614"/>
      <point x="362" y="654"/>
      <point x="404" y="654" type="curve" smooth="yes"/>
      <point x="425" y="654"/>
      <point x="440" y="646"/>
      <point x="440" y="636" type="curve" smooth="yes"/>
      <point x="440" y="631"/>
      <point x="438" y="627"/>
      <point x="432" y="620" type="curve" smooth="yes"/>
      <point x="416" y="601"/>
      <point x="410" y="586"/>
      <point x="410" y="568" type="curve" smooth="yes"/>
      <point x="410" y="526"/>
      <point x="443" y="496"/>
      <point x="488" y="496" type="curve" smooth="yes"/>
      <point x="538" y="496"/>
      <point x="573" y="531"/>
      <point x="573" y="581" type="curve" smooth="yes"/>
      <point x="573" y="653"/>
      <point x="502" y="705"/>
      <point x="405" y="705" type="curve" smooth="yes"/>
      <point x="303" y="705"/>
      <point x="217" y="659"/>
      <point x="145" y="565" type="curve" smooth="yes"/>
      <point x="73" y="472"/>
      <point x="30" y="346"/>
      <point x="30" y="230" type="curve" smooth="yes"/>
      <point x="30" y="79"/>
      <point x="112" y="-15"/>
      <point x="243" y="-15" type="curve" smooth="yes"/>
      <point x="394" y="-15"/>
      <point x="520" y="107"/>
      <point x="520" y="253" type="curve" smooth="yes"/>
      <point x="520" y="357"/>
      <point x="444" y="431"/>
      <point x="338" y="431" type="curve" smooth="yes"/>
      <point x="292" y="431"/>
      <point x="263" y="421"/>
    </contour>
    <contour>
      <point x="294" y="371" type="curve" smooth="yes"/>
      <point x="335" y="371"/>
      <point x="358" y="334"/>
      <point x="358" y="270" type="curve" smooth="yes"/>
      <point x="358" y="212"/>
      <point x="346" y="147"/>
      <point x="326" y="97" type="curve" smooth="yes"/>
      <point x="308" y="55"/>
      <point x="279" y="31"/>
      <point x="245" y="31" type="curve" smooth="yes"/>
      <point x="204" y="31"/>
      <point x="181" y="69"/>
      <point x="181" y="138" type="curve" smooth="yes"/>
      <point x="181" y="276"/>
      <point x="227" y="371"/>
    </contour>
  </outline>
</glyph>
<glyph name="seven" format="1">
  <advance width="574"/>
  <unicode hex="0037"/>
  <outline>
    <contour>
      <point x="592" y="705" type="line"/>
      <point x="482" y="697"/>
      <point x="426" y="694"/>
      <point x="355" y="694" type="curve" smooth="yes"/>
      <point x="288" y="694"/>
      <point x="249" y="696"/>
      <point x="167" y="705" type="curve"/>
      <point x="64" y="448" type="line"/>
      <point x="110" y="432" type="line"/>
      <point x="126" y="462" type="line" smooth="yes"/>
      <point x="166" y="537"/>
      <point x="196" y="559"/>
      <point x="258" y="559" type="curve" smooth="yes"/>
      <point x="470" y="559" type="line"/>
      <point x="349" y="403"/>
      <point x="272" y="302"/>
      <point x="240" y="258" type="curve" smooth="yes"/>
      <point x="163" y="151"/>
      <point x="144" y="114"/>
      <point x="144" y="66" type="curve" smooth="yes"/>
      <point x="144" y="18"/>
      <point x="180" y="-15"/>
      <point x="233" y="-15" type="curve" smooth="yes"/>
      <point x="268" y="-15"/>
      <point x="298" y="1"/>
      <point x="314" y="27" type="curve" smooth="yes"/>
      <point x="326" y="46"/>
      <point x="330" y="60"/>
      <point x="339" y="106" type="curve" smooth="yes"/>
      <point x="367" y="260"/>
      <point x="409" y="354"/>
      <point x="593" y="667" type="curve"/>
    </contour>
  </outline>
</glyph>
<glyph name="eight" format="1">
  <advance width="574"/>
  <unicode hex="0038"/>
  <outline>
    <contour>
      <point x="406" y="382" type="curve"/>
      <point x="505" y="419"/>
      <point x="551" y="471"/>
      <point x="551" y="546" type="curve" smooth="yes"/>
      <point x="551" y="641"/>
      <point x="469" y="705"/>
      <point x="349" y="705" type="curve" smooth="yes"/>
      <point x="202" y="705"/>
      <point x="98" y="615"/>
      <point x="98" y="488" type="curve" smooth="yes"/>
      <point x="98" y="427"/>
      <point x="119" y="384"/>
      <point x="172" y="339" type="curve"/>
      <point x="130" y="323"/>
      <point x="100" y="307"/>
      <point x="74" y="287" type="curve" smooth="yes"/>
      <point x="28" y="252"/>
      <point x="0" y="200"/>
      <point x="0" y="148" type="curve" smooth="yes"/>
      <point x="0" y="51"/>
      <point x="90" y="-15"/>
      <point x="224" y="-15" type="curve" smooth="yes"/>
      <point x="389" y="-15"/>
      <point x="505" y="76"/>
      <point x="505" y="206" type="curve" smooth="yes"/>
      <point x="505" y="278"/>
      <point x="469" y="341"/>
    </contour>
    <contour>
      <point x="365" y="410" type="curve"/>
      <point x="318" y="435"/>
      <point x="292" y="449"/>
      <point x="287" y="452" type="curve" smooth="yes"/>
      <point x="236" y="483"/>
      <point x="219" y="507"/>
      <point x="219" y="550" type="curve" smooth="yes"/>
      <point x="219" y="611"/>
      <point x="266" y="655"/>
      <point x="333" y="655" type="curve" smooth="yes"/>
      <point x="399" y="655"/>
      <point x="440" y="613"/>
      <point x="440" y="543" type="curve" smooth="yes"/>
      <point x="440" y="491"/>
      <point x="419" y="451"/>
      <point x="375" y="418" type="curve" smooth="yes"/>
      <point x="370" y="414"/>
      <point x="370" y="413"/>
    </contour>
    <contour>
      <point x="211" y="306" type="curve"/>
      <point x="222" y="301"/>
      <point x="229" y="297"/>
      <point x="232" y="295" type="curve"/>
      <point x="289" y="266"/>
      <point x="289" y="266"/>
      <point x="310" y="252" type="curve" smooth="yes"/>
      <point x="354" y="222"/>
      <point x="375" y="189"/>
      <point x="375" y="148" type="curve" smooth="yes"/>
      <point x="375" y="83"/>
      <point x="318" y="33"/>
      <point x="245" y="33" type="curve" smooth="yes"/>
      <point x="171" y="33"/>
      <point x="121" y="81"/>
      <point x="121" y="153" type="curve" smooth="yes"/>
      <point x="121" y="212"/>
      <point x="152" y="270"/>
      <point x="200" y="300" type="curve"/>
      <point x="202" y="301"/>
      <point x="204" y="302"/>
    </contour>
  </outline>
</glyph>
<glyph name="nine" format="1">
  <advance width="574"/>
  <unicode hex="0039"/>
  <outline>
    <contour>
      <point x="349" y="300" type="curve"/>
      <point x="326" y="217"/>
      <point x="314" y="185"/>
      <point x="291" y="138" type="curve" smooth="yes"/>
      <point x="260" y="76"/>
      <point x="212" y="36"/>
      <point x="170" y="36" type="curve" smooth="yes"/>
      <point x="149" y="36"/>
      <point x="134" y="44"/>
      <point x="134" y="54" type="curve" smooth="yes"/>
      <point x="134" y="59"/>
      <point x="136" y="63"/>
      <point x="142" y="70" type="curve" smooth="yes"/>
      <point x="158" y="89"/>
      <point x="164" y="104"/>
      <point x="164" y="122" type="curve" smooth="yes"/>
      <point x="164" y="164"/>
      <point x="131" y="194"/>
      <point x="86" y="194" type="curve" smooth="yes"/>
      <point x="36" y="194"/>
      <point x="1" y="159"/>
      <point x="1" y="109" type="curve" smooth="yes"/>
      <point x="1" y="37"/>
      <point x="72" y="-15"/>
      <point x="169" y="-15" type="curve" smooth="yes"/>
      <point x="271" y="-15"/>
      <point x="357" y="31"/>
      <point x="429" y="125" type="curve" smooth="yes"/>
      <point x="501" y="218"/>
      <point x="544" y="344"/>
      <point x="544" y="460" type="curve" smooth="yes"/>
      <point x="544" y="611"/>
      <point x="462" y="705"/>
      <point x="331" y="705" type="curve" smooth="yes"/>
      <point x="180" y="705"/>
      <point x="54" y="583"/>
      <point x="54" y="437" type="curve" smooth="yes"/>
      <point x="54" y="333"/>
      <point x="130" y="259"/>
      <point x="236" y="259" type="curve" smooth="yes"/>
      <point x="282" y="259"/>
      <point x="310" y="269"/>
    </contour>
    <contour>
      <point x="329" y="659" type="curve" smooth="yes"/>
      <point x="370" y="659"/>
      <point x="393" y="621"/>
      <point x="393" y="552" type="curve" smooth="yes"/>
      <point x="393" y="500"/>
      <point x="383" y="437"/>
      <point x="368" y="399" type="curve" smooth="yes"/>
      <point x="348" y="346"/>
      <point x="319" y="319"/>
      <point x="280" y="319" type="curve" smooth="yes"/>
      <point x="239" y="319"/>
      <point x="216" y="356"/>
      <point x="216" y="420" type="curve" smooth="yes"/>
      <point x="216" y="478"/>
      <point x="229" y="544"/>
      <point x="248" y="593" type="curve" smooth="yes"/>
      <point x="266" y="635"/>
      <point x="295" y="659"/>
    </contour>
  </outline>
</glyph>
<glyph name="colon" format="1">
  <advance width="287"/>
  <unicode hex="003A"/>
  <outline>
    <contour>
      <point x="85" y="159" type="curve" smooth="yes"/>
      <point x="37" y="159"/>
      <point x="-2" y="120"/>
      <point x="-2" y="72" type="curve" smooth="yes"/>
      <point x="-2" y="25"/>
      <point x="37" y="-15"/>
      <point x="84" y="-15" type="curve" smooth="yes"/>
      <point x="133" y="-15"/>
      <point x="172" y="24"/>
      <point x="172" y="72" type="curve" smooth="yes"/>
      <point x="172" y="120"/>
      <point x="133" y="159"/>
    </contour>
    <contour>
      <point x="170" y="481" type="curve" smooth="yes"/>
      <point x="122" y="481"/>
      <point x="83" y="442"/>
      <point x="83" y="394" type="curve" smooth="yes"/>
      <point x="83" y="347"/>
      <point x="122" y="307"/>
      <point x="169" y="307" type="curve" smooth="yes"/>
      <point x="218" y="307"/>
      <point x="257" y="346"/>
      <point x="257" y="394" type="curve" smooth="yes"/>
      <point x="257" y="442"/>
      <point x="218" y="481"/>
    </contour>
  </outline>
</glyph>
<glyph name="semicolon" format="1">
  <advance width="287"/>
  <unicode hex="003B"/>
  <outline>
    <contour>
      <point x="-18" y="-187" type="line"/>
      <point x="116" y="-134"/>
      <point x="189" y="-54"/>
      <point x="189" y="43" type="curve" smooth="yes"/>
      <point x="189" y="112"/>
      <point x="148" y="159"/>
      <point x="87" y="159" type="curve" smooth="yes"/>
      <point x="32" y="159"/>
      <point x="-7" y="121"/>
      <point x="-7" y="68" type="curve" smooth="yes"/>
      <point x="-7" y="18"/>
      <point x="22" y="-11"/>
      <point x="71" y="-11" type="curve" smooth="yes"/>
      <point x="79" y="-11"/>
      <point x="85" y="-11"/>
      <point x="95" y="-9" type="curve"/>
      <point x="95" y="-60"/>
      <point x="51" y="-105"/>
      <point x="-39" y="-146" type="curve"/>
    </contour>
    <contour>
      <point x="170" y="481" type="curve" smooth="yes"/>
      <point x="122" y="481"/>
      <point x="83" y="442"/>
      <point x="83" y="394" type="curve" smooth="yes"/>
      <point x="83" y="347"/>
      <point x="122" y="307"/>
      <point x="169" y="307" type="curve" smooth="yes"/>
      <point x="218" y="307"/>
      <point x="257" y="346"/>
      <point x="257" y="394" type="curve" smooth="yes"/>
      <point x="257" y="442"/>
      <point x="218" y="481"/>
    </contour>
  </outline>
</glyph>
<glyph name="less" format="1">
  <advance width="606"/>
  <unicode hex="003C"/>
  <outline>
    <contour>
      <point x="523" y="404" type="line"/>
      <point x="523" y="529" type="line"/>
      <point x="14" y="297" type="line"/>
      <point x="14" y="207" type="line"/>
      <point x="523" y="-25" type="line"/>
      <point x="523" y="100" type="line"/>
      <point x="195" y="253" type="line"/>
    </contour>
  </outline>
</glyph>
<glyph name="equal" format="1">
  <advance width="606"/>
  <unicode hex="003D"/>
  <outline>
    <contour>
      <point x="41" y="92" type="line"/>
      <point x="545" y="92" type="line"/>
      <point x="545" y="207" type="line"/>
      <point x="41" y="207" type="line"/>
    </contour>
    <contour>
      <point x="41" y="298" type="line"/>
      <point x="545" y="298" type="line"/>
      <point x="545" y="413" type="line"/>
      <point x="41" y="413" type="line"/>
    </contour>
  </outline>
</glyph>
<glyph name="greater" format="1">
  <advance width="606"/>
  <unicode hex="003E"/>
  <outline>
    <contour>
      <point x="38" y="404" type="line"/>
      <point x="366" y="253" type="line"/>
      <point x="38" y="100" type="line"/>
      <point x="38" y="-25" type="line"/>
      <point x="547" y="207" type="line"/>
      <point x="547" y="297" type="line"/>
      <point x="38" y="529" type="line"/>
    </contour>
  </outline>
</glyph>
<glyph name="question" format="1">
  <advance width="481"/>
  <unicode hex="003F"/>
  <outline>
    <contour>
      <point x="325" y="335" type="line"/>
      <point x="307" y="285"/>
      <point x="284" y="262"/>
      <point x="251" y="262" type="curve" smooth="yes"/>
      <point x="223" y="262"/>
      <point x="205" y="278"/>
      <point x="205" y="304" type="curve" smooth="yes"/>
      <point x="205" y="330"/>
      <point x="218" y="343"/>
      <point x="281" y="376" type="curve" smooth="yes"/>
      <point x="404" y="441"/>
      <point x="452" y="499"/>
      <point x="452" y="582" type="curve" smooth="yes"/>
      <point x="452" y="672"/>
      <point x="381" y="737"/>
      <point x="285" y="737" type="curve" smooth="yes"/>
      <point x="226" y="737"/>
      <point x="174" y="712"/>
      <point x="142" y="668" type="curve" smooth="yes"/>
      <point x="115" y="633"/>
      <point x="99" y="586"/>
      <point x="99" y="546" type="curve" smooth="yes"/>
      <point x="99" y="542"/>
      <point x="100" y="532"/>
      <point x="101" y="520" type="curve"/>
      <point x="149" y="520" type="line"/>
      <point x="148" y="530"/>
      <point x="147" y="535"/>
      <point x="147" y="539" type="curve" smooth="yes"/>
      <point x="147" y="618"/>
      <point x="207" y="689"/>
      <point x="273" y="689" type="curve" smooth="yes"/>
      <point x="317" y="689"/>
      <point x="346" y="663"/>
      <point x="346" y="625" type="curve" smooth="yes"/>
      <point x="346" y="594"/>
      <point x="329" y="575"/>
      <point x="264" y="538" type="curve" smooth="yes"/>
      <point x="165" y="482"/>
      <point x="112" y="410"/>
      <point x="112" y="332" type="curve" smooth="yes"/>
      <point x="112" y="265"/>
      <point x="165" y="212"/>
      <point x="233" y="212" type="curve" smooth="yes"/>
      <point x="299" y="212"/>
      <point x="353" y="255"/>
      <point x="374" y="323" type="curve"/>
    </contour>
    <contour>
      <point x="166" y="159" type="curve" smooth="yes"/>
      <point x="118" y="159"/>
      <point x="79" y="120"/>
      <point x="79" y="72" type="curve" smooth="yes"/>
      <point x="79" y="25"/>
      <point x="118" y="-15"/>
      <point x="165" y="-15" type="curve" smooth="yes"/>
      <point x="214" y="-15"/>
      <point x="253" y="24"/>
      <point x="253" y="72" type="curve" smooth="yes"/>
      <point x="253" y="120"/>
      <point x="214" y="159"/>
    </contour>
  </outline>
</glyph>
<glyph name="at" format="1">
  <advance width="747"/>
  <unicode hex="0040"/>
  <outline>
    <contour>
      <point x="643" y="190" type="line"/>
      <point x="586" y="97"/>
      <point x="495" y="46"/>
      <point x="388" y="46" type="curve" smooth="yes"/>
      <point x="218" y="46"/>
      <point x="87" y="185"/>
      <point x="87" y="366" type="curve" smooth="yes"/>
      <point x="87" y="543"/>
      <point x="215" y="676"/>
      <point x="387" y="676" type="curve" smooth="yes"/>
      <point x="544" y="676"/>
      <point x="657" y="568"/>
      <point x="657" y="418" type="curve" smooth="yes"/>
      <point x="657" y="343"/>
      <point x="631" y="280"/>
      <point x="582" y="238" type="curve" smooth="yes"/>
      <point x="560" y="219"/>
      <point x="537" y="208"/>
      <point x="518" y="208" type="curve" smooth="yes"/>
      <point x="502" y="208"/>
      <point x="494" y="216"/>
      <point x="494" y="231" type="curve" smooth="yes"/>
      <point x="494" y="240"/>
      <point x="497" y="253"/>
      <point x="501" y="268" type="curve" smooth="yes"/>
      <point x="593" y="556" type="line"/>
      <point x="489" y="556" type="line"/>
      <point x="477" y="522" type="line"/>
      <point x="453" y="560"/>
      <point x="427" y="574"/>
      <point x="384" y="574" type="curve" smooth="yes"/>
      <point x="325" y="574"/>
      <point x="267" y="543"/>
      <point x="227" y="489" type="curve" smooth="yes"/>
      <point x="185" y="431"/>
      <point x="159" y="358"/>
      <point x="159" y="294" type="curve" smooth="yes"/>
      <point x="159" y="210"/>
      <point x="216" y="145"/>
      <point x="291" y="145" type="curve" smooth="yes"/>
      <point x="341" y="145"/>
      <point x="377" y="169"/>
      <point x="404" y="220" type="curve"/>
      <point x="403" y="213"/>
      <point x="402" y="207"/>
      <point x="402" y="204" type="curve" smooth="yes"/>
      <point x="402" y="170"/>
      <point x="433" y="147"/>
      <point x="479" y="147" type="curve" smooth="yes"/>
      <point x="605" y="147"/>
      <point x="722" y="281"/>
      <point x="722" y="425" type="curve" smooth="yes"/>
      <point x="722" y="599"/>
      <point x="574" y="737"/>
      <point x="388" y="737" type="curve" smooth="yes"/>
      <point x="185" y="737"/>
      <point x="22" y="570"/>
      <point x="22" y="362" type="curve" smooth="yes"/>
      <point x="22" y="152"/>
      <point x="184" y="-15"/>
      <point x="386" y="-15" type="curve" smooth="yes"/>
      <point x="487" y="-15"/>
      <point x="572" y="21"/>
      <point x="648" y="98" type="curve" smooth="yes"/>
      <point x="680" y="130"/>
      <point x="697" y="153"/>
      <point x="712" y="190" type="curve"/>
    </contour>
    <contour>
      <point x="404" y="523" type="curve" smooth="yes"/>
      <point x="430" y="523"/>
      <point x="452" y="502"/>
      <point x="452" y="477" type="curve" smooth="yes"/>
      <point x="452" y="452"/>
      <point x="419" y="343"/>
      <point x="392" y="280" type="curve" smooth="yes"/>
      <point x="368" y="225"/>
      <point x="339" y="196"/>
      <point x="307" y="196" type="curve" smooth="yes"/>
      <point x="277" y="196"/>
      <point x="260" y="217"/>
      <point x="260" y="256" type="curve" smooth="yes"/>
      <point x="260" y="312"/>
      <point x="282" y="387"/>
      <point x="317" y="449" type="curve" smooth="yes"/>
      <point x="345" y="499"/>
      <point x="373" y="523"/>
    </contour>
  </outline>
</glyph>
<glyph name="B" format="1">
  <advance width="759"/>
  <unicode hex="0042"/>
  <outline>
    <contour>
      <point x="104" y="722" type="line"/>
      <point x="96" y="668" type="line"/>
      <point x="115" y="668" type="line" smooth="yes"/>
      <point x="180" y="668"/>
      <point x="194" y="663"/>
      <point x="194" y="641" type="curve" smooth="yes"/>
      <point x="194" y="632"/>
      <point x="190" y="611"/>
      <point x="181" y="578" type="curve" smooth="yes"/>
      <point x="64" y="144" type="line" smooth="yes"/>
      <point x="46" y="76"/>
      <point x="46" y="76"/>
      <point x="38" y="68" type="curve" smooth="yes"/>
      <point x="27" y="58"/>
      <point x="3" y="54"/>
      <point x="-39" y="54" type="curve" smooth="yes"/>
      <point x="-43" y="54" type="line"/>
      <point x="-50" y="0" type="line"/>
      <point x="368" y="0" type="line" smooth="yes"/>
      <point x="446" y="0"/>
      <point x="523" y="13"/>
      <point x="578" y="36" type="curve" smooth="yes"/>
      <point x="643" y="62"/>
      <point x="683" y="124"/>
      <point x="683" y="195" type="curve" smooth="yes"/>
      <point x="683" y="289"/>
      <point x="620" y="345"/>
      <point x="489" y="368" type="curve"/>
      <point x="637" y="385"/>
      <point x="720" y="451"/>
      <point x="720" y="551" type="curve" smooth="yes"/>
      <point x="720" y="609"/>
      <point x="692" y="658"/>
      <point x="643" y="687" type="curve" smooth="yes"/>
      <point x="605" y="710"/>
      <point x="538" y="722"/>
      <point x="456" y="722" type="curve" smooth="yes"/>
    </contour>
    <contour>
      <point x="308" y="397" type="line"/>
      <point x="365" y="608" type="line" smooth="yes"/>
      <point x="378" y="657"/>
      <point x="389" y="668"/>
      <point x="425" y="668" type="curve" smooth="yes"/>
      <point x="440" y="668" type="line" smooth="yes"/>
      <point x="502" y="668"/>
      <point x="537" y="632"/>
      <point x="537" y="567" type="curve" smooth="yes"/>
      <point x="537" y="507"/>
      <point x="511" y="452"/>
      <point x="468" y="423" type="curve" smooth="yes"/>
      <point x="438" y="403"/>
      <point x="410" y="397"/>
      <point x="339" y="397" type="curve" smooth="yes"/>
    </contour>
    <contour>
      <point x="294" y="343" type="line"/>
      <point x="344" y="343" type="line" smooth="yes"/>
      <point x="411" y="343"/>
      <point x="430" y="339"/>
      <point x="455" y="322" type="curve" smooth="yes"/>
      <point x="480" y="304"/>
      <point x="492" y="276"/>
      <point x="492" y="233" type="curve" smooth="yes"/>
      <point x="492" y="175"/>
      <point x="471" y="120"/>
      <point x="436" y="91" type="curve" smooth="yes"/>
      <point x="408" y="67"/>
      <point x="365" y="54"/>
      <point x="313" y="54" type="curve" smooth="yes"/>
      <point x="280" y="54" type="line" smooth="yes"/>
      <point x="244" y="54"/>
      <point x="227" y="63"/>
      <point x="227" y="84" type="curve" smooth="yes"/>
      <point x="227" y="91"/>
      <point x="229" y="101"/>
      <point x="235" y="122" type="curve" smooth="yes"/>
    </contour>
  </outline>
</glyph>
<glyph name="D" format="1">
  <advance width="833"/>
  <unicode hex="0044"/>
  <outline>
    <contour>
      <point x="-49" y="0" type="line"/>
      <point x="285" y="0" type="line" smooth="yes"/>
      <point x="459" y="0"/>
      <point x="559" y="28"/>
      <point x="645" y="100" type="curve" smooth="yes"/>
      <point x="740" y="180"/>
      <point x="796" y="305"/>
      <point x="796" y="437" type="curve" smooth="yes"/>
      <point x="796" y="540"/>
      <point x="760" y="618"/>
      <point x="691" y="666" type="curve" smooth="yes"/>
      <point x="633" y="707"/>
      <point x="572" y="722"/>
      <point x="463" y="722" type="curve" smooth="yes"/>
      <point x="105" y="722" type="line"/>
      <point x="98" y="668" type="line"/>
      <point x="116" y="668" type="line" smooth="yes"/>
      <point x="181" y="668"/>
      <point x="195" y="663"/>
      <point x="195" y="641" type="curve" smooth="yes"/>
      <point x="195" y="632"/>
      <point x="191" y="612"/>
      <point x="182" y="578" type="curve" smooth="yes"/>
      <point x="66" y="144" type="line" smooth="yes"/>
      <point x="47" y="76"/>
      <point x="47" y="76"/>
      <point x="39" y="68" type="curve" smooth="yes"/>
      <point x="28" y="58"/>
      <point x="4" y="54"/>
      <point x="-38" y="54" type="curve" smooth="yes"/>
      <point x="-42" y="54" type="line"/>
    </contour>
    <contour>
      <point x="281" y="54" type="line" smooth="yes"/>
      <point x="243" y="54"/>
      <point x="228" y="61"/>
      <point x="228" y="81" type="curve" smooth="yes"/>
      <point x="228" y="88"/>
      <point x="229" y="91"/>
      <point x="237" y="127" type="curve" smooth="yes"/>
      <point x="365" y="605" type="line" smooth="yes"/>
      <point x="379" y="655"/>
      <point x="393" y="668"/>
      <point x="439" y="668" type="curve" smooth="yes"/>
      <point x="461" y="668" type="line" smooth="yes"/>
      <point x="558" y="668"/>
      <point x="610" y="610"/>
      <point x="610" y="501" type="curve" smooth="yes"/>
      <point x="610" y="388"/>
      <point x="570" y="244"/>
      <point x="515" y="162" type="curve" smooth="yes"/>
      <point x="467" y="91"/>
      <point x="396" y="54"/>
      <point x="310" y="54" type="curve" smooth="yes"/>
    </contour>
  </outline>
</glyph>
<glyph name="G" format="1">
  <advance width="815"/>
  <unicode hex="0047"/>
  <outline>
    <contour>
      <point x="775" y="715" type="line"/>
      <point x="730" y="715" type="line"/>
      <point x="670" y="657" type="line"/>
      <point x="616" y="716"/>
      <point x="568" y="737"/>
      <point x="485" y="737" type="curve" smooth="yes"/>
      <point x="241" y="737"/>
      <point x="34" y="529"/>
      <point x="34" y="284" type="curve" smooth="yes"/>
      <point x="34" y="182"/>
      <point x="77" y="92"/>
      <point x="149" y="44" type="curve" smooth="yes"/>
      <point x="207" y="6"/>
      <point x="277" y="-15"/>
      <point x="347" y="-15" type="curve" smooth="yes"/>
      <point x="438" y="-15"/>
      <point x="506" y="16"/>
      <point x="560" y="81" type="curve"/>
      <point x="579" y="-14" type="line"/>
      <point x="627" y="-14" type="line"/>
      <point x="682" y="192" type="line" smooth="yes"/>
      <point x="686" y="205"/>
      <point x="690" y="220"/>
      <point x="694" y="234" type="curve" smooth="yes"/>
      <point x="704" y="276"/>
      <point x="716" y="282"/>
      <point x="785" y="282" type="curve" smooth="yes"/>
      <point x="795" y="282" type="line"/>
      <point x="802" y="336" type="line"/>
      <point x="430" y="336" type="line"/>
      <point x="423" y="282" type="line"/>
      <point x="451" y="282" type="line" smooth="yes"/>
      <point x="516" y="282"/>
      <point x="528" y="278"/>
      <point x="528" y="255" type="curve" smooth="yes"/>
      <point x="528" y="241"/>
      <point x="514" y="182"/>
      <point x="504" y="152" type="curve" smooth="yes"/>
      <point x="480" y="81"/>
      <point x="426" y="37"/>
      <point x="363" y="37" type="curve" smooth="yes"/>
      <point x="315" y="37"/>
      <point x="269" y="64"/>
      <point x="248" y="103" type="curve" smooth="yes"/>
      <point x="232" y="133"/>
      <point x="222" y="181"/>
      <point x="222" y="229" type="curve" smooth="yes"/>
      <point x="222" y="322"/>
      <point x="253" y="447"/>
      <point x="298" y="531" type="curve" smooth="yes"/>
      <point x="352" y="632"/>
      <point x="419" y="683"/>
      <point x="498" y="683" type="curve" smooth="yes"/>
      <point x="569" y="683"/>
      <point x="619" y="646"/>
      <point x="644" y="576" type="curve" smooth="yes"/>
      <point x="659" y="533"/>
      <point x="666" y="492"/>
      <point x="667" y="439" type="curve"/>
      <point x="718" y="432" type="line"/>
    </contour>
  </outline>
</glyph>
<glyph name="J" format="1">
  <advance width="667"/>
  <unicode hex="004A"/>
  <outline>
    <contour>
      <point x="332" y="668" type="line"/>
      <point x="362" y="668" type="line" smooth="yes"/>
      <point x="427" y="668"/>
      <point x="441" y="663"/>
      <point x="441" y="641" type="curve" smooth="yes"/>
      <point x="441" y="632"/>
      <point x="437" y="614"/>
      <point x="427" y="578" type="curve" smooth="yes"/>
      <point x="342" y="260" type="line" smooth="yes"/>
      <point x="315" y="158"/>
      <point x="312" y="150"/>
      <point x="290" y="114" type="curve" smooth="yes"/>
      <point x="262" y="69"/>
      <point x="217" y="42"/>
      <point x="170" y="42" type="curve" smooth="yes"/>
      <point x="108" y="42"/>
      <point x="59" y="83"/>
      <point x="59" y="135" type="curve" smooth="yes"/>
      <point x="59" y="151"/>
      <point x="65" y="160"/>
      <point x="77" y="160" type="curve" smooth="yes"/>
      <point x="82" y="160"/>
      <point x="85" y="159"/>
      <point x="100" y="151" type="curve"/>
      <point x="115" y="142"/>
      <point x="129" y="138"/>
      <point x="144" y="138" type="curve" smooth="yes"/>
      <point x="193" y="138"/>
      <point x="231" y="179"/>
      <point x="231" y="231" type="curve" smooth="yes"/>
      <point x="231" y="289"/>
      <point x="188" y="328"/>
      <point x="124" y="328" type="curve" smooth="yes"/>
      <point x="46" y="328"/>
      <point x="-9" y="262"/>
      <point x="-9" y="169" type="curve" smooth="yes"/>
      <point x="-9" y="51"/>
      <point x="75" y="-15"/>
      <point x="226" y="-15" type="curve" smooth="yes"/>
      <point x="346" y="-15"/>
      <point x="421" y="24"/>
      <point x="470" y="113" type="curve" smooth="yes"/>
      <point x="487" y="144"/>
      <point x="487" y="144"/>
      <point x="522" y="274" type="curve" smooth="yes"/>
      <point x="604" y="578" type="line" smooth="yes"/>
      <point x="622" y="646"/>
      <point x="622" y="646"/>
      <point x="630" y="654" type="curve" smooth="yes"/>
      <point x="641" y="664"/>
      <point x="665" y="668"/>
      <point x="707" y="668" type="curve" smooth="yes"/>
      <point x="711" y="668" type="line"/>
      <point x="718" y="722" type="line"/>
      <point x="340" y="722" type="line"/>
    </contour>
  </outline>
</glyph>
<glyph name="L" format="1">
  <advance width="704"/>
  <unicode hex="004C"/>
  <outline>
    <contour>
      <point x="618" y="266" type="line"/>
      <point x="596" y="217"/>
      <point x="570" y="180"/>
      <point x="528" y="141" type="curve" smooth="yes"/>
      <point x="463" y="79"/>
      <point x="405" y="54"/>
      <point x="325" y="54" type="curve" smooth="yes"/>
      <point x="289" y="54" type="line" smooth="yes"/>
      <point x="249" y="54"/>
      <point x="236" y="60"/>
      <point x="236" y="80" type="curve" smooth="yes"/>
      <point x="236" y="89"/>
      <point x="240" y="109"/>
      <point x="250" y="144" type="curve" smooth="yes"/>
      <point x="366" y="578" type="line" smooth="yes"/>
      <point x="384" y="646"/>
      <point x="384" y="646"/>
      <point x="393" y="654" type="curve"/>
      <point x="403" y="664"/>
      <point x="427" y="668"/>
      <point x="469" y="668" type="curve" smooth="yes"/>
      <point x="487" y="668" type="line"/>
      <point x="495" y="722" type="line"/>
      <point x="113" y="722" type="line"/>
      <point x="105" y="668" type="line"/>
      <point x="124" y="668" type="line" smooth="yes"/>
      <point x="189" y="668"/>
      <point x="203" y="663"/>
      <point x="203" y="641" type="curve" smooth="yes"/>
      <point x="203" y="632"/>
      <point x="199" y="613"/>
      <point x="190" y="578" type="curve" smooth="yes"/>
      <point x="73" y="144" type="line" smooth="yes"/>
      <point x="55" y="76"/>
      <point x="55" y="76"/>
      <point x="47" y="68" type="curve" smooth="yes"/>
      <point x="36" y="58"/>
      <point x="12" y="54"/>
      <point x="-30" y="54" type="curve" smooth="yes"/>
      <point x="-34" y="54" type="line"/>
      <point x="-41" y="0" type="line"/>
      <point x="602" y="0" type="line"/>
      <point x="670" y="255" type="line"/>
    </contour>
  </outline>
</glyph>
<glyph name="M" format="1">
  <advance width="944"/>
  <unicode hex="004D"/>
  <outline>
    <contour>
      <point x="406" y="722" type="line"/>
      <point x="113" y="722" type="line"/>
      <point x="106" y="668" type="line"/>
      <point x="125" y="668" type="line" smooth="yes"/>
      <point x="190" y="668"/>
      <point x="204" y="663"/>
      <point x="204" y="641" type="curve" smooth="yes"/>
      <point x="204" y="632"/>
      <point x="201" y="619"/>
      <point x="190" y="578" type="curve" smooth="yes"/>
      <point x="93" y="216" type="line" smooth="yes"/>
      <point x="58" y="89"/>
      <point x="38" y="58"/>
      <point x="-17" y="54" type="curve"/>
      <point x="-24" y="0" type="line"/>
      <point x="213" y="0" type="line"/>
      <point x="221" y="54" type="line"/>
      <point x="168" y="54"/>
      <point x="139" y="74"/>
      <point x="139" y="109" type="curve" smooth="yes"/>
      <point x="139" y="129"/>
      <point x="140" y="136"/>
      <point x="160" y="216" type="curve" smooth="yes"/>
      <point x="254" y="566" type="line"/>
      <point x="293" y="0" type="line"/>
      <point x="356" y="0" type="line"/>
      <point x="693" y="562" type="line"/>
      <point x="581" y="144" type="line" smooth="yes"/>
      <point x="563" y="76"/>
      <point x="563" y="76"/>
      <point x="554" y="68" type="curve"/>
      <point x="544" y="58"/>
      <point x="520" y="54"/>
      <point x="478" y="54" type="curve" smooth="yes"/>
      <point x="474" y="54" type="line"/>
      <point x="467" y="0" type="line"/>
      <point x="834" y="0" type="line"/>
      <point x="842" y="54" type="line"/>
      <point x="823" y="54" type="line" smooth="yes"/>
      <point x="758" y="54"/>
      <point x="744" y="59"/>
      <point x="744" y="81" type="curve" smooth="yes"/>
      <point x="744" y="89"/>
      <point x="749" y="112"/>
      <point x="757" y="144" type="curve" smooth="yes"/>
      <point x="874" y="578" type="line" smooth="yes"/>
      <point x="892" y="647"/>
      <point x="892" y="647"/>
      <point x="900" y="654" type="curve" smooth="yes"/>
      <point x="911" y="664"/>
      <point x="935" y="668"/>
      <point x="977" y="668" type="curve" smooth="yes"/>
      <point x="981" y="668" type="line"/>
      <point x="988" y="722" type="line"/>
      <point x="719" y="722" type="line"/>
      <point x="441" y="259" type="line"/>
    </contour>
  </outline>
</glyph>
<glyph name="Q" format="1">
  <advance width="833"/>
  <unicode hex="0051"/>
  <outline>
    <contour>
      <point x="682" y="-30" type="line"/>
      <point x="662" y="-77"/>
      <point x="637" y="-104"/>
      <point x="612" y="-104" type="curve" smooth="yes"/>
      <point x="599" y="-104"/>
      <point x="589" y="-95"/>
      <point x="580" y="-76" type="curve" smooth="yes"/>
      <point x="571" y="-57"/>
      <point x="567" y="-33"/>
      <point x="560" y="41" type="curve"/>
      <point x="619" y="69"/>
      <point x="656" y="97"/>
      <point x="692" y="141" type="curve" smooth="yes"/>
      <point x="758" y="223"/>
      <point x="796" y="331"/>
      <point x="796" y="437" type="curve" smooth="yes"/>
      <point x="796" y="520"/>
      <point x="770" y="587"/>
      <point x="717" y="643" type="curve" smooth="yes"/>
      <point x="657" y="707"/>
      <point x="582" y="737"/>
      <point x="484" y="737" type="curve" smooth="yes"/>
      <point x="240" y="737"/>
      <point x="35" y="529"/>
      <point x="35" y="282" type="curve" smooth="yes"/>
      <point x="35" y="192"/>
      <point x="67" y="114"/>
      <point x="126" y="61" type="curve" smooth="yes"/>
      <point x="178" y="14"/>
      <point x="257" y="-15"/>
      <point x="333" y="-15" type="curve" smooth="yes"/>
      <point x="345" y="-15"/>
      <point x="364" y="-14"/>
      <point x="388" y="-12" type="curve"/>
      <point x="388" y="-62"/>
      <point x="391" y="-85"/>
      <point x="403" y="-113" type="curve" smooth="yes"/>
      <point x="422" y="-158"/>
      <point x="473" y="-186"/>
      <point x="536" y="-186" type="curve" smooth="yes"/>
      <point x="621" y="-186"/>
      <point x="686" y="-140"/>
      <point x="724" y="-52" type="curve"/>
    </contour>
    <contour>
      <point x="525" y="180" type="curve"/>
      <point x="494" y="245"/>
      <point x="442" y="277"/>
      <point x="366" y="277" type="curve" smooth="yes"/>
      <point x="282" y="277"/>
      <point x="230" y="234"/>
      <point x="219" y="154" type="curve"/>
      <point x="217" y="179"/>
      <point x="216" y="193"/>
      <point x="216" y="209" type="curve" smooth="yes"/>
      <point x="216" y="288"/>
      <point x="245" y="406"/>
      <point x="288" y="506" type="curve" smooth="yes"/>
      <point x="340" y="625"/>
      <point x="406" y="685"/>
      <point x="485" y="685" type="curve" smooth="yes"/>
      <point x="525" y="685"/>
      <point x="565" y="666"/>
      <point x="585" y="638" type="curve" smooth="yes"/>
      <point x="604" y="611"/>
      <point x="614" y="567"/>
      <point x="614" y="512" type="curve" smooth="yes"/>
      <point x="614" y="385"/>
      <point x="576" y="243"/>
    </contour>
    <contour>
      <point x="397" y="54" type="curve"/>
      <point x="379" y="42"/>
      <point x="367" y="38"/>
      <point x="346" y="38" type="curve" smooth="yes"/>
      <point x="292" y="38"/>
      <point x="258" y="71"/>
      <point x="258" y="124" type="curve" smooth="yes"/>
      <point x="258" y="177"/>
      <point x="292" y="217"/>
      <point x="338" y="217" type="curve" smooth="yes"/>
      <point x="379" y="217"/>
      <point x="410" y="188"/>
      <point x="410" y="149" type="curve" smooth="yes"/>
      <point x="410" y="124"/>
      <point x="410" y="122"/>
    </contour>
  </outline>
</glyph>
<glyph name="V" format="1">
  <advance width="741"/>
  <unicode hex="0056"/>
  <outline>
    <contour>
      <point x="384" y="209" type="line"/>
      <point x="309" y="611" type="line" smooth="yes"/>
      <point x="306" y="627"/>
      <point x="304" y="638"/>
      <point x="304" y="641" type="curve" smooth="yes"/>
      <point x="304" y="648"/>
      <point x="308" y="655"/>
      <point x="314" y="660" type="curve"/>
      <point x="324" y="667"/>
      <point x="332" y="668"/>
      <point x="371" y="668" type="curve" smooth="yes"/>
      <point x="398" y="668" type="line"/>
      <point x="406" y="722" type="line"/>
      <point x="39" y="722" type="line"/>
      <point x="32" y="668" type="line"/>
      <point x="64" y="668" type="line" smooth="yes"/>
      <point x="114" y="668"/>
      <point x="125" y="657"/>
      <point x="138" y="593" type="curve" smooth="yes"/>
      <point x="258" y="-14" type="line"/>
      <point x="324" y="-14" type="line"/>
      <point x="662" y="560" type="line" smooth="yes"/>
      <point x="712" y="642"/>
      <point x="734" y="659"/>
      <point x="795" y="668" type="curve"/>
      <point x="802" y="722" type="line"/>
      <point x="523" y="722" type="line"/>
      <point x="516" y="668" type="line"/>
      <point x="543" y="668" type="line" smooth="yes"/>
      <point x="589" y="668"/>
      <point x="610" y="656"/>
      <point x="610" y="629" type="curve" smooth="yes"/>
      <point x="610" y="614"/>
      <point x="604" y="595"/>
      <point x="591" y="572" type="curve" smooth="yes"/>
    </contour>
  </outline>
</glyph>
<glyph name="W" format="1">
  <advance width="944"/>
  <unicode hex="0057"/>
  <outline>
    <contour>
      <point x="682" y="276" type="line"/>
      <point x="635" y="613" type="line" smooth="yes"/>
      <point x="633" y="625"/>
      <point x="632" y="634"/>
      <point x="632" y="640" type="curve" smooth="yes"/>
      <point x="631" y="660"/>
      <point x="644" y="668"/>
      <point x="678" y="668" type="curve" smooth="yes"/>
      <point x="700" y="668" type="line"/>
      <point x="707" y="722" type="line"/>
      <point x="396" y="722" type="line"/>
      <point x="389" y="668" type="line"/>
      <point x="405" y="668" type="line" smooth="yes"/>
      <point x="453" y="668"/>
      <point x="469" y="657"/>
      <point x="473" y="623" type="curve" smooth="yes"/>
      <point x="476" y="593" type="line"/>
      <point x="328" y="264" type="line"/>
      <point x="284" y="616" type="line"/>
      <point x="283" y="632" type="line"/>
      <point x="283" y="661"/>
      <point x="292" y="668"/>
      <point x="328" y="668" type="curve" smooth="yes"/>
      <point x="343" y="668" type="line"/>
      <point x="350" y="722" type="line"/>
      <point x="47" y="722" type="line"/>
      <point x="40" y="668" type="line"/>
      <point x="55" y="668" type="line" smooth="yes"/>
      <point x="97" y="668"/>
      <point x="110" y="660"/>
      <point x="114" y="630" type="curve" smooth="yes"/>
      <point x="200" y="-14" type="line"/>
      <point x="266" y="-14" type="line"/>
      <point x="488" y="469" type="line"/>
      <point x="556" y="-14" type="line"/>
      <point x="622" y="-14" type="line"/>
      <point x="855" y="524" type="line" smooth="yes"/>
      <point x="899" y="630"/>
      <point x="925" y="658"/>
      <point x="987" y="668" type="curve"/>
      <point x="994" y="722" type="line"/>
      <point x="759" y="722" type="line"/>
      <point x="752" y="668" type="line"/>
      <point x="770" y="668" type="line" smooth="yes"/>
      <point x="802" y="668"/>
      <point x="824" y="653"/>
      <point x="824" y="632" type="curve" smooth="yes"/>
      <point x="824" y="622"/>
      <point x="820" y="607"/>
      <point x="811" y="586" type="curve" smooth="yes"/>
    </contour>
  </outline>
</glyph>
<glyph name="Z" format="1">
  <advance width="704"/>
  <unicode hex="005A"/>
  <outline>
    <contour>
      <point x="715" y="722" type="line"/>
      <point x="134" y="722" type="line"/>
      <point x="68" y="478" type="line"/>
      <point x="117" y="468" type="line"/>
      <point x="196" y="612"/>
      <point x="278" y="668"/>
      <point x="407" y="668" type="curve" smooth="yes"/>
      <point x="486" y="668" type="line"/>
      <point x="-21" y="54" type="line"/>
      <point x="-29" y="0" type="line"/>
      <point x="582" y="0" type="line"/>
      <point x="652" y="260" type="line"/>
      <point x="601" y="273" type="line"/>
      <point x="522" y="117"/>
      <point x="432" y="54"/>
      <point x="288" y="54" type="curve" smooth="yes"/>
      <point x="197" y="54" type="line"/>
      <point x="707" y="668" type="line"/>
    </contour>
  </outline>
</glyph>
<glyph name="bracketleft" format="1">
  <advance width="407"/>
  <unicode hex="005B"/>
  <outline>
    <contour>
      <point x="432" y="722" type="line"/>
      <point x="191" y="722" type="line"/>
      <point x="-31" y="-108" type="line"/>
      <point x="210" y="-108" type="line"/>
      <point x="221" y="-64" type="line"/>
      <point x="103" y="-64" type="line"/>
      <point x="302" y="678" type="line"/>
      <point x="420" y="678" type="line"/>
    </contour>
  </outline>
</glyph>
<glyph name="backslash" format="1">
  <advance width="606"/>
  <unicode hex="005C"/>
  <outline>
    <contour>
      <point x="81" y="722" type="line"/>
      <point x="449" y="0" type="line"/>
      <point x="545" y="0" type="line"/>
      <point x="177" y="722" type="line"/>
    </contour>
  </outline>
</glyph>
<glyph name="bracketright" format="1">
  <advance width="407"/>
  <unicode hex="005D"/>
  <outline>
    <contour>
      <point x="-49" y="-108" type="line"/>
      <point x="192" y="-108" type="line"/>
      <point x="414" y="722" type="line"/>
      <point x="173" y="722" type="line"/>
      <point x="162" y="678" type="line"/>
      <point x="280" y="678" type="line"/>
      <point x="81" y="-64" type="line"/>
      <point x="-37" y="-64" type="line"/>
    </contour>
  </outline>
</glyph>
<glyph name="underscore" format="1">
  <advance width="500"/>
  <unicode hex="005F"/>
  <outline>
    <contour>
      <point x="0" y="-75" type="line"/>
      <point x="0" y="-129" type="line"/>
      <point x="500" y="-129" type="line"/>
      <point x="500" y="-75" type="line"/>
    </contour>
  </outline>
</glyph>
<glyph name="grave" format="1">
  <advance width="333"/>
  <unicode hex="0060"/>
  <outline>
    <contour>
      <point x="294" y="535" type="line"/>
      <point x="192" y="677" type="line" smooth="yes"/>
      <point x="168" y="710"/>
      <point x="154" y="719"/>
      <point x="127" y="719" type="curve" smooth="yes"/>
      <point x="96" y="719"/>
      <point x="74" y="698"/>
      <point x="74" y="670" type="curve" smooth="yes"/>
      <point x="74" y="652"/>
      <point x="84" y="636"/>
      <point x="104" y="624" type="curve" smooth="yes"/>
      <point x="245" y="535" type="line"/>
    </contour>
  </outline>
</glyph>
<glyph name="b" format="1">
  <advance width="611"/>
  <unicode hex="0062"/>
  <outline>
    <contour>
      <point x="351" y="736" type="line"/>
      <point x="84" y="722" type="line"/>
      <point x="77" y="675" type="line"/>
      <point x="101" y="675" type="line" smooth="yes"/>
      <point x="151" y="675"/>
      <point x="163" y="669"/>
      <point x="163" y="644" type="curve" smooth="yes"/>
      <point x="163" y="634"/>
      <point x="160" y="622"/>
      <point x="147" y="578" type="curve" smooth="yes"/>
      <point x="50" y="252" type="line" smooth="yes"/>
      <point x="29" y="180"/>
      <point x="28" y="177"/>
      <point x="28" y="145" type="curve" smooth="yes"/>
      <point x="28" y="48"/>
      <point x="109" y="-15"/>
      <point x="232" y="-15" type="curve" smooth="yes"/>
      <point x="314" y="-15"/>
      <point x="386" y="13"/>
      <point x="446" y="69" type="curve" smooth="yes"/>
      <point x="515" y="133"/>
      <point x="557" y="223"/>
      <point x="557" y="307" type="curve" smooth="yes"/>
      <point x="557" y="405"/>
      <point x="484" y="479"/>
      <point x="389" y="479" type="curve" smooth="yes"/>
      <point x="341" y="479"/>
      <point x="305" y="465"/>
      <point x="260" y="427" type="curve"/>
    </contour>
    <contour>
      <point x="330" y="408" type="curve" smooth="yes"/>
      <point x="367" y="408"/>
      <point x="394" y="376"/>
      <point x="394" y="333" type="curve" smooth="yes"/>
      <point x="394" y="290"/>
      <point x="371" y="195"/>
      <point x="347" y="141" type="curve" smooth="yes"/>
      <point x="314" y="67"/>
      <point x="276" y="28"/>
      <point x="237" y="28" type="curve" smooth="yes"/>
      <point x="198" y="28"/>
      <point x="171" y="59"/>
      <point x="171" y="104" type="curve" smooth="yes"/>
      <point x="171" y="154"/>
      <point x="197" y="253"/>
      <point x="228" y="316" type="curve" smooth="yes"/>
      <point x="259" y="378"/>
      <point x="291" y="408"/>
    </contour>
  </outline>
</glyph>
<glyph name="g" format="1">
  <advance width="611"/>
  <unicode hex="0067"/>
  <outline>
    <contour>
      <point x="399" y="463" type="curve"/>
      <point x="363" y="475"/>
      <point x="335" y="479"/>
      <point x="296" y="479" type="curve" smooth="yes"/>
      <point x="162" y="479"/>
      <point x="69" y="407"/>
      <point x="69" y="304" type="curve" smooth="yes"/>
      <point x="69" y="264"/>
      <point x="84" y="236"/>
      <point x="120" y="206" type="curve"/>
      <point x="42" y="181"/>
      <point x="0" y="139"/>
      <point x="0" y="86" type="curve" smooth="yes"/>
      <point x="0" y="51"/>
      <point x="15" y="30"/>
      <point x="60" y="6" type="curve"/>
      <point x="-26" y="-10"/>
      <point x="-66" y="-41"/>
      <point x="-66" y="-91" type="curve" smooth="yes"/>
      <point x="-66" y="-161"/>
      <point x="21" y="-202"/>
      <point x="172" y="-202" type="curve" smooth="yes"/>
      <point x="352" y="-202"/>
      <point x="450" y="-143"/>
      <point x="450" y="-35" type="curve" smooth="yes"/>
      <point x="450" y="30"/>
      <point x="419" y="66"/>
      <point x="346" y="83" type="curve" smooth="yes"/>
      <point x="322" y="88"/>
      <point x="258" y="96"/>
      <point x="168" y="105" type="curve" smooth="yes"/>
      <point x="134" y="108"/>
      <point x="119" y="118"/>
      <point x="119" y="139" type="curve" smooth="yes"/>
      <point x="119" y="156"/>
      <point x="139" y="170"/>
      <point x="166" y="170" type="curve" smooth="yes"/>
      <point x="173" y="170"/>
      <point x="185" y="169"/>
      <point x="200" y="167" type="curve" smooth="yes"/>
      <point x="235" y="162"/>
      <point x="298" y="157"/>
      <point x="317" y="157" type="curve" smooth="yes"/>
      <point x="439" y="157"/>
      <point x="527" y="223"/>
      <point x="527" y="314" type="curve" smooth="yes"/>
      <point x="527" y="368"/>
      <point x="499" y="414"/>
      <point x="448" y="444" type="curve"/>
      <point x="461" y="461"/>
      <point x="471" y="468"/>
      <point x="482" y="468" type="curve" smooth="yes"/>
      <point x="489" y="468"/>
      <point x="494" y="463"/>
      <point x="499" y="451" type="curve" smooth="yes"/>
      <point x="510" y="421"/>
      <point x="525" y="408"/>
      <point x="549" y="408" type="curve" smooth="yes"/>
      <point x="580" y="408"/>
      <point x="602" y="432"/>
      <point x="602" y="466" type="curve" smooth="yes"/>
      <point x="602" y="506"/>
      <point x="573" y="533"/>
      <point x="530" y="533" type="curve" smooth="yes"/>
      <point x="487" y="533"/>
      <point x="448" y="512"/>
    </contour>
    <contour>
      <point x="317" y="432" type="curve" smooth="yes"/>
      <point x="353" y="432"/>
      <point x="379" y="402"/>
      <point x="379" y="361" type="curve" smooth="yes"/>
      <point x="379" y="328"/>
      <point x="369" y="285"/>
      <point x="353" y="253" type="curve" smooth="yes"/>
      <point x="338" y="221"/>
      <point x="315" y="205"/>
      <point x="287" y="205" type="curve" smooth="yes"/>
      <point x="247" y="205"/>
      <point x="222" y="232"/>
      <point x="222" y="277" type="curve" smooth="yes"/>
      <point x="222" y="315"/>
      <point x="233" y="357"/>
      <point x="251" y="389" type="curve" smooth="yes"/>
      <point x="267" y="417"/>
      <point x="289" y="432"/>
    </contour>
    <contour>
      <point x="141" y="-27" type="curve" smooth="yes"/>
      <point x="184" y="-27"/>
      <point x="261" y="-34"/>
      <point x="285" y="-40" type="curve" smooth="yes"/>
      <point x="316" y="-48"/>
      <point x="329" y="-61"/>
      <point x="329" y="-85" type="curve" smooth="yes"/>
      <point x="329" y="-131"/>
      <point x="276" y="-155"/>
      <point x="177" y="-155" type="curve" smooth="yes"/>
      <point x="98" y="-155"/>
      <point x="57" y="-131"/>
      <point x="57" y="-85" type="curve" smooth="yes"/>
      <point x="57" y="-46"/>
      <point x="85" y="-27"/>
    </contour>
  </outline>
</glyph>
<glyph name="h" format="1">
  <advance width="685"/>
  <unicode hex="0068"/>
  <outline>
    <contour>
      <point x="376" y="736" type="line"/>
      <point x="108" y="722" type="line"/>
      <point x="101" y="675" type="line"/>
      <point x="125" y="675" type="line" smooth="yes"/>
      <point x="175" y="675"/>
      <point x="187" y="669"/>
      <point x="187" y="644" type="curve" smooth="yes"/>
      <point x="187" y="634"/>
      <point x="184" y="619"/>
      <point x="171" y="578" type="curve" smooth="yes"/>
      <point x="0" y="0" type="line"/>
      <point x="157" y="0" type="line"/>
      <point x="195" y="127" type="line" smooth="yes"/>
      <point x="223" y="221"/>
      <point x="249" y="273"/>
      <point x="292" y="325" type="curve" smooth="yes"/>
      <point x="329" y="370"/>
      <point x="362" y="395"/>
      <point x="386" y="395" type="curve" smooth="yes"/>
      <point x="400" y="395"/>
      <point x="415" y="382"/>
      <point x="415" y="368" type="curve" smooth="yes"/>
      <point x="415" y="361"/>
      <point x="412" y="348"/>
      <point x="406" y="332" type="curve" smooth="yes"/>
      <point x="345" y="163" type="line" smooth="yes"/>
      <point x="327" y="114"/>
      <point x="324" y="102"/>
      <point x="324" y="76" type="curve" smooth="yes"/>
      <point x="324" y="20"/>
      <point x="364" y="-15"/>
      <point x="426" y="-15" type="curve" smooth="yes"/>
      <point x="499" y="-15"/>
      <point x="559" y="32"/>
      <point x="637" y="152" type="curve"/>
      <point x="598" y="177" type="line"/>
      <point x="595" y="173"/>
      <point x="592" y="169"/>
      <point x="589" y="166" type="curve"/>
      <point x="535" y="91"/>
      <point x="510" y="66"/>
      <point x="492" y="66" type="curve" smooth="yes"/>
      <point x="485" y="66"/>
      <point x="478" y="74"/>
      <point x="478" y="82" type="curve" smooth="yes"/>
      <point x="478" y="90"/>
      <point x="478" y="90"/>
      <point x="489" y="120" type="curve" smooth="yes"/>
      <point x="536" y="248" type="line" smooth="yes"/>
      <point x="557" y="307"/>
      <point x="566" y="343"/>
      <point x="566" y="376" type="curve" smooth="yes"/>
      <point x="566" y="436"/>
      <point x="519" y="479"/>
      <point x="454" y="479" type="curve" smooth="yes"/>
      <point x="388" y="479"/>
      <point x="329" y="444"/>
      <point x="266" y="366" type="curve"/>
    </contour>
  </outline>
</glyph>
<glyph name="j" format="1">
  <advance width="370"/>
  <unicode hex="006A"/>
  <outline>
    <contour>
      <point x="296" y="737" type="curve" smooth="yes"/>
      <point x="249" y="737"/>
      <point x="211" y="699"/>
      <point x="211" y="652" type="curve" smooth="yes"/>
      <point x="211" y="606"/>
      <point x="250" y="567"/>
      <point x="295" y="567" type="curve" smooth="yes"/>
      <point x="343" y="567"/>
      <point x="381" y="605"/>
      <point x="381" y="652" type="curve" smooth="yes"/>
      <point x="381" y="699"/>
      <point x="343" y="737"/>
    </contour>
    <contour>
      <point x="359" y="478" type="line"/>
      <point x="84" y="464" type="line"/>
      <point x="77" y="417" type="line"/>
      <point x="109" y="417" type="line" smooth="yes"/>
      <point x="158" y="417"/>
      <point x="170" y="411"/>
      <point x="170" y="386" type="curve" smooth="yes"/>
      <point x="170" y="375"/>
      <point x="166" y="357"/>
      <point x="155" y="319" type="curve" smooth="yes"/>
      <point x="60" y="0" type="line" smooth="yes"/>
      <point x="25" y="-119"/>
      <point x="4" y="-153"/>
      <point x="-35" y="-153" type="curve" smooth="yes"/>
      <point x="-45" y="-153"/>
      <point x="-52" y="-148"/>
      <point x="-52" y="-141" type="curve" smooth="yes"/>
      <point x="-52" y="-137"/>
      <point x="-50" y="-133"/>
      <point x="-46" y="-131" type="curve"/>
      <point x="-23" y="-117"/>
      <point x="-18" y="-108"/>
      <point x="-18" y="-82" type="curve" smooth="yes"/>
      <point x="-18" y="-36"/>
      <point x="-46" y="-7"/>
      <point x="-92" y="-7" type="curve" smooth="yes"/>
      <point x="-138" y="-7"/>
      <point x="-170" y="-41"/>
      <point x="-170" y="-90" type="curve" smooth="yes"/>
      <point x="-170" y="-155"/>
      <point x="-108" y="-202"/>
      <point x="-24" y="-202" type="curve" smooth="yes"/>
      <point x="45" y="-202"/>
      <point x="107" y="-171"/>
      <point x="154" y="-112" type="curve" smooth="yes"/>
      <point x="193" y="-65"/>
      <point x="209" y="-28"/>
      <point x="240" y="75" type="curve" smooth="yes"/>
    </contour>
  </outline>
</glyph>
<glyph name="k" format="1">
  <advance width="648"/>
  <unicode hex="006B"/>
  <outline>
    <contour>
      <point x="371" y="736" type="line"/>
      <point x="103" y="722" type="line"/>
      <point x="97" y="675" type="line"/>
      <point x="120" y="675" type="line" smooth="yes"/>
      <point x="170" y="675"/>
      <point x="182" y="669"/>
      <point x="182" y="644" type="curve" smooth="yes"/>
      <point x="182" y="634"/>
      <point x="178" y="619"/>
      <point x="166" y="578" type="curve" smooth="yes"/>
      <point x="-5" y="0" type="line"/>
      <point x="152" y="0" type="line"/>
      <point x="189" y="123" type="line" smooth="yes"/>
      <point x="218" y="220"/>
      <point x="240" y="268"/>
      <point x="280" y="316" type="curve" smooth="yes"/>
      <point x="326" y="372"/>
      <point x="361" y="396"/>
      <point x="397" y="396" type="curve" smooth="yes"/>
      <point x="425" y="396"/>
      <point x="444" y="378"/>
      <point x="444" y="351" type="curve" smooth="yes"/>
      <point x="444" y="305"/>
      <point x="406" y="269"/>
      <point x="330" y="244" type="curve"/>
      <point x="305" y="255"/>
      <point x="297" y="257"/>
      <point x="284" y="257" type="curve" smooth="yes"/>
      <point x="263" y="257"/>
      <point x="248" y="244"/>
      <point x="248" y="226" type="curve" smooth="yes"/>
      <point x="248" y="208"/>
      <point x="262" y="197"/>
      <point x="284" y="197" type="curve" smooth="yes"/>
      <point x="289" y="197"/>
      <point x="297" y="197"/>
      <point x="305" y="198" type="curve"/>
      <point x="309" y="191"/>
      <point x="310" y="186"/>
      <point x="310" y="181" type="curve" smooth="yes"/>
      <point x="310" y="173"/>
      <point x="309" y="162"/>
      <point x="306" y="148" type="curve"/>
      <point x="303" y="129"/>
      <point x="301" y="111"/>
      <point x="301" y="93" type="curve" smooth="yes"/>
      <point x="301" y="24"/>
      <point x="338" y="-15"/>
      <point x="403" y="-15" type="curve" smooth="yes"/>
      <point x="479" y="-15"/>
      <point x="533" y="30"/>
      <point x="584" y="135" type="curve"/>
      <point x="541" y="158" type="line"/>
      <point x="517" y="100"/>
      <point x="489" y="65"/>
      <point x="466" y="65" type="curve" smooth="yes"/>
      <point x="457" y="65"/>
      <point x="451" y="72"/>
      <point x="450" y="84" type="curve" smooth="yes"/>
      <point x="443" y="167"/>
      <point x="433" y="189"/>
      <point x="387" y="215" type="curve"/>
      <point x="432" y="230"/>
      <point x="461" y="242"/>
      <point x="489" y="258" type="curve" smooth="yes"/>
      <point x="549" y="291"/>
      <point x="581" y="334"/>
      <point x="581" y="381" type="curve" smooth="yes"/>
      <point x="581" y="439"/>
      <point x="533" y="479"/>
      <point x="463" y="479" type="curve" smooth="yes"/>
      <point x="391" y="479"/>
      <point x="340" y="452"/>
      <point x="262" y="371" type="curve"/>
    </contour>
  </outline>
</glyph>
<glyph name="l" format="1">
  <advance width="389"/>
  <unicode hex="006C"/>
  <outline>
    <contour>
      <point x="370" y="736" type="line"/>
      <point x="103" y="722" type="line"/>
      <point x="96" y="675" type="line"/>
      <point x="120" y="675" type="line" smooth="yes"/>
      <point x="169" y="675"/>
      <point x="181" y="669"/>
      <point x="181" y="644" type="curve" smooth="yes"/>
      <point x="181" y="633"/>
      <point x="177" y="615"/>
      <point x="166" y="578" type="curve" smooth="yes"/>
      <point x="49" y="182" type="line" smooth="yes"/>
      <point x="31" y="125"/>
      <point x="26" y="99"/>
      <point x="26" y="76" type="curve" smooth="yes"/>
      <point x="26" y="22"/>
      <point x="67" y="-15"/>
      <point x="128" y="-15" type="curve" smooth="yes"/>
      <point x="174" y="-15"/>
      <point x="212" y="2"/>
      <point x="253" y="41" type="curve" smooth="yes"/>
      <point x="288" y="74"/>
      <point x="318" y="111"/>
      <point x="339" y="149" type="curve"/>
      <point x="300" y="176" type="line"/>
      <point x="260" y="110"/>
      <point x="215" y="63"/>
      <point x="193" y="63" type="curve" smooth="yes"/>
      <point x="185" y="63"/>
      <point x="178" y="70"/>
      <point x="178" y="80" type="curve" smooth="yes"/>
      <point x="178" y="85"/>
      <point x="180" y="96"/>
      <point x="183" y="106" type="curve" smooth="yes"/>
      <point x="188" y="122" type="line"/>
    </contour>
  </outline>
</glyph>
<glyph name="p" format="1">
  <advance width="648"/>
  <unicode hex="0070"/>
  <outline>
    <contour>
      <point x="273" y="478" type="line"/>
      <point x="36" y="464" type="line"/>
      <point x="29" y="417" type="line"/>
      <point x="53" y="417" type="line" smooth="yes"/>
      <point x="103" y="417"/>
      <point x="115" y="411"/>
      <point x="115" y="386" type="curve" smooth="yes"/>
      <point x="115" y="375"/>
      <point x="110" y="355"/>
      <point x="100" y="322" type="curve" smooth="yes"/>
      <point x="-15" y="-65" type="line" smooth="yes"/>
      <point x="-35" y="-133"/>
      <point x="-35" y="-133"/>
      <point x="-44" y="-141" type="curve"/>
      <point x="-52" y="-149"/>
      <point x="-80" y="-155"/>
      <point x="-107" y="-155" type="curve" smooth="yes"/>
      <point x="-111" y="-155" type="line"/>
      <point x="-118" y="-202" type="line"/>
      <point x="192" y="-202" type="line"/>
      <point x="199" y="-155" type="line"/>
      <point x="184" y="-155" type="line" smooth="yes"/>
      <point x="144" y="-155"/>
      <point x="127" y="-147"/>
      <point x="127" y="-129" type="curve" smooth="yes"/>
      <point x="127" y="-120"/>
      <point x="127" y="-120"/>
      <point x="143" y="-65" type="curve" smooth="yes"/>
      <point x="177" y="50" type="line"/>
      <point x="205" y="5"/>
      <point x="243" y="-15"/>
      <point x="303" y="-15" type="curve" smooth="yes"/>
      <point x="453" y="-15"/>
      <point x="590" y="134"/>
      <point x="590" y="298" type="curve" smooth="yes"/>
      <point x="590" y="408"/>
      <point x="522" y="479"/>
      <point x="415" y="479" type="curve" smooth="yes"/>
      <point x="353" y="479"/>
      <point x="306" y="455"/>
      <point x="257" y="399" type="curve"/>
    </contour>
    <contour>
      <point x="366" y="409" type="curve" smooth="yes"/>
      <point x="404" y="409"/>
      <point x="430" y="380"/>
      <point x="430" y="336" type="curve" smooth="yes"/>
      <point x="430" y="279"/>
      <point x="405" y="187"/>
      <point x="372" y="122" type="curve" smooth="yes"/>
      <point x="344" y="68"/>
      <point x="313" y="43"/>
      <point x="275" y="43" type="curve" smooth="yes"/>
      <point x="237" y="43"/>
      <point x="206" y="76"/>
      <point x="206" y="117" type="curve" smooth="yes"/>
      <point x="206" y="169"/>
      <point x="239" y="280"/>
      <point x="270" y="335" type="curve" smooth="yes"/>
      <point x="299" y="386"/>
      <point x="329" y="409"/>
    </contour>
  </outline>
</glyph>
<glyph name="q" format="1">
  <advance width="630"/>
  <unicode hex="0071"/>
  <outline>
    <contour>
      <point x="587" y="478" type="line"/>
      <point x="513" y="478" type="line"/>
      <point x="425" y="402" type="line"/>
      <point x="398" y="453"/>
      <point x="352" y="478"/>
      <point x="287" y="478" type="curve" smooth="yes"/>
      <point x="138" y="478"/>
      <point x="0" y="331"/>
      <point x="0" y="170" type="curve" smooth="yes"/>
      <point x="0" y="60"/>
      <point x="66" y="-15"/>
      <point x="165" y="-15" type="curve" smooth="yes"/>
      <point x="215" y="-15"/>
      <point x="256" y="3"/>
      <point x="302" y="46" type="curve"/>
      <point x="269" y="-65" type="line" smooth="yes"/>
      <point x="248" y="-133"/>
      <point x="248" y="-133"/>
      <point x="240" y="-141" type="curve"/>
      <point x="231" y="-149"/>
      <point x="204" y="-155"/>
      <point x="174" y="-155" type="curve" smooth="yes"/>
      <point x="170" y="-155" type="line"/>
      <point x="163" y="-202" type="line"/>
      <point x="476" y="-202" type="line"/>
      <point x="482" y="-155" type="line"/>
      <point x="467" y="-155" type="line" smooth="yes"/>
      <point x="428" y="-155"/>
      <point x="411" y="-147"/>
      <point x="411" y="-129" type="curve" smooth="yes"/>
      <point x="411" y="-120"/>
      <point x="416" y="-100"/>
      <point x="426" y="-65" type="curve" smooth="yes"/>
    </contour>
    <contour>
      <point x="315" y="423" type="curve" smooth="yes"/>
      <point x="350" y="423"/>
      <point x="376" y="394"/>
      <point x="376" y="356" type="curve" smooth="yes"/>
      <point x="376" y="300"/>
      <point x="349" y="198"/>
      <point x="318" y="137" type="curve" smooth="yes"/>
      <point x="290" y="83"/>
      <point x="257" y="55"/>
      <point x="223" y="55" type="curve" smooth="yes"/>
      <point x="188" y="55"/>
      <point x="163" y="86"/>
      <point x="163" y="129" type="curve" smooth="yes"/>
      <point x="163" y="207"/>
      <point x="200" y="323"/>
      <point x="243" y="381" type="curve" smooth="yes"/>
      <point x="263" y="407"/>
      <point x="290" y="423"/>
    </contour>
  </outline>
</glyph>
<glyph name="t" format="1">
  <advance width="407"/>
  <unicode hex="0074"/>
  <outline>
    <contour>
      <point x="300" y="183" type="line"/>
      <point x="262" y="117"/>
      <point x="216" y="66"/>
      <point x="196" y="66" type="curve" smooth="yes"/>
      <point x="188" y="66"/>
      <point x="181" y="75"/>
      <point x="181" y="84" type="curve" smooth="yes"/>
      <point x="181" y="91"/>
      <point x="190" y="126"/>
      <point x="202" y="167" type="curve" smooth="yes"/>
      <point x="272" y="403" type="line"/>
      <point x="386" y="403" type="line"/>
      <point x="404" y="464" type="line"/>
      <point x="290" y="464" type="line"/>
      <point x="345" y="650" type="line"/>
      <point x="188" y="650" type="line"/>
      <point x="132" y="464" type="line"/>
      <point x="45" y="464" type="line"/>
      <point x="27" y="403" type="line"/>
      <point x="114" y="403" type="line"/>
      <point x="49" y="183" type="line" smooth="yes"/>
      <point x="45" y="168"/>
      <point x="41" y="155"/>
      <point x="38" y="146" type="curve" smooth="yes"/>
      <point x="29" y="116"/>
      <point x="24" y="88"/>
      <point x="24" y="69" type="curve" smooth="yes"/>
      <point x="24" y="23"/>
      <point x="66" y="-14"/>
      <point x="119" y="-14" type="curve" smooth="yes"/>
      <point x="170" y="-14"/>
      <point x="220" y="12"/>
      <point x="269" y="64" type="curve" smooth="yes"/>
      <point x="289" y="86"/>
      <point x="299" y="98"/>
      <point x="337" y="156" type="curve"/>
    </contour>
  </outline>
</glyph>
<glyph name="v" format="1">
  <advance width="556"/>
  <unicode hex="0076"/>
  <outline>
    <contour>
      <point x="306" y="478" type="line"/>
      <point x="39" y="464" type="line"/>
      <point x="32" y="417" type="line"/>
      <point x="56" y="417" type="line" smooth="yes"/>
      <point x="106" y="417"/>
      <point x="118" y="411"/>
      <point x="118" y="386" type="curve" smooth="yes"/>
      <point x="118" y="376"/>
      <point x="116" y="366"/>
      <point x="102" y="319" type="curve" smooth="yes"/>
      <point x="70" y="211" type="line" smooth="yes"/>
      <point x="62" y="185"/>
      <point x="58" y="159"/>
      <point x="58" y="132" type="curve" smooth="yes"/>
      <point x="58" y="88"/>
      <point x="73" y="51"/>
      <point x="101" y="26" type="curve" smooth="yes"/>
      <point x="131" y="0"/>
      <point x="172" y="-15"/>
      <point x="213" y="-15" type="curve" smooth="yes"/>
      <point x="297" y="-15"/>
      <point x="372" y="39"/>
      <point x="428" y="139" type="curve" smooth="yes"/>
      <point x="471" y="216"/>
      <point x="500" y="317"/>
      <point x="500" y="390" type="curve" smooth="yes"/>
      <point x="500" y="443"/>
      <point x="469" y="479"/>
      <point x="422" y="479" type="curve" smooth="yes"/>
      <point x="380" y="479"/>
      <point x="353" y="453"/>
      <point x="353" y="414" type="curve" smooth="yes"/>
      <point x="353" y="392"/>
      <point x="361" y="377"/>
      <point x="382" y="357" type="curve" smooth="yes"/>
      <point x="423" y="319"/>
      <point x="426" y="316"/>
      <point x="426" y="294" type="curve" smooth="yes"/>
      <point x="426" y="250"/>
      <point x="404" y="190"/>
      <point x="365" y="131" type="curve" smooth="yes"/>
      <point x="333" y="82"/>
      <point x="298" y="56"/>
      <point x="265" y="56" type="curve" smooth="yes"/>
      <point x="236" y="56"/>
      <point x="209" y="84"/>
      <point x="209" y="113" type="curve" smooth="yes"/>
      <point x="209" y="134"/>
      <point x="210" y="139"/>
      <point x="233" y="230" type="curve" smooth="yes"/>
    </contour>
  </outline>
</glyph>
<glyph name="w" format="1">
  <advance width="833"/>
  <unicode hex="0077"/>
  <outline>
    <contour>
      <point x="587" y="464" type="line"/>
      <point x="430" y="464" type="line"/>
      <point x="377" y="286" type="line" smooth="yes"/>
      <point x="364" y="240"/>
      <point x="335" y="172"/>
      <point x="318" y="145" type="curve" smooth="yes"/>
      <point x="288" y="98"/>
      <point x="251" y="71"/>
      <point x="215" y="71" type="curve" smooth="yes"/>
      <point x="196" y="71"/>
      <point x="179" y="88"/>
      <point x="179" y="108" type="curve" smooth="yes"/>
      <point x="179" y="122"/>
      <point x="184" y="144"/>
      <point x="193" y="177" type="curve" smooth="yes"/>
      <point x="283" y="478" type="line"/>
      <point x="29" y="464" type="line"/>
      <point x="22" y="417" type="line"/>
      <point x="32" y="417" type="line" smooth="yes"/>
      <point x="82" y="417"/>
      <point x="94" y="411"/>
      <point x="94" y="386" type="curve" smooth="yes"/>
      <point x="94" y="376"/>
      <point x="90" y="360"/>
      <point x="78" y="319" type="curve" smooth="yes"/>
      <point x="42" y="198" type="line" smooth="yes"/>
      <point x="26" y="142"/>
      <point x="22" y="123"/>
      <point x="22" y="95" type="curve" smooth="yes"/>
      <point x="22" y="25"/>
      <point x="65" y="-15"/>
      <point x="143" y="-15" type="curve" smooth="yes"/>
      <point x="223" y="-15"/>
      <point x="282" y="20"/>
      <point x="345" y="103" type="curve"/>
      <point x="362" y="27"/>
      <point x="415" y="-15"/>
      <point x="495" y="-15" type="curve" smooth="yes"/>
      <point x="581" y="-15"/>
      <point x="659" y="39"/>
      <point x="716" y="139" type="curve" smooth="yes"/>
      <point x="758" y="214"/>
      <point x="788" y="317"/>
      <point x="788" y="390" type="curve" smooth="yes"/>
      <point x="788" y="443"/>
      <point x="757" y="479"/>
      <point x="710" y="479" type="curve" smooth="yes"/>
      <point x="668" y="479"/>
      <point x="641" y="453"/>
      <point x="641" y="414" type="curve" smooth="yes"/>
      <point x="641" y="392"/>
      <point x="649" y="376"/>
      <point x="670" y="357" type="curve" smooth="yes"/>
      <point x="711" y="320"/>
      <point x="714" y="315"/>
      <point x="714" y="296" type="curve" smooth="yes"/>
      <point x="714" y="250"/>
      <point x="691" y="188"/>
      <point x="653" y="131" type="curve" smooth="yes"/>
      <point x="622" y="86"/>
      <point x="581" y="56"/>
      <point x="548" y="56" type="curve" smooth="yes"/>
      <point x="520" y="56"/>
      <point x="494" y="84"/>
      <point x="494" y="113" type="curve" smooth="yes"/>
      <point x="494" y="133"/>
      <point x="495" y="139"/>
      <point x="518" y="230" type="curve" smooth="yes"/>
    </contour>
  </outline>
</glyph>
<glyph name="x" format="1">
  <advance width="574"/>
  <unicode hex="0078"/>
  <outline>
    <contour>
      <point x="212" y="134" type="line"/>
      <point x="215" y="120" type="line" smooth="yes"/>
      <point x="227" y="64"/>
      <point x="235" y="42"/>
      <point x="252" y="22" type="curve" smooth="yes"/>
      <point x="271" y="-2"/>
      <point x="298" y="-15"/>
      <point x="329" y="-15" type="curve" smooth="yes"/>
      <point x="376" y="-15"/>
      <point x="415" y="10"/>
      <point x="451" y="62" type="curve" smooth="yes"/>
      <point x="476" y="97"/>
      <point x="495" y="133"/>
      <point x="508" y="169" type="curve"/>
      <point x="469" y="189" type="line"/>
      <point x="443" y="124"/>
      <point x="416" y="88"/>
      <point x="394" y="88" type="curve" smooth="yes"/>
      <point x="373" y="88"/>
      <point x="365" y="108"/>
      <point x="346" y="200" type="curve" smooth="yes"/>
      <point x="330" y="282" type="line"/>
      <point x="391" y="372"/>
      <point x="420" y="405"/>
      <point x="438" y="405" type="curve" smooth="yes"/>
      <point x="444" y="405"/>
      <point x="446" y="401"/>
      <point x="447" y="393" type="curve"/>
      <point x="447" y="358"/>
      <point x="469" y="338"/>
      <point x="506" y="338" type="curve" smooth="yes"/>
      <point x="543" y="338"/>
      <point x="571" y="367"/>
      <point x="571" y="407" type="curve" smooth="yes"/>
      <point x="571" y="450"/>
      <point x="538" y="479"/>
      <point x="490" y="479" type="curve" smooth="yes"/>
      <point x="435" y="479"/>
      <point x="400" y="454"/>
      <point x="339" y="373" type="curve" smooth="yes"/>
      <point x="317" y="344" type="line"/>
      <point x="297" y="441"/>
      <point x="266" y="479"/>
      <point x="207" y="479" type="curve" smooth="yes"/>
      <point x="160" y="479"/>
      <point x="119" y="453"/>
      <point x="75" y="395" type="curve" smooth="yes"/>
      <point x="52" y="366"/>
      <point x="36" y="339"/>
      <point x="20" y="306" type="curve"/>
      <point x="60" y="286" type="line"/>
      <point x="63" y="291"/>
      <point x="65" y="295"/>
      <point x="66" y="296" type="curve"/>
      <point x="106" y="366"/>
      <point x="118" y="379"/>
      <point x="136" y="379" type="curve" smooth="yes"/>
      <point x="155" y="379"/>
      <point x="162" y="363"/>
      <point x="184" y="261" type="curve" smooth="yes"/>
      <point x="198" y="196" type="line"/>
      <point x="157" y="139" type="line" smooth="yes"/>
      <point x="121" y="88"/>
      <point x="101" y="68"/>
      <point x="86" y="68" type="curve" smooth="yes"/>
      <point x="82" y="68"/>
      <point x="79" y="71"/>
      <point x="77" y="79" type="curve" smooth="yes"/>
      <point x="69" y="111"/>
      <point x="48" y="129"/>
      <point x="18" y="129" type="curve" smooth="yes"/>
      <point x="-22" y="129"/>
      <point x="-49" y="101"/>
      <point x="-49" y="61" type="curve" smooth="yes"/>
      <point x="-49" y="16"/>
      <point x="-15" y="-15"/>
      <point x="32" y="-15" type="curve" smooth="yes"/>
      <point x="79" y="-15"/>
      <point x="133" y="22"/>
      <point x="175" y="82" type="curve" smooth="yes"/>
    </contour>
  </outline>
</glyph>
<glyph name="z" format="1">
  <advance width="519"/>
  <unicode hex="007A"/>
  <outline>
    <contour>
      <point x="416" y="169" type="line"/>
      <point x="396" y="126"/>
      <point x="376" y="107"/>
      <point x="350" y="107" type="curve" smooth="yes"/>
      <point x="342" y="107"/>
      <point x="342" y="107"/>
      <point x="295" y="121" type="curve" smooth="yes"/>
      <point x="260" y="131"/>
      <point x="231" y="136"/>
      <point x="200" y="136" type="curve" smooth="yes"/>
      <point x="176" y="136"/>
      <point x="156" y="134"/>
      <point x="110" y="126" type="curve"/>
      <point x="135" y="142"/>
      <point x="146" y="149"/>
      <point x="174" y="163" type="curve" smooth="yes"/>
      <point x="292" y="224"/>
      <point x="311" y="236"/>
      <point x="358" y="280" type="curve" smooth="yes"/>
      <point x="428" y="347"/>
      <point x="471" y="410"/>
      <point x="471" y="446" type="curve" smooth="yes"/>
      <point x="471" y="464"/>
      <point x="457" y="479"/>
      <point x="441" y="479" type="curve" smooth="yes"/>
      <point x="427" y="479"/>
      <point x="419" y="470"/>
      <point x="413" y="450" type="curve" smooth="yes"/>
      <point x="407" y="426"/>
      <point x="402" y="418"/>
      <point x="392" y="418" type="curve" smooth="yes"/>
      <point x="385" y="418"/>
      <point x="372" y="423"/>
      <point x="348" y="436" type="curve" smooth="yes"/>
      <point x="288" y="468"/>
      <point x="254" y="479"/>
      <point x="214" y="479" type="curve" smooth="yes"/>
      <point x="124" y="479"/>
      <point x="57" y="419"/>
      <point x="16" y="301" type="curve"/>
      <point x="58" y="286" type="line"/>
      <point x="81" y="337"/>
      <point x="90" y="345"/>
      <point x="122" y="345" type="curve" smooth="yes"/>
      <point x="134" y="345"/>
      <point x="148" y="343"/>
      <point x="178" y="338" type="curve" smooth="yes"/>
      <point x="235" y="329"/>
      <point x="245" y="328"/>
      <point x="268" y="328" type="curve" smooth="yes"/>
      <point x="298" y="328"/>
      <point x="320" y="332"/>
      <point x="350" y="342" type="curve"/>
      <point x="331" y="329"/>
      <point x="313" y="318"/>
      <point x="307" y="314" type="curve" smooth="yes"/>
      <point x="304" y="312"/>
      <point x="272" y="296"/>
      <point x="224" y="271" type="curve" smooth="yes"/>
      <point x="148" y="230"/>
      <point x="104" y="195"/>
      <point x="47" y="131" type="curve" smooth="yes"/>
      <point x="2" y="79"/>
      <point x="-19" y="44"/>
      <point x="-19" y="19" type="curve" smooth="yes"/>
      <point x="-19" y="0"/>
      <point x="-5" y="-15"/>
      <point x="13" y="-15" type="curve" smooth="yes"/>
      <point x="36" y="-15"/>
      <point x="50" y="2"/>
      <point x="51" y="28" type="curve" smooth="yes"/>
      <point x="51" y="48"/>
      <point x="56" y="57"/>
      <point x="65" y="57" type="curve" smooth="yes"/>
      <point x="70" y="57"/>
      <point x="75" y="55"/>
      <point x="86" y="49" type="curve" smooth="yes"/>
      <point x="178" y="-5"/>
      <point x="206" y="-15"/>
      <point x="259" y="-15" type="curve" smooth="yes"/>
      <point x="354" y="-15"/>
      <point x="426" y="45"/>
      <point x="460" y="153" type="curve"/>
    </contour>
  </outline>
</glyph>
<glyph name="braceleft" format="1">
  <advance width="407"/>
  <unicode hex="007B"/>
  <outline>
    <contour>
      <point x="52" y="285" type="line"/>
      <point x="89" y="275"/>
      <point x="103" y="258"/>
      <point x="103" y="225" type="curve" smooth="yes"/>
      <point x="103" y="205"/>
      <point x="102" y="198"/>
      <point x="90" y="154" type="curve" smooth="yes"/>
      <point x="69" y="74" type="line" smooth="yes"/>
      <point x="56" y="29"/>
      <point x="52" y="4"/>
      <point x="52" y="-21" type="curve" smooth="yes"/>
      <point x="52" y="-76"/>
      <point x="85" y="-108"/>
      <point x="140" y="-108" type="curve" smooth="yes"/>
      <point x="182" y="-108" type="line"/>
      <point x="194" y="-65" type="line"/>
      <point x="158" y="-63"/>
      <point x="147" y="-51"/>
      <point x="147" y="-16" type="curve" smooth="yes"/>
      <point x="147" y="2"/>
      <point x="150" y="19"/>
      <point x="164" y="71" type="curve" smooth="yes"/>
      <point x="192" y="175" type="line" smooth="yes"/>
      <point x="201" y="206"/>
      <point x="205" y="229"/>
      <point x="205" y="240" type="curve" smooth="yes"/>
      <point x="205" y="273"/>
      <point x="184" y="294"/>
      <point x="140" y="307" type="curve"/>
      <point x="206" y="322"/>
      <point x="238" y="355"/>
      <point x="261" y="432" type="curve" smooth="yes"/>
      <point x="294" y="553" type="line" smooth="yes"/>
      <point x="319" y="645"/>
      <point x="341" y="674"/>
      <point x="390" y="679" type="curve"/>
      <point x="402" y="722" type="line"/>
      <point x="371" y="722" type="line" smooth="yes"/>
      <point x="276" y="722"/>
      <point x="232" y="683"/>
      <point x="202" y="572" type="curve" smooth="yes"/>
      <point x="172" y="462" type="line" smooth="yes"/>
      <point x="152" y="372"/>
      <point x="129" y="345"/>
      <point x="64" y="329" type="curve"/>
    </contour>
  </outline>
</glyph>
<glyph name="braceright" format="1">
  <advance width="407"/>
  <unicode hex="007D"/>
  <outline>
    <contour>
      <point x="322" y="329" type="line"/>
      <point x="284" y="338"/>
      <point x="269" y="355"/>
      <point x="269" y="389" type="curve" smooth="yes"/>
      <point x="269" y="410"/>
      <point x="270" y="416"/>
      <point x="282" y="460" type="curve" smooth="yes"/>
      <point x="304" y="540" type="line" smooth="yes"/>
      <point x="316" y="586"/>
      <point x="320" y="610"/>
      <point x="320" y="635" type="curve" smooth="yes"/>
      <point x="320" y="690"/>
      <point x="287" y="722"/>
      <point x="232" y="722" type="curve" smooth="yes"/>
      <point x="190" y="722" type="line"/>
      <point x="178" y="679" type="line"/>
      <point x="214" y="677"/>
      <point x="225" y="665"/>
      <point x="225" y="630" type="curve" smooth="yes"/>
      <point x="225" y="612"/>
      <point x="222" y="595"/>
      <point x="208" y="543" type="curve" smooth="yes"/>
      <point x="180" y="439" type="line" smooth="yes"/>
      <point x="171" y="406"/>
      <point x="167" y="386"/>
      <point x="167" y="374" type="curve" smooth="yes"/>
      <point x="167" y="341"/>
      <point x="188" y="320"/>
      <point x="232" y="307" type="curve"/>
      <point x="166" y="292"/>
      <point x="134" y="259"/>
      <point x="111" y="182" type="curve" smooth="yes"/>
      <point x="78" y="61" type="line" smooth="yes"/>
      <point x="53" y="-31"/>
      <point x="31" y="-60"/>
      <point x="-18" y="-65" type="curve"/>
      <point x="-30" y="-108" type="line"/>
      <point x="1" y="-108" type="line" smooth="yes"/>
      <point x="96" y="-108"/>
      <point x="140" y="-69"/>
      <point x="170" y="42" type="curve" smooth="yes"/>
      <point x="200" y="152" type="line" smooth="yes"/>
      <point x="220" y="242"/>
      <point x="244" y="271"/>
      <point x="310" y="285" type="curve"/>
    </contour>
  </outline>
</glyph>
<glyph name="exclamdown" format="1">
  <advance width="333"/>
  <unicode hex="00A1"/>
  <outline>
    <contour>
      <point x="145" y="331" type="line"/>
      <point x="100" y="199"/>
      <point x="76" y="140"/>
      <point x="16" y="20" type="curve" smooth="yes"/>
      <point x="-39" y="-91"/>
      <point x="-39" y="-91"/>
      <point x="-39" y="-123" type="curve" smooth="yes"/>
      <point x="-39" y="-170"/>
      <point x="1" y="-203"/>
      <point x="59" y="-203" type="curve" smooth="yes"/>
      <point x="84" y="-203"/>
      <point x="107" y="-190"/>
      <point x="122" y="-168" type="curve" smooth="yes"/>
      <point x="139" y="-143"/>
      <point x="142" y="-123"/>
      <point x="146" y="-33" type="curve" smooth="yes"/>
      <point x="150" y="66"/>
      <point x="167" y="183"/>
      <point x="197" y="318" type="curve"/>
    </contour>
    <contour>
      <point x="203" y="549" type="curve" smooth="yes"/>
      <point x="154" y="549"/>
      <point x="115" y="510"/>
      <point x="115" y="462" type="curve" smooth="yes"/>
      <point x="115" y="414"/>
      <point x="154" y="375"/>
      <point x="202" y="375" type="curve" smooth="yes"/>
      <point x="250" y="375"/>
      <point x="289" y="414"/>
      <point x="289" y="462" type="curve" smooth="yes"/>
      <point x="289" y="509"/>
      <point x="250" y="549"/>
    </contour>
  </outline>
</glyph>
<glyph name="cent" format="1">
  <advance width="574"/>
  <unicode hex="00A2"/>
  <outline>
    <contour>
      <point x="243" y="-15" type="line"/>
      <point x="335" y="-10"/>
      <point x="384" y="18"/>
      <point x="464" y="109" type="curve" smooth="yes"/>
      <point x="470" y="116" type="line"/>
      <point x="434" y="147" type="line"/>
      <point x="400" y="112"/>
      <point x="388" y="100"/>
      <point x="373" y="88" type="curve" smooth="yes"/>
      <point x="341" y="62"/>
      <point x="308" y="48"/>
      <point x="278" y="48" type="curve" smooth="yes"/>
      <point x="271" y="48" type="line"/>
      <point x="374" y="278" type="line"/>
      <point x="389" y="265"/>
      <point x="406" y="259"/>
      <point x="427" y="259" type="curve" smooth="yes"/>
      <point x="478" y="259"/>
      <point x="514" y="297"/>
      <point x="514" y="351" type="curve" smooth="yes"/>
      <point x="514" y="395"/>
      <point x="492" y="434"/>
      <point x="454" y="457" type="curve"/>
      <point x="511" y="586" type="line"/>
      <point x="457" y="586" type="line"/>
      <point x="408" y="476" type="line"/>
      <point x="386" y="481"/>
      <point x="365" y="484"/>
      <point x="343" y="484" type="curve" smooth="yes"/>
      <point x="175" y="484"/>
      <point x="30" y="340"/>
      <point x="30" y="174" type="curve" smooth="yes"/>
      <point x="30" y="80"/>
      <point x="103" y="-5"/>
      <point x="190" y="-12" type="curve"/>
      <point x="134" y="-137" type="line"/>
      <point x="188" y="-137" type="line"/>
    </contour>
    <contour>
      <point x="225" y="66" type="line"/>
      <point x="205" y="86"/>
      <point x="194" y="112"/>
      <point x="194" y="145" type="curve" smooth="yes"/>
      <point x="194" y="198"/>
      <point x="216" y="285"/>
      <point x="244" y="341" type="curve" smooth="yes"/>
      <point x="275" y="404"/>
      <point x="315" y="437"/>
      <point x="359" y="437" type="curve" smooth="yes"/>
      <point x="381" y="437"/>
      <point x="403" y="424"/>
      <point x="403" y="411" type="curve" smooth="yes"/>
      <point x="403" y="409"/>
      <point x="400" y="405"/>
      <point x="397" y="403" type="curve" smooth="yes"/>
      <point x="374" y="389"/>
      <point x="367" y="381"/>
      <point x="357" y="360" type="curve" smooth="yes"/>
    </contour>
  </outline>
</glyph>
<glyph name="sterling" format="1">
  <advance width="574"/>
  <unicode hex="00A3"/>
  <outline>
    <contour>
      <point x="435" y="376" type="line"/>
      <point x="298" y="376" type="line"/>
      <point x="296" y="420"/>
      <point x="296" y="432"/>
      <point x="296" y="444" type="curve" smooth="yes"/>
      <point x="296" y="574"/>
      <point x="341" y="655"/>
      <point x="415" y="655" type="curve" smooth="yes"/>
      <point x="442" y="655"/>
      <point x="461" y="644"/>
      <point x="461" y="627" type="curve" smooth="yes"/>
      <point x="461" y="620"/>
      <point x="458" y="615"/>
      <point x="450" y="609" type="curve" smooth="yes"/>
      <point x="414" y="584"/>
      <point x="403" y="567"/>
      <point x="403" y="538" type="curve" smooth="yes"/>
      <point x="403" y="498"/>
      <point x="435" y="469"/>
      <point x="479" y="469" type="curve" smooth="yes"/>
      <point x="530" y="469"/>
      <point x="566" y="509"/>
      <point x="566" y="564" type="curve" smooth="yes"/>
      <point x="566" y="648"/>
      <point x="497" y="705"/>
      <point x="396" y="705" type="curve" smooth="yes"/>
      <point x="243" y="705"/>
      <point x="139" y="589"/>
      <point x="139" y="421" type="curve" smooth="yes"/>
      <point x="140" y="376" type="line"/>
      <point x="26" y="376" type="line"/>
      <point x="18" y="319" type="line"/>
      <point x="148" y="319" type="line"/>
      <point x="160" y="280"/>
      <point x="168" y="232"/>
      <point x="168" y="197" type="curve" smooth="yes"/>
      <point x="168" y="188"/>
      <point x="167" y="174"/>
      <point x="165" y="156" type="curve"/>
      <point x="132" y="164"/>
      <point x="110" y="168"/>
      <point x="89" y="168" type="curve" smooth="yes"/>
      <point x="27" y="168"/>
      <point x="-18" y="128"/>
      <point x="-18" y="72" type="curve" smooth="yes"/>
      <point x="-18" y="20"/>
      <point x="20" y="-15"/>
      <point x="77" y="-15" type="curve" smooth="yes"/>
      <point x="125" y="-15"/>
      <point x="160" y="4"/>
      <point x="197" y="49" type="curve"/>
      <point x="244" y="6"/>
      <point x="295" y="-15"/>
      <point x="351" y="-15" type="curve" smooth="yes"/>
      <point x="414" y="-15"/>
      <point x="458" y="12"/>
      <point x="497" y="76" type="curve" smooth="yes"/>
      <point x="517" y="109"/>
      <point x="530" y="139"/>
      <point x="542" y="180" type="curve"/>
      <point x="499" y="200" type="line"/>
      <point x="473" y="145"/>
      <point x="428" y="115"/>
      <point x="369" y="115" type="curve" smooth="yes"/>
      <point x="329" y="115"/>
      <point x="283" y="123"/>
      <point x="249" y="136" type="curve"/>
      <point x="282" y="205"/>
      <point x="295" y="253"/>
      <point x="298" y="319" type="curve"/>
      <point x="426" y="319" type="line"/>
    </contour>
    <contour>
      <point x="146" y="84" type="line"/>
      <point x="126" y="42"/>
      <point x="108" y="28"/>
      <point x="75" y="28" type="curve" smooth="yes"/>
      <point x="47" y="28"/>
      <point x="29" y="46"/>
      <point x="29" y="74" type="curve" smooth="yes"/>
      <point x="29" y="99"/>
      <point x="46" y="118"/>
      <point x="69" y="118" type="curve" smooth="yes"/>
      <point x="90" y="118"/>
      <point x="116" y="107"/>
      <point x="140" y="89" type="curve"/>
    </contour>
  </outline>
</glyph>
<glyph name="currency" format="1">
  <advance width="574"/>
  <unicode hex="00A4"/>
  <outline>
    <contour>
      <point x="160" y="141" type="line"/>
      <point x="205" y="114"/>
      <point x="246" y="102"/>
      <point x="293" y="102" type="curve" smooth="yes"/>
      <point x="340" y="102"/>
      <point x="381" y="114"/>
      <point x="426" y="140" type="curve"/>
      <point x="469" y="97" type="line"/>
      <point x="546" y="175" type="line"/>
      <point x="503" y="218" type="line"/>
      <point x="528" y="258"/>
      <point x="541" y="304"/>
      <point x="541" y="350" type="curve" smooth="yes"/>
      <point x="541" y="397"/>
      <point x="527" y="445"/>
      <point x="503" y="483" type="curve"/>
      <point x="546" y="526" type="line"/>
      <point x="468" y="603" type="line"/>
      <point x="426" y="561" type="line"/>
      <point x="381" y="587"/>
      <point x="341" y="599"/>
      <point x="294" y="599" type="curve" smooth="yes"/>
      <point x="246" y="599"/>
      <point x="198" y="585"/>
      <point x="160" y="560" type="curve"/>
      <point x="117" y="603" type="line"/>
      <point x="40" y="526" type="line"/>
      <point x="83" y="483" type="line"/>
      <point x="60" y="449"/>
      <point x="45" y="396"/>
      <point x="45" y="350" type="curve" smooth="yes"/>
      <point x="45" y="304"/>
      <point x="59" y="255"/>
      <point x="83" y="218" type="curve"/>
      <point x="41" y="176" type="line"/>
      <point x="118" y="98" type="line"/>
    </contour>
    <contour>
      <point x="293" y="478" type="curve" smooth="yes"/>
      <point x="363" y="478"/>
      <point x="420" y="421"/>
      <point x="420" y="351" type="curve" smooth="yes"/>
      <point x="420" y="280"/>
      <point x="363" y="223"/>
      <point x="292" y="223" type="curve" smooth="yes"/>
      <point x="223" y="223"/>
      <point x="166" y="281"/>
      <point x="166" y="351" type="curve" smooth="yes"/>
      <point x="166" y="421"/>
      <point x="223" y="478"/>
    </contour>
  </outline>
</glyph>
<glyph name="yen" format="1">
  <advance width="574"/>
  <unicode hex="00A5"/>
  <outline>
    <contour>
      <point x="385" y="375" type="line"/>
      <point x="509" y="552" type="line" smooth="yes"/>
      <point x="557" y="617"/>
      <point x="578" y="635"/>
      <point x="628" y="652" type="curve"/>
      <point x="635" y="706" type="line"/>
      <point x="404" y="706" type="line"/>
      <point x="397" y="652" type="line"/>
      <point x="413" y="652" type="line" smooth="yes"/>
      <point x="448" y="652"/>
      <point x="470" y="638"/>
      <point x="470" y="617" type="curve" smooth="yes"/>
      <point x="470" y="606"/>
      <point x="464" y="590"/>
      <point x="453" y="573" type="curve" smooth="yes"/>
      <point x="328" y="384" type="line"/>
      <point x="256" y="594" type="line" smooth="yes"/>
      <point x="247" y="620"/>
      <point x="247" y="620"/>
      <point x="247" y="628" type="curve" smooth="yes"/>
      <point x="247" y="647"/>
      <point x="257" y="652"/>
      <point x="291" y="652" type="curve" smooth="yes"/>
      <point x="313" y="652" type="line"/>
      <point x="321" y="706" type="line"/>
      <point x="30" y="706" type="line"/>
      <point x="23" y="652" type="line"/>
      <point x="72" y="652"/>
      <point x="90" y="641"/>
      <point x="107" y="595" type="curve" smooth="yes"/>
      <point x="185" y="375" type="line"/>
      <point x="60" y="375" type="line"/>
      <point x="54" y="329" type="line"/>
      <point x="201" y="329" type="line"/>
      <point x="179" y="244" type="line"/>
      <point x="31" y="244" type="line"/>
      <point x="25" y="198" type="line"/>
      <point x="166" y="198" type="line"/>
      <point x="152" y="145" type="line" smooth="yes"/>
      <point x="134" y="76"/>
      <point x="134" y="76"/>
      <point x="125" y="68" type="curve"/>
      <point x="116" y="59"/>
      <point x="90" y="54"/>
      <point x="56" y="54" type="curve" smooth="yes"/>
      <point x="44" y="54" type="line"/>
      <point x="36" y="0" type="line"/>
      <point x="374" y="0" type="line"/>
      <point x="382" y="54" type="line"/>
      <point x="369" y="54" type="line" smooth="yes"/>
      <point x="304" y="54"/>
      <point x="290" y="59"/>
      <point x="290" y="81" type="curve" smooth="yes"/>
      <point x="290" y="90"/>
      <point x="294" y="109"/>
      <point x="304" y="145" type="curve" smooth="yes"/>
      <point x="318" y="198" type="line"/>
      <point x="469" y="198" type="line"/>
      <point x="475" y="244" type="line"/>
      <point x="330" y="244" type="line"/>
      <point x="353" y="329" type="line"/>
      <point x="510" y="329" type="line"/>
      <point x="516" y="375" type="line"/>
    </contour>
  </outline>
</glyph>
<glyph name="brokenbar" format="1">
  <advance width="606"/>
  <unicode hex="00A6"/>
  <outline>
    <contour>
      <point x="343" y="722" type="line"/>
      <point x="262" y="722" type="line"/>
      <point x="262" y="400" type="line"/>
      <point x="343" y="400" type="line"/>
    </contour>
    <contour>
      <point x="343" y="322" type="line"/>
      <point x="262" y="322" type="line"/>
      <point x="262" y="0" type="line"/>
      <point x="343" y="0" type="line"/>
    </contour>
  </outline>
</glyph>
<glyph name="section" format="1">
  <advance width="500"/>
  <unicode hex="00A7"/>
  <outline>
    <contour>
      <point x="269" y="141" type="curve"/>
      <point x="278" y="140"/>
      <point x="283" y="140"/>
      <point x="289" y="140" type="curve" smooth="yes"/>
      <point x="376" y="140"/>
      <point x="455" y="215"/>
      <point x="455" y="297" type="curve" smooth="yes"/>
      <point x="455" y="347"/>
      <point x="434" y="384"/>
      <point x="361" y="463" type="curve" smooth="yes"/>
      <point x="272" y="559"/>
      <point x="251" y="591"/>
      <point x="251" y="628" type="curve" smooth="yes"/>
      <point x="251" y="667"/>
      <point x="290" y="698"/>
      <point x="339" y="698" type="curve" smooth="yes"/>
      <point x="369" y="698"/>
      <point x="400" y="687"/>
      <point x="400" y="676" type="curve" smooth="yes"/>
      <point x="400" y="673"/>
      <point x="398" y="671"/>
      <point x="392" y="666" type="curve" smooth="yes"/>
      <point x="371" y="649"/>
      <point x="361" y="630"/>
      <point x="361" y="610" type="curve" smooth="yes"/>
      <point x="361" y="572"/>
      <point x="391" y="545"/>
      <point x="431" y="545" type="curve" smooth="yes"/>
      <point x="473" y="545"/>
      <point x="505" y="576"/>
      <point x="505" y="616" type="curve" smooth="yes"/>
      <point x="505" y="685"/>
      <point x="431" y="737"/>
      <point x="333" y="737" type="curve" smooth="yes"/>
      <point x="222" y="737"/>
      <point x="143" y="670"/>
      <point x="143" y="576" type="curve" smooth="yes"/>
      <point x="143" y="535"/>
      <point x="155" y="506"/>
      <point x="193" y="453" type="curve"/>
      <point x="182" y="454"/>
      <point x="172" y="455"/>
      <point x="166" y="455" type="curve" smooth="yes"/>
      <point x="81" y="455"/>
      <point x="8" y="382"/>
      <point x="8" y="297" type="curve" smooth="yes"/>
      <point x="8" y="250"/>
      <point x="26" y="214"/>
      <point x="79" y="157" type="curve" smooth="yes"/>
      <point x="194" y="34"/>
      <point x="213" y="6"/>
      <point x="213" y="-36" type="curve" smooth="yes"/>
      <point x="213" y="-77"/>
      <point x="180" y="-104"/>
      <point x="129" y="-104" type="curve" smooth="yes"/>
      <point x="96" y="-104"/>
      <point x="62" y="-91"/>
      <point x="62" y="-79" type="curve" smooth="yes"/>
      <point x="62" y="-76"/>
      <point x="65" y="-73"/>
      <point x="73" y="-67" type="curve" smooth="yes"/>
      <point x="93" y="-52"/>
      <point x="101" y="-37"/>
      <point x="101" y="-15" type="curve" smooth="yes"/>
      <point x="101" y="22"/>
      <point x="70" y="51"/>
      <point x="30" y="51" type="curve" smooth="yes"/>
      <point x="-12" y="51"/>
      <point x="-40" y="20"/>
      <point x="-40" y="-26" type="curve" smooth="yes"/>
      <point x="-40" y="-92"/>
      <point x="35" y="-144"/>
      <point x="131" y="-144" type="curve" smooth="yes"/>
      <point x="239" y="-144"/>
      <point x="322" y="-72"/>
      <point x="322" y="21" type="curve" smooth="yes"/>
      <point x="322" y="63"/>
      <point x="307" y="98"/>
    </contour>
    <contour>
      <point x="177" y="417" type="curve" smooth="yes"/>
      <point x="207" y="417"/>
      <point x="239" y="396"/>
      <point x="287" y="342" type="curve" smooth="yes"/>
      <point x="331" y="292"/>
      <point x="348" y="262"/>
      <point x="348" y="235" type="curve" smooth="yes"/>
      <point x="348" y="204"/>
      <point x="319" y="180"/>
      <point x="283" y="180" type="curve" smooth="yes"/>
      <point x="251" y="180"/>
      <point x="228" y="196"/>
      <point x="170" y="260" type="curve" smooth="yes"/>
      <point x="127" y="309"/>
      <point x="115" y="330"/>
      <point x="115" y="359" type="curve" smooth="yes"/>
      <point x="115" y="392"/>
      <point x="141" y="417"/>
    </contour>
  </outline>
</glyph>
<glyph name="dieresis" format="1">
  <advance width="333"/>
  <unicode hex="00A8"/>
  <outline>
    <contour>
      <point x="106" y="685" type="curve" smooth="yes"/>
      <point x="66" y="685"/>
      <point x="34" y="653"/>
      <point x="34" y="614" type="curve" smooth="yes"/>
      <point x="34" y="575"/>
      <point x="66" y="542"/>
      <point x="105" y="542" type="curve" smooth="yes"/>
      <point x="145" y="542"/>
      <point x="177" y="574"/>
      <point x="177" y="614" type="curve" smooth="yes"/>
      <point x="177" y="653"/>
      <point x="145" y="685"/>
    </contour>
    <contour>
      <point x="321" y="685" type="curve" smooth="yes"/>
      <point x="281" y="685"/>
      <point x="249" y="653"/>
      <point x="249" y="614" type="curve" smooth="yes"/>
      <point x="249" y="575"/>
      <point x="281" y="542"/>
      <point x="320" y="542" type="curve" smooth="yes"/>
      <point x="360" y="542"/>
      <point x="392" y="574"/>
      <point x="392" y="614" type="curve" smooth="yes"/>
      <point x="392" y="653"/>
      <point x="360" y="685"/>
    </contour>
  </outline>
</glyph>
<glyph name="copyright" format="1">
  <advance width="747"/>
  <unicode hex="00A9"/>
  <outline>
    <contour>
      <point x="524" y="526" type="line"/>
      <point x="497" y="526" type="line"/>
      <point x="470" y="502" type="line"/>
      <point x="439" y="521"/>
      <point x="414" y="528"/>
      <point x="378" y="528" type="curve" smooth="yes"/>
      <point x="264" y="528"/>
      <point x="183" y="445"/>
      <point x="183" y="329" type="curve" smooth="yes"/>
      <point x="183" y="217"/>
      <point x="260" y="140"/>
      <point x="372" y="140" type="curve" smooth="yes"/>
      <point x="464" y="140"/>
      <point x="518" y="185"/>
      <point x="537" y="281" type="curve"/>
      <point x="498" y="290" type="line"/>
      <point x="484" y="218"/>
      <point x="446" y="179"/>
      <point x="389" y="179" type="curve" smooth="yes"/>
      <point x="323" y="179"/>
      <point x="292" y="230"/>
      <point x="292" y="338" type="curve" smooth="yes"/>
      <point x="292" y="441"/>
      <point x="323" y="493"/>
      <point x="383" y="493" type="curve" smooth="yes"/>
      <point x="437" y="493"/>
      <point x="472" y="455"/>
      <point x="495" y="371" type="curve"/>
      <point x="529" y="374" type="line"/>
    </contour>
    <contour>
      <point x="373" y="685" type="curve" smooth="yes"/>
      <point x="180" y="685"/>
      <point x="23" y="528"/>
      <point x="23" y="335" type="curve" smooth="yes"/>
      <point x="23" y="144"/>
      <point x="180" y="-15"/>
      <point x="369" y="-15" type="curve" smooth="yes"/>
      <point x="567" y="-15"/>
      <point x="723" y="140"/>
      <point x="723" y="336" type="curve" smooth="yes"/>
      <point x="723" y="528"/>
      <point x="566" y="685"/>
    </contour>
    <contour>
      <point x="374" y="633" type="curve" smooth="yes"/>
      <point x="533" y="633"/>
      <point x="664" y="499"/>
      <point x="664" y="336" type="curve" smooth="yes"/>
      <point x="664" y="169"/>
      <point x="534" y="37"/>
      <point x="370" y="37" type="curve" smooth="yes"/>
      <point x="214" y="37"/>
      <point x="83" y="173"/>
      <point x="83" y="335" type="curve" smooth="yes"/>
      <point x="83" y="499"/>
      <point x="213" y="633"/>
    </contour>
  </outline>
</glyph>
<glyph name="ordfeminine" format="1">
  <advance width="412"/>
  <unicode hex="00AA"/>
  <outline>
    <contour>
      <point x="312" y="728" type="line"/>
      <point x="302" y="700" type="line"/>
      <point x="286" y="724"/>
      <point x="258" y="737"/>
      <point x="220" y="737" type="curve" smooth="yes"/>
      <point x="121" y="737"/>
      <point x="29" y="648"/>
      <point x="29" y="551" type="curve" smooth="yes"/>
      <point x="29" y="487"/>
      <point x="77" y="442"/>
      <point x="145" y="442" type="curve" smooth="yes"/>
      <point x="188" y="442"/>
      <point x="217" y="455"/>
      <point x="253" y="493" type="curve"/>
      <point x="252" y="491"/>
      <point x="252" y="489"/>
      <point x="252" y="488" type="curve"/>
      <point x="251" y="463"/>
      <point x="276" y="442"/>
      <point x="308" y="442" type="curve" smooth="yes"/>
      <point x="355" y="442"/>
      <point x="408" y="481"/>
      <point x="449" y="545" type="curve"/>
      <point x="423" y="559" type="line"/>
      <point x="399" y="526"/>
      <point x="364" y="492"/>
      <point x="353" y="492" type="curve" smooth="yes"/>
      <point x="349" y="492"/>
      <point x="344" y="497"/>
      <point x="344" y="502" type="curve" smooth="yes"/>
      <point x="344" y="506"/>
      <point x="344" y="506"/>
      <point x="351" y="529" type="curve" smooth="yes"/>
      <point x="417" y="728" type="line"/>
    </contour>
    <contour>
      <point x="241" y="704" type="curve" smooth="yes"/>
      <point x="265" y="704"/>
      <point x="282" y="686"/>
      <point x="282" y="661" type="curve" smooth="yes"/>
      <point x="282" y="631"/>
      <point x="267" y="580"/>
      <point x="248" y="542" type="curve" smooth="yes"/>
      <point x="228" y="505"/>
      <point x="204" y="484"/>
      <point x="179" y="484" type="curve" smooth="yes"/>
      <point x="154" y="484"/>
      <point x="138" y="502"/>
      <point x="138" y="531" type="curve" smooth="yes"/>
      <point x="138" y="563"/>
      <point x="151" y="610"/>
      <point x="170" y="647" type="curve" smooth="yes"/>
      <point x="191" y="685"/>
      <point x="214" y="704"/>
    </contour>
    <contour>
      <point x="29" y="293" type="line"/>
      <point x="375" y="293" type="line"/>
      <point x="391" y="351" type="line"/>
      <point x="45" y="351" type="line"/>
    </contour>
  </outline>
</glyph>
<glyph name="guillemotleft" format="1">
  <advance width="481"/>
  <unicode hex="00AB"/>
  <outline>
    <contour>
      <point x="80" y="247" type="line"/>
      <point x="215" y="389" type="line"/>
      <point x="221" y="396"/>
      <point x="224" y="401"/>
      <point x="224" y="405" type="curve" smooth="yes"/>
      <point x="224" y="412"/>
      <point x="217" y="419"/>
      <point x="210" y="419" type="curve" smooth="yes"/>
      <point x="205" y="419"/>
      <point x="200" y="417"/>
      <point x="194" y="413" type="curve" smooth="yes"/>
      <point x="-28" y="253" type="line"/>
      <point x="-33" y="250"/>
      <point x="-35" y="248"/>
      <point x="-35" y="245" type="curve" smooth="yes"/>
      <point x="-35" y="243"/>
      <point x="-33" y="240"/>
      <point x="-30" y="237" type="curve" smooth="yes"/>
      <point x="130" y="86" type="line" smooth="yes"/>
      <point x="136" y="80"/>
      <point x="141" y="78"/>
      <point x="146" y="78" type="curve" smooth="yes"/>
      <point x="153" y="78"/>
      <point x="158" y="84"/>
      <point x="158" y="90" type="curve" smooth="yes"/>
      <point x="158" y="93"/>
      <point x="157" y="97"/>
      <point x="155" y="100" type="curve"/>
    </contour>
    <contour>
      <point x="283" y="247" type="line"/>
      <point x="418" y="389" type="line"/>
      <point x="424" y="396"/>
      <point x="427" y="401"/>
      <point x="427" y="405" type="curve" smooth="yes"/>
      <point x="427" y="412"/>
      <point x="420" y="419"/>
      <point x="413" y="419" type="curve" smooth="yes"/>
      <point x="408" y="419"/>
      <point x="403" y="417"/>
      <point x="397" y="413" type="curve" smooth="yes"/>
      <point x="175" y="253" type="line"/>
      <point x="170" y="250"/>
      <point x="168" y="248"/>
      <point x="168" y="245" type="curve" smooth="yes"/>
      <point x="168" y="243"/>
      <point x="170" y="240"/>
      <point x="173" y="237" type="curve" smooth="yes"/>
      <point x="333" y="86" type="line" smooth="yes"/>
      <point x="339" y="80"/>
      <point x="344" y="78"/>
      <point x="349" y="78" type="curve" smooth="yes"/>
      <point x="356" y="78"/>
      <point x="361" y="84"/>
      <point x="361" y="90" type="curve" smooth="yes"/>
      <point x="361" y="93"/>
      <point x="360" y="97"/>
      <point x="358" y="100" type="curve"/>
    </contour>
  </outline>
</glyph>
<glyph name="registered" format="1">
  <advance width="747"/>
  <unicode hex="00AE"/>
  <outline>
    <contour>
      <point x="333" y="323" type="line"/>
      <point x="357" y="323" type="line" smooth="yes"/>
      <point x="397" y="323"/>
      <point x="407" y="312"/>
      <point x="411" y="267" type="curve" smooth="yes"/>
      <point x="413" y="233"/>
      <point x="416" y="212"/>
      <point x="418" y="203" type="curve" smooth="yes"/>
      <point x="427" y="162"/>
      <point x="457" y="140"/>
      <point x="502" y="140" type="curve" smooth="yes"/>
      <point x="558" y="140"/>
      <point x="592" y="173"/>
      <point x="592" y="227" type="curve" smooth="yes"/>
      <point x="592" y="238" type="line"/>
      <point x="557" y="238" type="line"/>
      <point x="557" y="207"/>
      <point x="551" y="192"/>
      <point x="538" y="192" type="curve" smooth="yes"/>
      <point x="532" y="192"/>
      <point x="527" y="195"/>
      <point x="524" y="200" type="curve"/>
      <point x="524" y="202"/>
      <point x="522" y="213"/>
      <point x="518" y="232" type="curve"/>
      <point x="515" y="252" type="line" smooth="yes"/>
      <point x="508" y="293"/>
      <point x="489" y="319"/>
      <point x="454" y="333" type="curve"/>
      <point x="484" y="339"/>
      <point x="497" y="344"/>
      <point x="511" y="355" type="curve" smooth="yes"/>
      <point x="533" y="372"/>
      <point x="545" y="397"/>
      <point x="545" y="425" type="curve" smooth="yes"/>
      <point x="545" y="457"/>
      <point x="529" y="485"/>
      <point x="503" y="502" type="curve" smooth="yes"/>
      <point x="482" y="515"/>
      <point x="450" y="521"/>
      <point x="401" y="521" type="curve" smooth="yes"/>
      <point x="181" y="521" type="line"/>
      <point x="181" y="486" type="line"/>
      <point x="192" y="486" type="line" smooth="yes"/>
      <point x="217" y="486"/>
      <point x="228" y="484"/>
      <point x="231" y="480" type="curve"/>
      <point x="234" y="477"/>
      <point x="234" y="477"/>
      <point x="234" y="444" type="curve" smooth="yes"/>
      <point x="234" y="225" type="line" smooth="yes"/>
      <point x="234" y="192"/>
      <point x="234" y="192"/>
      <point x="231" y="189" type="curve" smooth="yes"/>
      <point x="227" y="185"/>
      <point x="217" y="183"/>
      <point x="192" y="183" type="curve" smooth="yes"/>
      <point x="181" y="183" type="line"/>
      <point x="181" y="148" type="line"/>
      <point x="391" y="148" type="line"/>
      <point x="391" y="183" type="line"/>
      <point x="374" y="183" type="line" smooth="yes"/>
      <point x="350" y="183"/>
      <point x="339" y="185"/>
      <point x="336" y="189" type="curve"/>
      <point x="333" y="192"/>
      <point x="333" y="194"/>
      <point x="333" y="225" type="curve" smooth="yes"/>
    </contour>
    <contour>
      <point x="333" y="358" type="line"/>
      <point x="333" y="457" type="line" smooth="yes"/>
      <point x="333" y="484"/>
      <point x="335" y="486"/>
      <point x="365" y="486" type="curve" smooth="yes"/>
      <point x="377" y="486" type="line" smooth="yes"/>
      <point x="422" y="486"/>
      <point x="441" y="467"/>
      <point x="441" y="422" type="curve" smooth="yes"/>
      <point x="441" y="373"/>
      <point x="421" y="358"/>
      <point x="357" y="358" type="curve" smooth="yes"/>
    </contour>
    <contour>
      <point x="373" y="685" type="curve" smooth="yes"/>
      <point x="180" y="685"/>
      <point x="23" y="528"/>
      <point x="23" y="335" type="curve" smooth="yes"/>
      <point x="23" y="144"/>
      <point x="180" y="-15"/>
      <point x="369" y="-15" type="curve" smooth="yes"/>
      <point x="567" y="-15"/>
      <point x="723" y="140"/>
      <point x="723" y="336" type="curve" smooth="yes"/>
      <point x="723" y="528"/>
      <point x="566" y="685"/>
    </contour>
    <contour>
      <point x="374" y="633" type="curve" smooth="yes"/>
      <point x="533" y="633"/>
      <point x="664" y="499"/>
      <point x="664" y="336" type="curve" smooth="yes"/>
      <point x="664" y="169"/>
      <point x="534" y="37"/>
      <point x="370" y="37" type="curve" smooth="yes"/>
      <point x="214" y="37"/>
      <point x="83" y="173"/>
      <point x="83" y="335" type="curve" smooth="yes"/>
      <point x="83" y="499"/>
      <point x="213" y="633"/>
    </contour>
  </outline>
</glyph>
<glyph name="macron" format="1">
  <advance width="333"/>
  <unicode hex="00AF"/>
  <outline>
    <contour>
      <point x="53" y="642" type="line"/>
      <point x="32" y="566" type="line"/>
      <point x="366" y="566" type="line"/>
      <point x="387" y="642" type="line"/>
    </contour>
  </outline>
</glyph>
<glyph name="degree" format="1">
  <advance width="400"/>
  <unicode hex="00B0"/>
  <outline>
    <contour>
      <point x="223" y="686" type="curve" smooth="yes"/>
      <point x="138" y="686"/>
      <point x="70" y="619"/>
      <point x="70" y="534" type="curve" smooth="yes"/>
      <point x="70" y="448"/>
      <point x="136" y="380"/>
      <point x="220" y="380" type="curve" smooth="yes"/>
      <point x="304" y="380"/>
      <point x="370" y="447"/>
      <point x="370" y="533" type="curve" smooth="yes"/>
      <point x="370" y="619"/>
      <point x="306" y="686"/>
    </contour>
    <contour>
      <point x="222" y="629" type="curve" smooth="yes"/>
      <point x="272" y="629"/>
      <point x="313" y="586"/>
      <point x="313" y="533" type="curve" smooth="yes"/>
      <point x="313" y="479"/>
      <point x="272" y="437"/>
      <point x="220" y="437" type="curve" smooth="yes"/>
      <point x="169" y="437"/>
      <point x="126" y="480"/>
      <point x="126" y="533" type="curve" smooth="yes"/>
      <point x="126" y="586"/>
      <point x="168" y="629"/>
    </contour>
  </outline>
</glyph>
<glyph name="plusminus" format="1">
  <advance width="606"/>
  <unicode hex="00B1"/>
  <outline>
    <contour>
      <point x="236" y="300" type="line"/>
      <point x="236" y="158" type="line"/>
      <point x="351" y="158" type="line"/>
      <point x="351" y="300" type="line"/>
      <point x="545" y="300" type="line"/>
      <point x="545" y="415" type="line"/>
      <point x="351" y="415" type="line"/>
      <point x="351" y="610" type="line"/>
      <point x="236" y="610" type="line"/>
      <point x="236" y="415" type="line"/>
      <point x="41" y="415" type="line"/>
      <point x="41" y="300" type="line"/>
    </contour>
    <contour>
      <point x="41" y="0" type="line"/>
      <point x="545" y="0" type="line"/>
      <point x="545" y="115" type="line"/>
      <point x="41" y="115" type="line"/>
    </contour>
  </outline>
</glyph>
<glyph name="acute" format="1">
  <advance width="333"/>
  <unicode hex="00B4"/>
  <outline>
    <contour>
      <point x="123" y="535" type="line"/>
      <point x="177" y="535" type="line"/>
      <point x="343" y="623" type="line" smooth="yes"/>
      <point x="361" y="633"/>
      <point x="371" y="648"/>
      <point x="371" y="667" type="curve" smooth="yes"/>
      <point x="371" y="696"/>
      <point x="347" y="719"/>
      <point x="317" y="719" type="curve" smooth="yes"/>
      <point x="293" y="719"/>
      <point x="281" y="711"/>
      <point x="247" y="674" type="curve" smooth="yes"/>
    </contour>
  </outline>
</glyph>
<glyph name="paragraph" format="1">
  <advance width="650"/>
  <unicode hex="00B6"/>
  <outline>
    <contour>
      <point x="252" y="325" type="line"/>
      <point x="164" y="-3" type="line" smooth="yes"/>
      <point x="149" y="-60"/>
      <point x="149" y="-60"/>
      <point x="145" y="-68" type="curve"/>
      <point x="137" y="-81"/>
      <point x="115" y="-90"/>
      <point x="88" y="-90" type="curve" smooth="yes"/>
      <point x="82" y="-90" type="line"/>
      <point x="67" y="-144" type="line"/>
      <point x="432" y="-144" type="line"/>
      <point x="446" y="-90" type="line"/>
      <point x="440" y="-90" type="line" smooth="yes"/>
      <point x="405" y="-90"/>
      <point x="389" y="-82"/>
      <point x="389" y="-68" type="curve" smooth="yes"/>
      <point x="389" y="-61"/>
      <point x="391" y="-52"/>
      <point x="394" y="-42" type="curve"/>
      <point x="394" y="-42"/>
      <point x="399" y="-21"/>
      <point x="404" y="-3" type="curve" smooth="yes"/>
      <point x="561" y="581" type="line" smooth="yes"/>
      <point x="578" y="646"/>
      <point x="578" y="646"/>
      <point x="587" y="654" type="curve" smooth="yes"/>
      <point x="595" y="661"/>
      <point x="622" y="668"/>
      <point x="643" y="668" type="curve" smooth="yes"/>
      <point x="646" y="668" type="line"/>
      <point x="661" y="722" type="line"/>
      <point x="372" y="722" type="line" smooth="yes"/>
      <point x="282" y="722"/>
      <point x="221" y="704"/>
      <point x="171" y="662" type="curve" smooth="yes"/>
      <point x="117" y="616"/>
      <point x="77" y="533"/>
      <point x="77" y="465" type="curve" smooth="yes"/>
      <point x="77" y="378"/>
      <point x="140" y="325"/>
      <point x="243" y="325" type="curve" smooth="yes"/>
    </contour>
    <contour>
      <point x="483" y="668" type="line"/>
      <point x="280" y="-89" type="line"/>
      <point x="242" y="-89" type="line"/>
      <point x="445" y="668" type="line"/>
    </contour>
  </outline>
</glyph>
<glyph name="periodcentered" format="1">
  <advance width="287"/>
  <unicode hex="00B7"/>
  <outline>
    <contour>
      <point x="128" y="345" type="curve" smooth="yes"/>
      <point x="80" y="345"/>
      <point x="41" y="306"/>
      <point x="41" y="258" type="curve" smooth="yes"/>
      <point x="41" y="211"/>
      <point x="80" y="171"/>
      <point x="127" y="171" type="curve" smooth="yes"/>
      <point x="176" y="171"/>
      <point x="215" y="210"/>
      <point x="215" y="258" type="curve" smooth="yes"/>
      <point x="215" y="306"/>
      <point x="176" y="345"/>
    </contour>
  </outline>
</glyph>
<glyph name="cedilla" format="1">
  <advance width="333"/>
  <unicode hex="00B8"/>
  <outline>
    <contour>
      <point x="38" y="0" type="line"/>
      <point x="-32" y="-89" type="line"/>
      <point x="-15" y="-106" type="line"/>
      <point x="0" y="-103"/>
      <point x="6" y="-102"/>
      <point x="14" y="-102" type="curve" smooth="yes"/>
      <point x="38" y="-102"/>
      <point x="56" y="-117"/>
      <point x="56" y="-137" type="curve" smooth="yes"/>
      <point x="56" y="-159"/>
      <point x="36" y="-175"/>
      <point x="7" y="-175" type="curve" smooth="yes"/>
      <point x="-14" y="-175"/>
      <point x="-33" y="-170"/>
      <point x="-65" y="-156" type="curve"/>
      <point x="-87" y="-191" type="line"/>
      <point x="-60" y="-210"/>
      <point x="-21" y="-220"/>
      <point x="22" y="-220" type="curve" smooth="yes"/>
      <point x="102" y="-220"/>
      <point x="157" y="-185"/>
      <point x="157" y="-133" type="curve" smooth="yes"/>
      <point x="157" y="-90"/>
      <point x="120" y="-58"/>
      <point x="71" y="-58" type="curve" smooth="yes"/>
      <point x="62" y="-58"/>
      <point x="51" y="-59"/>
      <point x="38" y="-61" type="curve"/>
      <point x="83" y="0" type="line"/>
    </contour>
  </outline>
</glyph>
<glyph name="ordmasculine" format="1">
  <advance width="356"/>
  <unicode hex="00BA"/>
  <outline>
    <contour>
      <point x="239" y="737" type="curve" smooth="yes"/>
      <point x="125" y="737"/>
      <point x="29" y="657"/>
      <point x="29" y="563" type="curve" smooth="yes"/>
      <point x="29" y="489"/>
      <point x="83" y="442"/>
      <point x="170" y="442" type="curve" smooth="yes"/>
      <point x="291" y="442"/>
      <point x="383" y="520"/>
      <point x="383" y="622" type="curve" smooth="yes"/>
      <point x="383" y="692"/>
      <point x="327" y="737"/>
    </contour>
    <contour>
      <point x="236" y="709" type="curve" smooth="yes"/>
      <point x="263" y="709"/>
      <point x="280" y="691"/>
      <point x="280" y="663" type="curve" smooth="yes"/>
      <point x="280" y="630"/>
      <point x="266" y="574"/>
      <point x="247" y="531" type="curve" smooth="yes"/>
      <point x="228" y="489"/>
      <point x="205" y="468"/>
      <point x="175" y="468" type="curve" smooth="yes"/>
      <point x="148" y="468"/>
      <point x="133" y="485"/>
      <point x="133" y="516" type="curve" smooth="yes"/>
      <point x="133" y="552"/>
      <point x="146" y="606"/>
      <point x="163" y="643" type="curve" smooth="yes"/>
      <point x="183" y="686"/>
      <point x="208" y="709"/>
    </contour>
    <contour>
      <point x="29" y="293" type="line"/>
      <point x="333" y="293" type="line"/>
      <point x="349" y="351" type="line"/>
      <point x="45" y="351" type="line"/>
    </contour>
  </outline>
</glyph>
<glyph name="onequarter" format="1">
  <advance width="861"/>
  <unicode hex="00BC"/>
  <outline>
    <contour>
      <point x="601" y="722" type="line"/>
      <point x="181" y="0" type="line"/>
      <point x="261" y="0" type="line"/>
      <point x="680" y="722" type="line"/>
    </contour>
    <contour>
      <point x="819" y="155" type="line"/>
      <point x="748" y="155" type="line"/>
      <point x="826" y="424" type="line"/>
      <point x="760" y="424" type="line"/>
      <point x="467" y="147" type="line"/>
      <point x="467" y="109" type="line"/>
      <point x="633" y="109" type="line"/>
      <point x="628" y="90" type="line" smooth="yes"/>
      <point x="616" y="50"/>
      <point x="616" y="50"/>
      <point x="612" y="46" type="curve"/>
      <point x="606" y="41"/>
      <point x="591" y="39"/>
      <point x="566" y="39" type="curve" smooth="yes"/>
      <point x="548" y="39" type="line"/>
      <point x="542" y="0" type="line"/>
      <point x="777" y="0" type="line"/>
      <point x="783" y="39" type="line"/>
      <point x="768" y="39" type="line" smooth="yes"/>
      <point x="729" y="39"/>
      <point x="721" y="41"/>
      <point x="721" y="52" type="curve" smooth="yes"/>
      <point x="721" y="57"/>
      <point x="723" y="67"/>
      <point x="729" y="88" type="curve" smooth="yes"/>
      <point x="735" y="109" type="line"/>
      <point x="811" y="109" type="line"/>
    </contour>
    <contour>
      <point x="646" y="155" type="line"/>
      <point x="535" y="155" type="line"/>
      <point x="688" y="303" type="line"/>
    </contour>
    <contour>
      <point x="323" y="706" type="line"/>
      <point x="292" y="706" type="line"/>
      <point x="261" y="685"/>
      <point x="179" y="665"/>
      <point x="112" y="663" type="curve"/>
      <point x="102" y="627" type="line"/>
      <point x="164" y="627" type="line" smooth="yes"/>
      <point x="184" y="627"/>
      <point x="190" y="624"/>
      <point x="190" y="614" type="curve" smooth="yes"/>
      <point x="190" y="609"/>
      <point x="188" y="600"/>
      <point x="186" y="592" type="curve" smooth="yes"/>
      <point x="125" y="371" type="line" smooth="yes"/>
      <point x="122" y="361"/>
      <point x="120" y="352"/>
      <point x="118" y="346" type="curve"/>
      <point x="112" y="324"/>
      <point x="106" y="321"/>
      <point x="63" y="321" type="curve" smooth="yes"/>
      <point x="26" y="321" type="line"/>
      <point x="21" y="282" type="line"/>
      <point x="294" y="282" type="line"/>
      <point x="299" y="321" type="line"/>
      <point x="271" y="321" type="line" smooth="yes"/>
      <point x="230" y="321"/>
      <point x="222" y="323"/>
      <point x="222" y="335" type="curve" smooth="yes"/>
      <point x="222" y="340"/>
      <point x="223" y="343"/>
      <point x="230" y="371" type="curve" smooth="yes"/>
    </contour>
  </outline>
</glyph>
<glyph name="onehalf" format="1">
  <advance width="861"/>
  <unicode hex="00BD"/>
  <outline>
    <contour>
      <point x="605" y="722" type="line"/>
      <point x="186" y="0" type="line"/>
      <point x="265" y="0" type="line"/>
      <point x="685" y="722" type="line"/>
    </contour>
    <contour>
      <point x="323" y="706" type="line"/>
      <point x="292" y="706" type="line"/>
      <point x="261" y="685"/>
      <point x="179" y="665"/>
      <point x="112" y="663" type="curve"/>
      <point x="102" y="627" type="line"/>
      <point x="164" y="627" type="line" smooth="yes"/>
      <point x="184" y="627"/>
      <point x="190" y="624"/>
      <point x="190" y="614" type="curve" smooth="yes"/>
      <point x="190" y="609"/>
      <point x="188" y="600"/>
      <point x="186" y="592" type="curve" smooth="yes"/>
      <point x="125" y="371" type="line" smooth="yes"/>
      <point x="122" y="361"/>
      <point x="120" y="352"/>
      <point x="118" y="346" type="curve"/>
      <point x="112" y="324"/>
      <point x="106" y="321"/>
      <point x="63" y="321" type="curve" smooth="yes"/>
      <point x="26" y="321" type="line"/>
      <point x="21" y="282" type="line"/>
      <point x="294" y="282" type="line"/>
      <point x="299" y="321" type="line"/>
      <point x="271" y="321" type="line" smooth="yes"/>
      <point x="230" y="321"/>
      <point x="222" y="323"/>
      <point x="222" y="335" type="curve" smooth="yes"/>
      <point x="222" y="340"/>
      <point x="223" y="343"/>
      <point x="230" y="371" type="curve" smooth="yes"/>
    </contour>
    <contour>
      <point x="803" y="154" type="line"/>
      <point x="795" y="139" type="line" smooth="yes"/>
      <point x="771" y="93"/>
      <point x="760" y="86"/>
      <point x="718" y="86" type="curve" smooth="yes"/>
      <point x="599" y="86" type="line"/>
      <point x="651" y="119"/>
      <point x="665" y="127"/>
      <point x="714" y="154" type="curve" smooth="yes"/>
      <point x="766" y="181"/>
      <point x="784" y="193"/>
      <point x="808" y="215" type="curve" smooth="yes"/>
      <point x="839" y="244"/>
      <point x="857" y="279"/>
      <point x="857" y="311" type="curve" smooth="yes"/>
      <point x="857" y="377"/>
      <point x="799" y="422"/>
      <point x="712" y="422" type="curve" smooth="yes"/>
      <point x="618" y="422"/>
      <point x="548" y="369"/>
      <point x="548" y="297" type="curve" smooth="yes"/>
      <point x="548" y="257"/>
      <point x="576" y="228"/>
      <point x="615" y="228" type="curve" smooth="yes"/>
      <point x="648" y="228"/>
      <point x="671" y="248"/>
      <point x="671" y="279" type="curve" smooth="yes"/>
      <point x="671" y="300"/>
      <point x="660" y="314"/>
      <point x="635" y="324" type="curve" smooth="yes"/>
      <point x="615" y="332"/>
      <point x="611" y="335"/>
      <point x="611" y="343" type="curve" smooth="yes"/>
      <point x="611" y="361"/>
      <point x="643" y="379"/>
      <point x="674" y="379" type="curve" smooth="yes"/>
      <point x="716" y="379"/>
      <point x="744" y="353"/>
      <point x="744" y="316" type="curve" smooth="yes"/>
      <point x="744" y="290"/>
      <point x="731" y="258"/>
      <point x="708" y="232" type="curve" smooth="yes"/>
      <point x="689" y="210"/>
      <point x="656" y="181"/>
      <point x="595" y="132" type="curve" smooth="yes"/>
      <point x="503" y="58"/>
      <point x="477" y="28"/>
      <point x="481" y="0" type="curve"/>
      <point x="782" y="0" type="line"/>
      <point x="837" y="143" type="line"/>
    </contour>
  </outline>
</glyph>
<glyph name="threequarters" format="1">
  <advance width="861"/>
  <unicode hex="00BE"/>
  <outline>
    <contour>
      <point x="615" y="722" type="line"/>
      <point x="195" y="0" type="line"/>
      <point x="275" y="0" type="line"/>
      <point x="694" y="722" type="line"/>
    </contour>
    <contour>
      <point x="819" y="155" type="line"/>
      <point x="748" y="155" type="line"/>
      <point x="826" y="424" type="line"/>
      <point x="760" y="424" type="line"/>
      <point x="467" y="147" type="line"/>
      <point x="467" y="109" type="line"/>
      <point x="633" y="109" type="line"/>
      <point x="628" y="90" type="line" smooth="yes"/>
      <point x="616" y="50"/>
      <point x="616" y="50"/>
      <point x="612" y="46" type="curve"/>
      <point x="606" y="41"/>
      <point x="591" y="39"/>
      <point x="566" y="39" type="curve" smooth="yes"/>
      <point x="548" y="39" type="line"/>
      <point x="542" y="0" type="line"/>
      <point x="777" y="0" type="line"/>
      <point x="783" y="39" type="line"/>
      <point x="768" y="39" type="line" smooth="yes"/>
      <point x="729" y="39"/>
      <point x="721" y="41"/>
      <point x="721" y="52" type="curve" smooth="yes"/>
      <point x="721" y="57"/>
      <point x="723" y="67"/>
      <point x="729" y="88" type="curve" smooth="yes"/>
      <point x="735" y="109" type="line"/>
      <point x="811" y="109" type="line"/>
    </contour>
    <contour>
      <point x="646" y="155" type="line"/>
      <point x="535" y="155" type="line"/>
      <point x="688" y="303" type="line"/>
    </contour>
    <contour>
      <point x="242" y="500" type="line"/>
      <point x="246" y="501" type="line" smooth="yes"/>
      <point x="307" y="515"/>
      <point x="348" y="557"/>
      <point x="348" y="606" type="curve" smooth="yes"/>
      <point x="348" y="664"/>
      <point x="290" y="705"/>
      <point x="206" y="705" type="curve" smooth="yes"/>
      <point x="125" y="705"/>
      <point x="61" y="663"/>
      <point x="61" y="609" type="curve" smooth="yes"/>
      <point x="61" y="577"/>
      <point x="85" y="554"/>
      <point x="118" y="554" type="curve" smooth="yes"/>
      <point x="147" y="554"/>
      <point x="171" y="574"/>
      <point x="171" y="599" type="curve" smooth="yes"/>
      <point x="171" y="616"/>
      <point x="162" y="629"/>
      <point x="142" y="643" type="curve"/>
      <point x="139" y="644"/>
      <point x="138" y="646"/>
      <point x="138" y="647" type="curve" smooth="yes"/>
      <point x="138" y="657"/>
      <point x="162" y="667"/>
      <point x="186" y="667" type="curve" smooth="yes"/>
      <point x="220" y="667"/>
      <point x="240" y="646"/>
      <point x="240" y="610" type="curve" smooth="yes"/>
      <point x="240" y="561"/>
      <point x="206" y="517"/>
      <point x="168" y="517" type="curve" smooth="yes"/>
      <point x="161" y="517"/>
      <point x="157" y="518"/>
      <point x="148" y="520" type="curve" smooth="yes"/>
      <point x="140" y="522"/>
      <point x="136" y="523"/>
      <point x="130" y="523" type="curve" smooth="yes"/>
      <point x="115" y="523"/>
      <point x="105" y="513"/>
      <point x="105" y="499" type="curve" smooth="yes"/>
      <point x="105" y="485"/>
      <point x="115" y="477"/>
      <point x="131" y="477" type="curve" smooth="yes"/>
      <point x="135" y="477"/>
      <point x="141" y="478"/>
      <point x="146" y="479" type="curve"/>
      <point x="160" y="483"/>
      <point x="160" y="483"/>
      <point x="166" y="483" type="curve" smooth="yes"/>
      <point x="192" y="483"/>
      <point x="207" y="463"/>
      <point x="207" y="428" type="curve" smooth="yes"/>
      <point x="207" y="357"/>
      <point x="173" y="310"/>
      <point x="121" y="310" type="curve" smooth="yes"/>
      <point x="96" y="310"/>
      <point x="68" y="324"/>
      <point x="68" y="336" type="curve" smooth="yes"/>
      <point x="68" y="339"/>
      <point x="69" y="340"/>
      <point x="72" y="341" type="curve" smooth="yes"/>
      <point x="101" y="350"/>
      <point x="114" y="364"/>
      <point x="114" y="387" type="curve" smooth="yes"/>
      <point x="114" y="415"/>
      <point x="91" y="436"/>
      <point x="59" y="436" type="curve" smooth="yes"/>
      <point x="22" y="436"/>
      <point x="-4" y="410"/>
      <point x="-4" y="373" type="curve" smooth="yes"/>
      <point x="-4" y="313"/>
      <point x="52" y="274"/>
      <point x="139" y="274" type="curve" smooth="yes"/>
      <point x="243" y="274"/>
      <point x="320" y="332"/>
      <point x="320" y="409" type="curve" smooth="yes"/>
      <point x="320" y="438"/>
      <point x="304" y="468"/>
      <point x="280" y="482" type="curve" smooth="yes"/>
      <point x="269" y="489"/>
      <point x="258" y="493"/>
      <point x="237" y="498" type="curve"/>
      <point x="239" y="499"/>
      <point x="240" y="499"/>
      <point x="241" y="499" type="curve"/>
    </contour>
  </outline>
</glyph>
<glyph name="questiondown" format="1">
  <advance width="481"/>
  <unicode hex="00BF"/>
  <outline>
    <contour>
      <point x="128" y="199" type="line"/>
      <point x="146" y="249"/>
      <point x="169" y="272"/>
      <point x="202" y="272" type="curve" smooth="yes"/>
      <point x="230" y="272"/>
      <point x="248" y="256"/>
      <point x="248" y="230" type="curve" smooth="yes"/>
      <point x="248" y="204"/>
      <point x="235" y="191"/>
      <point x="172" y="158" type="curve" smooth="yes"/>
      <point x="49" y="93"/>
      <point x="1" y="35"/>
      <point x="1" y="-48" type="curve" smooth="yes"/>
      <point x="1" y="-138"/>
      <point x="72" y="-203"/>
      <point x="168" y="-203" type="curve" smooth="yes"/>
      <point x="227" y="-203"/>
      <point x="279" y="-178"/>
      <point x="311" y="-134" type="curve" smooth="yes"/>
      <point x="338" y="-98"/>
      <point x="354" y="-52"/>
      <point x="354" y="-12" type="curve" smooth="yes"/>
      <point x="354" y="-8"/>
      <point x="353" y="2"/>
      <point x="352" y="14" type="curve"/>
      <point x="304" y="14" type="line"/>
      <point x="305" y="4"/>
      <point x="306" y="-1"/>
      <point x="306" y="-5" type="curve" smooth="yes"/>
      <point x="306" y="-84"/>
      <point x="246" y="-155"/>
      <point x="180" y="-155" type="curve" smooth="yes"/>
      <point x="136" y="-155"/>
      <point x="107" y="-129"/>
      <point x="107" y="-91" type="curve" smooth="yes"/>
      <point x="107" y="-60"/>
      <point x="124" y="-41"/>
      <point x="189" y="-4" type="curve" smooth="yes"/>
      <point x="288" y="52"/>
      <point x="341" y="124"/>
      <point x="341" y="202" type="curve" smooth="yes"/>
      <point x="341" y="269"/>
      <point x="288" y="322"/>
      <point x="220" y="322" type="curve" smooth="yes"/>
      <point x="154" y="322"/>
      <point x="100" y="279"/>
      <point x="79" y="211" type="curve"/>
    </contour>
    <contour>
      <point x="282" y="549" type="curve" smooth="yes"/>
      <point x="233" y="549"/>
      <point x="194" y="510"/>
      <point x="194" y="462" type="curve" smooth="yes"/>
      <point x="194" y="414"/>
      <point x="233" y="375"/>
      <point x="281" y="375" type="curve" smooth="yes"/>
      <point x="329" y="375"/>
      <point x="368" y="414"/>
      <point x="368" y="462" type="curve" smooth="yes"/>
      <point x="368" y="509"/>
      <point x="329" y="549"/>
    </contour>
  </outline>
</glyph>
<glyph name="Atilde" format="1">
  <advance width="741"/>
  <unicode hex="00C3"/>
  <outline>
    <contour>
      <point x="481" y="736" type="line"/>
      <point x="419" y="736" type="line"/>
      <point x="71" y="157" type="line" smooth="yes"/>
      <point x="33" y="93"/>
      <point x="-18" y="54"/>
      <point x="-62" y="54" type="curve" smooth="yes"/>
      <point x="-68" y="54" type="line"/>
      <point x="-75" y="0" type="line"/>
      <point x="211" y="0" type="line"/>
      <point x="219" y="54" type="line"/>
      <point x="206" y="54" type="line" smooth="yes"/>
      <point x="150" y="54"/>
      <point x="125" y="67"/>
      <point x="125" y="96" type="curve" smooth="yes"/>
      <point x="125" y="108"/>
      <point x="130" y="124"/>
      <point x="139" y="139" type="curve" smooth="yes"/>
      <point x="185" y="220" type="line"/>
      <point x="417" y="220" type="line"/>
      <point x="437" y="117" type="line" smooth="yes"/>
      <point x="440" y="103"/>
      <point x="441" y="92"/>
      <point x="441" y="85" type="curve" smooth="yes"/>
      <point x="441" y="76"/>
      <point x="434" y="66"/>
      <point x="424" y="62" type="curve"/>
      <point x="410" y="55"/>
      <point x="399" y="54"/>
      <point x="358" y="54" type="curve" smooth="yes"/>
      <point x="342" y="54" type="line"/>
      <point x="335" y="0" type="line"/>
      <point x="709" y="0" type="line"/>
      <point x="716" y="54" type="line"/>
      <point x="702" y="54" type="line" smooth="yes"/>
      <point x="641" y="54"/>
      <point x="622" y="67"/>
      <point x="612" y="114" type="curve" smooth="yes"/>
    </contour>
    <contour>
      <point x="404" y="274" type="line"/>
      <point x="217" y="274" type="line"/>
      <point x="358" y="515" type="line"/>
    </contour>
    <contour>
      <point x="591" y="922" type="line"/>
      <point x="583" y="896"/>
      <point x="566" y="882"/>
      <point x="541" y="882" type="curve" smooth="yes"/>
      <point x="526" y="882"/>
      <point x="519" y="884"/>
      <point x="471" y="903" type="curve" smooth="yes"/>
      <point x="438" y="916"/>
      <point x="412" y="922"/>
      <point x="392" y="922" type="curve" smooth="yes"/>
      <point x="326" y="922"/>
      <point x="273" y="869"/>
      <point x="268" y="796" type="curve"/>
      <point x="315" y="796" type="line"/>
      <point x="320" y="823"/>
      <point x="335" y="838"/>
      <point x="357" y="838" type="curve" smooth="yes"/>
      <point x="372" y="838"/>
      <point x="384" y="835"/>
      <point x="429" y="817" type="curve" smooth="yes"/>
      <point x="468" y="802"/>
      <point x="493" y="796"/>
      <point x="514" y="796" type="curve" smooth="yes"/>
      <point x="577" y="796"/>
      <point x="635" y="855"/>
      <point x="638" y="922" type="curve"/>
    </contour>
  </outline>
</glyph>
<glyph name="Aring" format="1">
  <advance width="741"/>
  <unicode hex="00C5"/>
  <outline>
    <contour>
      <point x="481" y="736" type="line"/>
      <point x="419" y="736" type="line"/>
      <point x="71" y="157" type="line" smooth="yes"/>
      <point x="33" y="93"/>
      <point x="-18" y="54"/>
      <point x="-62" y="54" type="curve" smooth="yes"/>
      <point x="-68" y="54" type="line"/>
      <point x="-75" y="0" type="line"/>
      <point x="211" y="0" type="line"/>
      <point x="219" y="54" type="line"/>
      <point x="206" y="54" type="line" smooth="yes"/>
      <point x="150" y="54"/>
      <point x="125" y="67"/>
      <point x="125" y="96" type="curve" smooth="yes"/>
      <point x="125" y="108"/>
      <point x="130" y="124"/>
      <point x="139" y="139" type="curve" smooth="yes"/>
      <point x="185" y="220" type="line"/>
      <point x="417" y="220" type="line"/>
      <point x="437" y="117" type="line" smooth="yes"/>
      <point x="440" y="103"/>
      <point x="441" y="92"/>
      <point x="441" y="85" type="curve" smooth="yes"/>
      <point x="441" y="76"/>
      <point x="434" y="66"/>
      <point x="424" y="62" type="curve"/>
      <point x="410" y="55"/>
      <point x="399" y="54"/>
      <point x="358" y="54" type="curve" smooth="yes"/>
      <point x="342" y="54" type="line"/>
      <point x="335" y="0" type="line"/>
      <point x="709" y="0" type="line"/>
      <point x="716" y="54" type="line"/>
      <point x="702" y="54" type="line" smooth="yes"/>
      <point x="641" y="54"/>
      <point x="622" y="67"/>
      <point x="612" y="114" type="curve" smooth="yes"/>
    </contour>
    <contour>
      <point x="404" y="274" type="line"/>
      <point x="217" y="274" type="line"/>
      <point x="358" y="515" type="line"/>
    </contour>
    <contour>
      <point x="466" y="998" type="curve" smooth="yes"/>
      <point x="407" y="998"/>
      <point x="358" y="949"/>
      <point x="358" y="891" type="curve" smooth="yes"/>
      <point x="358" y="832"/>
      <point x="407" y="783"/>
      <point x="464" y="783" type="curve" smooth="yes"/>
      <point x="525" y="783"/>
      <point x="573" y="831"/>
      <point x="573" y="891" type="curve" smooth="yes"/>
      <point x="573" y="950"/>
      <point x="525" y="998"/>
    </contour>
    <contour>
      <point x="466" y="944" type="curve" smooth="yes"/>
      <point x="495" y="944"/>
      <point x="519" y="920"/>
      <point x="519" y="891" type="curve" smooth="yes"/>
      <point x="519" y="861"/>
      <point x="495" y="837"/>
      <point x="465" y="837" type="curve" smooth="yes"/>
      <point x="436" y="837"/>
      <point x="412" y="862"/>
      <point x="412" y="890" type="curve" smooth="yes"/>
      <point x="412" y="920"/>
      <point x="436" y="944"/>
    </contour>
  </outline>
</glyph>
<glyph name="AE" format="1">
  <advance width="889"/>
  <unicode hex="00C6"/>
  <outline>
    <contour>
      <point x="903" y="722" type="line"/>
      <point x="215" y="722" type="line"/>
      <point x="208" y="668" type="line"/>
      <point x="239" y="668" type="line" smooth="yes"/>
      <point x="283" y="668"/>
      <point x="311" y="651"/>
      <point x="311" y="624" type="curve" smooth="yes"/>
      <point x="311" y="609"/>
      <point x="305" y="593"/>
      <point x="291" y="572" type="curve" smooth="yes"/>
      <point x="-3" y="122" type="line" smooth="yes"/>
      <point x="-36" y="70"/>
      <point x="-46" y="60"/>
      <point x="-74" y="54" type="curve"/>
      <point x="-81" y="0" type="line"/>
      <point x="138" y="0" type="line"/>
      <point x="145" y="54" type="line"/>
      <point x="89" y="55"/>
      <point x="65" y="66"/>
      <point x="65" y="92" type="curve" smooth="yes"/>
      <point x="65" y="102"/>
      <point x="69" y="113"/>
      <point x="77" y="126" type="curve" smooth="yes"/>
      <point x="168" y="271" type="line"/>
      <point x="339" y="271" type="line"/>
      <point x="305" y="144" type="line" smooth="yes"/>
      <point x="286" y="76"/>
      <point x="286" y="76"/>
      <point x="278" y="68" type="curve" smooth="yes"/>
      <point x="268" y="58"/>
      <point x="244" y="54"/>
      <point x="202" y="54" type="curve" smooth="yes"/>
      <point x="198" y="54" type="line"/>
      <point x="190" y="0" type="line"/>
      <point x="784" y="0" type="line"/>
      <point x="850" y="248" type="line"/>
      <point x="801" y="259" type="line"/>
      <point x="743" y="137"/>
      <point x="632" y="54"/>
      <point x="526" y="54" type="curve" smooth="yes"/>
      <point x="514" y="54" type="line" smooth="yes"/>
      <point x="483" y="54"/>
      <point x="467" y="63"/>
      <point x="467" y="79" type="curve" smooth="yes"/>
      <point x="467" y="88"/>
      <point x="469" y="99"/>
      <point x="472" y="111" type="curve" smooth="yes"/>
      <point x="535" y="347" type="line"/>
      <point x="547" y="347" type="line" smooth="yes"/>
      <point x="560" y="347"/>
      <point x="576" y="342"/>
      <point x="592" y="332" type="curve" smooth="yes"/>
      <point x="617" y="316"/>
      <point x="628" y="292"/>
      <point x="628" y="250" type="curve" smooth="yes"/>
      <point x="628" y="232"/>
      <point x="627" y="217"/>
      <point x="622" y="188" type="curve"/>
      <point x="669" y="181" type="line"/>
      <point x="759" y="516" type="line"/>
      <point x="712" y="523" type="line"/>
      <point x="681" y="440"/>
      <point x="632" y="401"/>
      <point x="559" y="401" type="curve" smooth="yes"/>
      <point x="550" y="401" type="line"/>
      <point x="608" y="620" type="line" smooth="yes"/>
      <point x="619" y="658"/>
      <point x="630" y="668"/>
      <point x="665" y="668" type="curve" smooth="yes"/>
      <point x="676" y="668" type="line" smooth="yes"/>
      <point x="733" y="668"/>
      <point x="775" y="646"/>
      <point x="796" y="604" type="curve" smooth="yes"/>
      <point x="809" y="578"/>
      <point x="814" y="549"/>
      <point x="814" y="477" type="curve"/>
      <point x="863" y="477" type="line"/>
    </contour>
    <contour>
      <point x="353" y="325" type="line"/>
      <point x="205" y="325" type="line"/>
      <point x="421" y="658" type="line" smooth="yes"/>
      <point x="425" y="664"/>
      <point x="429" y="667"/>
      <point x="434" y="667" type="curve" smooth="yes"/>
      <point x="438" y="667"/>
      <point x="443" y="664"/>
      <point x="443" y="661" type="curve"/>
      <point x="443" y="661"/>
      <point x="443" y="659"/>
      <point x="442" y="657" type="curve"/>
    </contour>
  </outline>
</glyph>
<glyph name="Ccedilla" format="1">
  <advance width="759"/>
  <unicode hex="00C7"/>
  <outline>
    <contour>
      <point x="361" y="-15" type="line"/>
      <point x="513" y="-18"/>
      <point x="627" y="64"/>
      <point x="679" y="212" type="curve"/>
      <point x="616" y="212" type="line"/>
      <point x="579" y="115"/>
      <point x="488" y="47"/>
      <point x="397" y="47" type="curve" smooth="yes"/>
      <point x="291" y="47"/>
      <point x="225" y="121"/>
      <point x="225" y="237" type="curve" smooth="yes"/>
      <point x="225" y="349"/>
      <point x="261" y="479"/>
      <point x="320" y="576" type="curve" smooth="yes"/>
      <point x="361" y="646"/>
      <point x="421" y="684"/>
      <point x="487" y="684" type="curve" smooth="yes"/>
      <point x="594" y="684"/>
      <point x="647" y="603"/>
      <point x="652" y="432" type="curve"/>
      <point x="701" y="426" type="line"/>
      <point x="759" y="712" type="line"/>
      <point x="713" y="712" type="line"/>
      <point x="657" y="655" type="line"/>
      <point x="611" y="711"/>
      <point x="552" y="737"/>
      <point x="473" y="737" type="curve" smooth="yes"/>
      <point x="238" y="737"/>
      <point x="35" y="531"/>
      <point x="35" y="292" type="curve" smooth="yes"/>
      <point x="35" y="123"/>
      <point x="138" y="11"/>
      <point x="317" y="-12" type="curve"/>
      <point x="257" y="-91" type="line"/>
      <point x="274" y="-108" type="line"/>
      <point x="289" y="-105"/>
      <point x="295" y="-104"/>
      <point x="303" y="-104" type="curve" smooth="yes"/>
      <point x="327" y="-104"/>
      <point x="345" y="-119"/>
      <point x="345" y="-139" type="curve" smooth="yes"/>
      <point x="345" y="-161"/>
      <point x="325" y="-177"/>
      <point x="296" y="-177" type="curve" smooth="yes"/>
      <point x="274" y="-177"/>
      <point x="256" y="-172"/>
      <point x="224" y="-158" type="curve"/>
      <point x="202" y="-193" type="line"/>
      <point x="229" y="-212"/>
      <point x="268" y="-222"/>
      <point x="311" y="-222" type="curve" smooth="yes"/>
      <point x="391" y="-222"/>
      <point x="446" y="-186"/>
      <point x="446" y="-134" type="curve" smooth="yes"/>
      <point x="446" y="-91"/>
      <point x="409" y="-59"/>
      <point x="360" y="-59" type="curve" smooth="yes"/>
      <point x="352" y="-59"/>
      <point x="340" y="-60"/>
      <point x="327" y="-62" type="curve"/>
    </contour>
  </outline>
</glyph>
<glyph name="Egrave" format="1">
  <advance width="741"/>
  <unicode hex="00C8"/>
  <outline>
    <contour>
      <point x="728" y="722" type="line"/>
      <point x="113" y="722" type="line"/>
      <point x="105" y="668" type="line"/>
      <point x="124" y="668" type="line" smooth="yes"/>
      <point x="189" y="668"/>
      <point x="203" y="663"/>
      <point x="203" y="641" type="curve" smooth="yes"/>
      <point x="203" y="632"/>
      <point x="199" y="613"/>
      <point x="190" y="578" type="curve" smooth="yes"/>
      <point x="73" y="144" type="line"/>
      <point x="62" y="102" type="line" smooth="yes"/>
      <point x="51" y="60"/>
      <point x="39" y="54"/>
      <point x="-30" y="54" type="curve" smooth="yes"/>
      <point x="-34" y="54" type="line"/>
      <point x="-41" y="0" type="line"/>
      <point x="602" y="0" type="line"/>
      <point x="668" y="248" type="line"/>
      <point x="616" y="259" type="line"/>
      <point x="593" y="213"/>
      <point x="566" y="177"/>
      <point x="528" y="141" type="curve" smooth="yes"/>
      <point x="463" y="79"/>
      <point x="405" y="54"/>
      <point x="325" y="54" type="curve" smooth="yes"/>
      <point x="289" y="54" type="line" smooth="yes"/>
      <point x="251" y="54"/>
      <point x="235" y="61"/>
      <point x="235" y="79" type="curve" smooth="yes"/>
      <point x="235" y="85"/>
      <point x="237" y="98"/>
      <point x="241" y="111" type="curve" smooth="yes"/>
      <point x="304" y="347" type="line"/>
      <point x="326" y="347" type="line" smooth="yes"/>
      <point x="389" y="347"/>
      <point x="420" y="315"/>
      <point x="420" y="250" type="curve" smooth="yes"/>
      <point x="420" y="232"/>
      <point x="419" y="218"/>
      <point x="415" y="188" type="curve"/>
      <point x="468" y="181" type="line"/>
      <point x="558" y="516" type="line"/>
      <point x="505" y="523" type="line"/>
      <point x="471" y="434"/>
      <point x="426" y="401"/>
      <point x="339" y="401" type="curve" smooth="yes"/>
      <point x="318" y="401" type="line"/>
      <point x="377" y="620" type="line" smooth="yes"/>
      <point x="388" y="659"/>
      <point x="399" y="668"/>
      <point x="440" y="668" type="curve" smooth="yes"/>
      <point x="478" y="668" type="line" smooth="yes"/>
      <point x="548" y="668"/>
      <point x="595" y="646"/>
      <point x="615" y="604" type="curve" smooth="yes"/>
      <point x="629" y="577"/>
      <point x="635" y="540"/>
      <point x="636" y="477" type="curve"/>
      <point x="688" y="477" type="line"/>
    </contour>
    <contour>
      <point x="545" y="774" type="line"/>
      <point x="443" y="916" type="line" smooth="yes"/>
      <point x="419" y="949"/>
      <point x="405" y="958"/>
      <point x="378" y="958" type="curve" smooth="yes"/>
      <point x="347" y="958"/>
      <point x="325" y="937"/>
      <point x="325" y="909" type="curve" smooth="yes"/>
      <point x="325" y="891"/>
      <point x="335" y="875"/>
      <point x="355" y="863" type="curve" smooth="yes"/>
      <point x="496" y="774" type="line"/>
    </contour>
  </outline>
</glyph>
<glyph name="Igrave" format="1">
  <advance width="444"/>
  <unicode hex="00CC"/>
  <outline>
    <contour>
      <point x="332" y="0" type="line"/>
      <point x="340" y="54" type="line"/>
      <point x="318" y="54" type="line" smooth="yes"/>
      <point x="253" y="54"/>
      <point x="239" y="59"/>
      <point x="239" y="81" type="curve" smooth="yes"/>
      <point x="239" y="89"/>
      <point x="239" y="89"/>
      <point x="253" y="144" type="curve" smooth="yes"/>
      <point x="369" y="578" type="line" smooth="yes"/>
      <point x="387" y="647"/>
      <point x="387" y="647"/>
      <point x="396" y="654" type="curve"/>
      <point x="406" y="664"/>
      <point x="430" y="668"/>
      <point x="472" y="668" type="curve" smooth="yes"/>
      <point x="479" y="668" type="line"/>
      <point x="486" y="722" type="line"/>
      <point x="113" y="722" type="line"/>
      <point x="105" y="668" type="line"/>
      <point x="127" y="668" type="line" smooth="yes"/>
      <point x="192" y="668"/>
      <point x="206" y="663"/>
      <point x="206" y="641" type="curve" smooth="yes"/>
      <point x="206" y="632"/>
      <point x="202" y="612"/>
      <point x="192" y="578" type="curve" smooth="yes"/>
      <point x="76" y="144" type="line" smooth="yes"/>
      <point x="58" y="76"/>
      <point x="58" y="76"/>
      <point x="49" y="68" type="curve"/>
      <point x="39" y="58"/>
      <point x="15" y="54"/>
      <point x="-27" y="54" type="curve" smooth="yes"/>
      <point x="-34" y="54" type="line"/>
      <point x="-41" y="0" type="line"/>
    </contour>
    <contour>
      <point x="376" y="774" type="line"/>
      <point x="274" y="916" type="line" smooth="yes"/>
      <point x="250" y="949"/>
      <point x="236" y="958"/>
      <point x="209" y="958" type="curve" smooth="yes"/>
      <point x="178" y="958"/>
      <point x="156" y="937"/>
      <point x="156" y="909" type="curve" smooth="yes"/>
      <point x="156" y="891"/>
      <point x="166" y="875"/>
      <point x="186" y="863" type="curve" smooth="yes"/>
      <point x="327" y="774" type="line"/>
    </contour>
  </outline>
</glyph>
<glyph name="Idieresis" format="1">
  <advance width="444"/>
  <unicode hex="00CF"/>
  <outline>
    <contour>
      <point x="332" y="0" type="line"/>
      <point x="340" y="54" type="line"/>
      <point x="318" y="54" type="line" smooth="yes"/>
      <point x="253" y="54"/>
      <point x="239" y="59"/>
      <point x="239" y="81" type="curve" smooth="yes"/>
      <point x="239" y="89"/>
      <point x="239" y="89"/>
      <point x="253" y="144" type="curve" smooth="yes"/>
      <point x="369" y="578" type="line" smooth="yes"/>
      <point x="387" y="647"/>
      <point x="387" y="647"/>
      <point x="396" y="654" type="curve"/>
      <point x="406" y="664"/>
      <point x="430" y="668"/>
      <point x="472" y="668" type="curve" smooth="yes"/>
      <point x="479" y="668" type="line"/>
      <point x="486" y="722" type="line"/>
      <point x="113" y="722" type="line"/>
      <point x="105" y="668" type="line"/>
      <point x="127" y="668" type="line" smooth="yes"/>
      <point x="192" y="668"/>
      <point x="206" y="663"/>
      <point x="206" y="641" type="curve" smooth="yes"/>
      <point x="206" y="632"/>
      <point x="202" y="612"/>
      <point x="192" y="578" type="curve" smooth="yes"/>
      <point x="76" y="144" type="line" smooth="yes"/>
      <point x="58" y="76"/>
      <point x="58" y="76"/>
      <point x="49" y="68" type="curve"/>
      <point x="39" y="58"/>
      <point x="15" y="54"/>
      <point x="-27" y="54" type="curve" smooth="yes"/>
      <point x="-34" y="54" type="line"/>
      <point x="-41" y="0" type="line"/>
    </contour>
    <contour>
      <point x="212" y="933" type="curve" smooth="yes"/>
      <point x="172" y="933"/>
      <point x="140" y="901"/>
      <point x="140" y="862" type="curve" smooth="yes"/>
      <point x="140" y="823"/>
      <point x="172" y="790"/>
      <point x="211" y="790" type="curve" smooth="yes"/>
      <point x="251" y="790"/>
      <point x="283" y="822"/>
      <point x="283" y="862" type="curve" smooth="yes"/>
      <point x="283" y="901"/>
      <point x="251" y="933"/>
    </contour>
    <contour>
      <point x="427" y="933" type="curve" smooth="yes"/>
      <point x="387" y="933"/>
      <point x="355" y="901"/>
      <point x="355" y="862" type="curve" smooth="yes"/>
      <point x="355" y="823"/>
      <point x="387" y="790"/>
      <point x="426" y="790" type="curve" smooth="yes"/>
      <point x="466" y="790"/>
      <point x="498" y="822"/>
      <point x="498" y="862" type="curve" smooth="yes"/>
      <point x="498" y="901"/>
      <point x="466" y="933"/>
    </contour>
  </outline>
</glyph>
<glyph name="Ntilde" format="1">
  <advance width="852"/>
  <unicode hex="00D1"/>
  <outline>
    <contour>
      <point x="350" y="722" type="line"/>
      <point x="96" y="722" type="line"/>
      <point x="89" y="668" type="line"/>
      <point x="145" y="668" type="line" smooth="yes"/>
      <point x="176" y="668"/>
      <point x="192" y="659"/>
      <point x="204" y="636" type="curve"/>
      <point x="91" y="217" type="line" smooth="yes"/>
      <point x="61" y="113"/>
      <point x="59" y="107"/>
      <point x="31" y="81" type="curve" smooth="yes"/>
      <point x="11" y="64"/>
      <point x="-16" y="55"/>
      <point x="-50" y="54" type="curve"/>
      <point x="-57" y="0" type="line"/>
      <point x="227" y="0" type="line"/>
      <point x="235" y="54" type="line"/>
      <point x="224" y="54" type="line" smooth="yes"/>
      <point x="166" y="54"/>
      <point x="137" y="72"/>
      <point x="137" y="109" type="curve" smooth="yes"/>
      <point x="137" y="130"/>
      <point x="138" y="137"/>
      <point x="158" y="217" type="curve" smooth="yes"/>
      <point x="248" y="552" type="line"/>
      <point x="544" y="-14" type="line"/>
      <point x="624" y="-14" type="line"/>
      <point x="763" y="505" type="line" smooth="yes"/>
      <point x="794" y="611"/>
      <point x="796" y="614"/>
      <point x="824" y="641" type="curve" smooth="yes"/>
      <point x="844" y="659"/>
      <point x="871" y="668"/>
      <point x="905" y="668" type="curve"/>
      <point x="912" y="722" type="line"/>
      <point x="635" y="722" type="line"/>
      <point x="628" y="668" type="line"/>
      <point x="688" y="668"/>
      <point x="718" y="650"/>
      <point x="718" y="613" type="curve" smooth="yes"/>
      <point x="718" y="591"/>
      <point x="717" y="585"/>
      <point x="696" y="505" type="curve" smooth="yes"/>
      <point x="618" y="215" type="line"/>
    </contour>
    <contour>
      <point x="663" y="922" type="line"/>
      <point x="655" y="896"/>
      <point x="638" y="882"/>
      <point x="613" y="882" type="curve" smooth="yes"/>
      <point x="598" y="882"/>
      <point x="591" y="884"/>
      <point x="543" y="903" type="curve" smooth="yes"/>
      <point x="510" y="916"/>
      <point x="484" y="922"/>
      <point x="464" y="922" type="curve" smooth="yes"/>
      <point x="398" y="922"/>
      <point x="345" y="869"/>
      <point x="340" y="796" type="curve"/>
      <point x="387" y="796" type="line"/>
      <point x="392" y="823"/>
      <point x="407" y="838"/>
      <point x="429" y="838" type="curve" smooth="yes"/>
      <point x="444" y="838"/>
      <point x="456" y="835"/>
      <point x="501" y="817" type="curve" smooth="yes"/>
      <point x="540" y="802"/>
      <point x="565" y="796"/>
      <point x="586" y="796" type="curve" smooth="yes"/>
      <point x="649" y="796"/>
      <point x="707" y="855"/>
      <point x="710" y="922" type="curve"/>
    </contour>
  </outline>
</glyph>
<glyph name="Ograve" format="1">
  <advance width="833"/>
  <unicode hex="00D2"/>
  <outline>
    <contour>
      <point x="490" y="737" type="curve" smooth="yes"/>
      <point x="368" y="737"/>
      <point x="267" y="696"/>
      <point x="176" y="610" type="curve" smooth="yes"/>
      <point x="88" y="526"/>
      <point x="36" y="406"/>
      <point x="36" y="286" type="curve" smooth="yes"/>
      <point x="36" y="104"/>
      <point x="157" y="-15"/>
      <point x="342" y="-15" type="curve" smooth="yes"/>
      <point x="589" y="-15"/>
      <point x="797" y="193"/>
      <point x="797" y="441" type="curve" smooth="yes"/>
      <point x="797" y="520"/>
      <point x="769" y="590"/>
      <point x="714" y="646" type="curve" smooth="yes"/>
      <point x="655" y="708"/>
      <point x="582" y="737"/>
    </contour>
    <contour>
      <point x="487" y="683" type="curve" smooth="yes"/>
      <point x="526" y="683"/>
      <point x="566" y="662"/>
      <point x="586" y="631" type="curve" smooth="yes"/>
      <point x="605" y="603"/>
      <point x="613" y="568"/>
      <point x="613" y="520" type="curve" smooth="yes"/>
      <point x="613" y="415"/>
      <point x="582" y="291"/>
      <point x="533" y="196" type="curve" smooth="yes"/>
      <point x="477" y="90"/>
      <point x="415" y="39"/>
      <point x="342" y="39" type="curve" smooth="yes"/>
      <point x="264" y="39"/>
      <point x="215" y="98"/>
      <point x="215" y="193" type="curve" smooth="yes"/>
      <point x="215" y="287"/>
      <point x="251" y="428"/>
      <point x="300" y="528" type="curve" smooth="yes"/>
      <point x="352" y="633"/>
      <point x="412" y="683"/>
    </contour>
    <contour>
      <point x="571" y="774" type="line"/>
      <point x="469" y="916" type="line" smooth="yes"/>
      <point x="445" y="949"/>
      <point x="431" y="958"/>
      <point x="404" y="958" type="curve" smooth="yes"/>
      <point x="373" y="958"/>
      <point x="351" y="937"/>
      <point x="351" y="909" type="curve" smooth="yes"/>
      <point x="351" y="891"/>
      <point x="361" y="875"/>
      <point x="381" y="863" type="curve" smooth="yes"/>
      <point x="522" y="774" type="line"/>
    </contour>
  </outline>
</glyph>
<glyph name="Otilde" format="1">
  <advance width="833"/>
  <unicode hex="00D5"/>
  <outline>
    <contour>
      <point x="490" y="737" type="curve" smooth="yes"/>
      <point x="368" y="737"/>
      <point x="267" y="696"/>
      <point x="176" y="610" type="curve" smooth="yes"/>
      <point x="88" y="526"/>
      <point x="36" y="406"/>
      <point x="36" y="286" type="curve" smooth="yes"/>
      <point x="36" y="104"/>
      <point x="157" y="-15"/>
      <point x="342" y="-15" type="curve" smooth="yes"/>
      <point x="589" y="-15"/>
      <point x="797" y="193"/>
      <point x="797" y="441" type="curve" smooth="yes"/>
      <point x="797" y="520"/>
      <point x="769" y="590"/>
      <point x="714" y="646" type="curve" smooth="yes"/>
      <point x="655" y="708"/>
      <point x="582" y="737"/>
    </contour>
    <contour>
      <point x="487" y="683" type="curve" smooth="yes"/>
      <point x="526" y="683"/>
      <point x="566" y="662"/>
      <point x="586" y="631" type="curve" smooth="yes"/>
      <point x="605" y="603"/>
      <point x="613" y="568"/>
      <point x="613" y="520" type="curve" smooth="yes"/>
      <point x="613" y="415"/>
      <point x="582" y="291"/>
      <point x="533" y="196" type="curve" smooth="yes"/>
      <point x="477" y="90"/>
      <point x="415" y="39"/>
      <point x="342" y="39" type="curve" smooth="yes"/>
      <point x="264" y="39"/>
      <point x="215" y="98"/>
      <point x="215" y="193" type="curve" smooth="yes"/>
      <point x="215" y="287"/>
      <point x="251" y="428"/>
      <point x="300" y="528" type="curve" smooth="yes"/>
      <point x="352" y="633"/>
      <point x="412" y="683"/>
    </contour>
    <contour>
      <point x="654" y="922" type="line"/>
      <point x="646" y="896"/>
      <point x="629" y="882"/>
      <point x="604" y="882" type="curve" smooth="yes"/>
      <point x="589" y="882"/>
      <point x="582" y="884"/>
      <point x="534" y="903" type="curve" smooth="yes"/>
      <point x="501" y="916"/>
      <point x="475" y="922"/>
      <point x="455" y="922" type="curve" smooth="yes"/>
      <point x="389" y="922"/>
      <point x="336" y="869"/>
      <point x="331" y="796" type="curve"/>
      <point x="378" y="796" type="line"/>
      <point x="383" y="823"/>
      <point x="398" y="838"/>
      <point x="420" y="838" type="curve" smooth="yes"/>
      <point x="435" y="838"/>
      <point x="447" y="835"/>
      <point x="492" y="817" type="curve" smooth="yes"/>
      <point x="531" y="802"/>
      <point x="556" y="796"/>
      <point x="577" y="796" type="curve" smooth="yes"/>
      <point x="640" y="796"/>
      <point x="698" y="855"/>
      <point x="701" y="922" type="curve"/>
    </contour>
  </outline>
</glyph>
<glyph name="multiply" format="1">
  <advance width="606"/>
  <unicode hex="00D7"/>
  <outline>
    <contour>
      <point x="294" y="171" type="line"/>
      <point x="466" y="0" type="line"/>
      <point x="547" y="81" type="line"/>
      <point x="375" y="253" type="line"/>
      <point x="547" y="424" type="line"/>
      <point x="466" y="506" type="line"/>
      <point x="294" y="334" type="line"/>
      <point x="122" y="506" type="line"/>
      <point x="41" y="424" type="line"/>
      <point x="213" y="253" type="line"/>
      <point x="41" y="81" type="line"/>
      <point x="122" y="0" type="line"/>
    </contour>
  </outline>
</glyph>
